<?xml version="1.0" encoding="UTF-8" standalone="no"?>
<!-- Created with Inkscape (http://www.inkscape.org/) -->

<svg
   xmlns:dc="http://purl.org/dc/elements/1.1/"
   xmlns:cc="http://creativecommons.org/ns#"
   xmlns:rdf="http://www.w3.org/1999/02/22-rdf-syntax-ns#"
   xmlns:svg="http://www.w3.org/2000/svg"
   xmlns="http://www.w3.org/2000/svg"
   xmlns:sodipodi="http://sodipodi.sourceforge.net/DTD/sodipodi-0.dtd"
   xmlns:inkscape="http://www.inkscape.org/namespaces/inkscape"
   width="100%"
   height="100%"
   id="svg2"
   viewBox="0 0 1000 600"
   version="1.1"
   inkscape:version="0.48.0 r9654"
   sodipodi:docname="Complement.svg"
   inkscape:export-filename="D:\home\projects\docs\130711_shapeways_reports\130711\rasterization.png"
   inkscape:export-xdpi="32.578278"
   inkscape:export-ydpi="32.578278"
   style="display:inline">
  <defs
     id="defs4">
    <inkscape:perspective
       sodipodi:type="inkscape:persp3d"
       inkscape:vp_x="0 : 500 : 1"
       inkscape:vp_y="0 : 1000 : 0"
       inkscape:vp_z="1000 : 500 : 1"
       inkscape:persp3d-origin="500 : 333.33333 : 1"
       id="perspective4777" />
    <marker
       inkscape:stockid="Arrow1Mend"
       orient="auto"
       refY="0"
       refX="0"
       id="Arrow1Mend"
       style="overflow:visible">
      <path
         id="path3787"
         d="M 0,0 5,-5 -12.5,0 5,5 0,0 z"
         style="fill-rule:evenodd;stroke:#000000;stroke-width:1pt;marker-start:none"
         transform="matrix(-0.4,0,0,-0.4,-4,0)"
         inkscape:connector-curvature="0" />
    </marker>
    <marker
       inkscape:stockid="Arrow1Mstart"
       orient="auto"
       refY="0"
       refX="0"
       id="Arrow1Mstart"
       style="overflow:visible">
      <path
         id="path3784"
         d="M 0,0 5,-5 -12.5,0 5,5 0,0 z"
         style="fill-rule:evenodd;stroke:#000000;stroke-width:1pt;marker-start:none"
         transform="matrix(0.4,0,0,0.4,4,0)"
         inkscape:connector-curvature="0" />
    </marker>
  </defs>
  <sodipodi:namedview
     id="base"
     pagecolor="#ffffff"
     bordercolor="#666666"
     borderopacity="1.0"
     inkscape:pageopacity="0.0"
     inkscape:pageshadow="2"
     inkscape:zoom="0.70000002"
     inkscape:cx="868.87252"
     inkscape:cy="514.42186"
     inkscape:document-units="px"
     inkscape:current-layer="layer3"
     showgrid="false"
     inkscape:window-width="1446"
     inkscape:window-height="1100"
     inkscape:window-x="191"
     inkscape:window-y="5"
     inkscape:window-maximized="0"
     fit-margin-top="0"
     fit-margin-left="0"
     fit-margin-right="0"
     fit-margin-bottom="0" />
  <metadata
     id="metadata7">
    <rdf:RDF>
      <cc:Work
         rdf:about="">
        <dc:format>image/svg+xml</dc:format>
        <dc:type
           rdf:resource="http://purl.org/dc/dcmitype/StillImage" />
        <dc:title></dc:title>
      </cc:Work>
    </rdf:RDF>
  </metadata>
  <g
     inkscape:groupmode="layer"
     id="layer3"
     inkscape:label="diagram"
     style="display:inline"
     transform="translate(336.83786,-1527.7919)">
    <path
       style="color:#000000;fill:#4d4d4d;fill-opacity:1;stroke:none;stroke-width:2;marker:none;visibility:visible;display:inline;overflow:visible;enable-background:accumulate"
       d="m 215.87643,1587.6446 0,428.3125 407.09375,0 0,-428.3125 -407.09375,0 z m 99.1875,98.9375 85.9375,0 c 17.27559,10e-5 30.41569,1.7373 39.40625,5.2187 8.99027,3.4818 16.18571,9.6548 21.5625,18.4688 5.37645,8.8143 8.06232,18.5537 8.0625,29.2187 -1.8e-4,13.7502 -4.44164,25.319 -13.34375,34.75 -8.90244,9.4312 -22.6523,15.444 -41.25,18 6.78676,3.2613 11.94296,6.452 15.46875,9.625 7.49187,6.8751 14.58235,15.4688 21.28125,25.7813 l 33.71875,52.7812 -32.28125,0 -25.65625,-40.3437 c -7.49215,-11.6347 -13.65234,-20.5176 -18.5,-26.6875 -4.84789,-6.1699 -9.19721,-10.5008 -13.03125,-12.9688 -3.83425,-2.4679 -7.72123,-4.1866 -11.6875,-5.1562 -2.90875,-0.6169 -7.67073,-0.9375 -14.28125,-0.9375 l -29.75,0 0,86.0937 -25.65625,0 0,-193.8437 z m 25.65625,21.4375 0,64.125 55.125,0 c 11.72269,10e-5 20.88927,-1.2323 27.5,-3.6563 6.61047,-2.4238 11.65609,-6.2923 15.09375,-11.625 3.43737,-5.3324 5.1561,-11.1168 5.15625,-17.375 -1.5e-4,-9.1666 -3.34547,-16.7194 -10,-22.625 -6.65481,-5.9053 -17.16432,-8.8436 -31.53125,-8.8437 l -61.34375,0 z"
       id="rect3041"
       inkscape:connector-curvature="0" />
    <text
       xml:space="preserve"
       style="font-size:270.77038574px;font-style:normal;font-variant:normal;font-weight:normal;font-stretch:normal;text-align:start;line-height:125%;letter-spacing:0px;word-spacing:0px;writing-mode:lr-tb;text-anchor:start;fill:#4d4d4d;fill-opacity:1;stroke:none;font-family:Arial;-inkscape-font-specification:Sans"
       x="-245.91457"
       y="1876.3002"
       id="text3033"
       sodipodi:linespacing="125%"><tspan
         sodipodi:role="line"
         id="tspan3035"
         x="-245.91457"
         y="1876.3002">R</tspan></text>
    <text
       xml:space="preserve"
       style="font-size:48px;font-style:normal;font-variant:normal;font-weight:normal;font-stretch:normal;text-align:start;line-height:125%;letter-spacing:0px;word-spacing:0px;writing-mode:lr-tb;text-anchor:start;fill:#000000;fill-opacity:1;stroke:none;font-family:Arial;-inkscape-font-specification:Sans"
       x="-271.1236"
       y="2000.649"
       id="text3044"
       sodipodi:linespacing="125%"><tspan
         sodipodi:role="line"
         id="tspan3046"
         x="-271.1236"
         y="2000.649">Source</tspan></text>
    <text
       xml:space="preserve"
       style="font-size:48px;font-style:normal;font-variant:normal;font-weight:normal;font-stretch:normal;text-align:start;line-height:125%;letter-spacing:0px;word-spacing:0px;writing-mode:lr-tb;text-anchor:start;fill:#000000;fill-opacity:1;stroke:none;font-family:Arial;-inkscape-font-specification:Sans"
       x="291.73355"
       y="2096.3633"
       id="text3048"
       sodipodi:linespacing="125%"><tspan
         sodipodi:role="line"
         id="tspan3050"
         x="291.73355"
         y="2096.3633">Complement</tspan></text>
  </g>
</svg>
