<?xml version="1.0" encoding="UTF-8" standalone="no"?>
<!-- Created with Inkscape (http://www.inkscape.org/) -->

<svg
   xmlns:dc="http://purl.org/dc/elements/1.1/"
   xmlns:cc="http://creativecommons.org/ns#"
   xmlns:rdf="http://www.w3.org/1999/02/22-rdf-syntax-ns#"
   xmlns:svg="http://www.w3.org/2000/svg"
   xmlns="http://www.w3.org/2000/svg"
   xmlns:sodipodi="http://sodipodi.sourceforge.net/DTD/sodipodi-0.dtd"
   xmlns:inkscape="http://www.inkscape.org/namespaces/inkscape"
   width="100%"
   height="100%"
   id="svg2"
   viewBox="0 0 1000 600"
   version="1.1"
   inkscape:version="0.48.0 r9654"
   sodipodi:docname="Ring.svg"
   inkscape:export-filename="D:\home\projects\docs\130711_shapeways_reports\130711\rasterization.png"
   inkscape:export-xdpi="32.578278"
   inkscape:export-ydpi="32.578278"
   style="display:inline">
  <defs
     id="defs4">
    <inkscape:perspective
       sodipodi:type="inkscape:persp3d"
       inkscape:vp_x="0 : 500 : 1"
       inkscape:vp_y="0 : 1000 : 0"
       inkscape:vp_z="1000 : 500 : 1"
       inkscape:persp3d-origin="500 : 333.33333 : 1"
       id="perspective4777" />
    <marker
       inkscape:stockid="Arrow1Mend"
       orient="auto"
       refY="0"
       refX="0"
       id="Arrow1Mend"
       style="overflow:visible">
      <path
         id="path3787"
         d="M 0,0 5,-5 -12.5,0 5,5 0,0 z"
         style="fill-rule:evenodd;stroke:#000000;stroke-width:1pt;marker-start:none"
         transform="matrix(-0.4,0,0,-0.4,-4,0)"
         inkscape:connector-curvature="0" />
    </marker>
    <marker
       inkscape:stockid="Arrow1Mstart"
       orient="auto"
       refY="0"
       refX="0"
       id="Arrow1Mstart"
       style="overflow:visible">
      <path
         id="path3784"
         d="M 0,0 5,-5 -12.5,0 5,5 0,0 z"
         style="fill-rule:evenodd;stroke:#000000;stroke-width:1pt;marker-start:none"
         transform="matrix(0.4,0,0,0.4,4,0)"
         inkscape:connector-curvature="0" />
    </marker>
  </defs>
  <sodipodi:namedview
     id="base"
     pagecolor="#ffffff"
     bordercolor="#666666"
     borderopacity="1.0"
     inkscape:pageopacity="0.0"
     inkscape:pageshadow="2"
     inkscape:zoom="0.70000002"
     inkscape:cx="426.98454"
     inkscape:cy="274.38494"
     inkscape:document-units="px"
     inkscape:current-layer="layer3"
     showgrid="false"
     inkscape:window-width="1446"
     inkscape:window-height="1066"
     inkscape:window-x="150"
     inkscape:window-y="34"
     inkscape:window-maximized="0"
     fit-margin-top="0"
     fit-margin-left="0"
     fit-margin-right="0"
     fit-margin-bottom="0" />
  <metadata
     id="metadata7">
    <rdf:RDF>
      <cc:Work
         rdf:about="">
        <dc:format>image/svg+xml</dc:format>
        <dc:type
           rdf:resource="http://purl.org/dc/dcmitype/StillImage" />
        <dc:title></dc:title>
      </cc:Work>
    </rdf:RDF>
  </metadata>
  <g
     inkscape:groupmode="layer"
     id="layer3"
     inkscape:label="diagram"
     style="display:inline"
     transform="translate(336.83786,-1527.7919)">
    <path
       style="font-size:medium;font-style:normal;font-variant:normal;font-weight:normal;font-stretch:normal;text-indent:0;text-align:start;text-decoration:none;line-height:normal;letter-spacing:normal;word-spacing:normal;text-transform:none;direction:ltr;block-progression:tb;writing-mode:lr-tb;text-anchor:start;baseline-shift:baseline;color:#000000;fill:#cccccc;fill-opacity:1;stroke:#000000;stroke-width:1.94238365;stroke-miterlimit:4;stroke-dasharray:none;marker:none;visibility:visible;display:inline;overflow:visible;enable-background:accumulate;font-family:Sans;-inkscape-font-specification:Sans"
       d="m -56.824471,1618.7007 c -96.163949,0 -174.814529,78.6506 -174.814529,174.8145 0,96.164 78.65058,174.8145 174.814529,174.8145 96.16395,0 174.814531,-78.6505 174.814531,-174.8145 0,-96.1639 -78.650581,-174.8145 -174.814531,-174.8145 z m 0,64.7461 c 61.17255,0 110.0684,48.8959 110.0684,110.0684 0,61.1725 -48.89585,110.0684 -110.0684,110.0684 -61.172549,0 -110.068409,-48.8959 -110.068409,-110.0684 0,-61.1725 48.89586,-110.0684 110.068409,-110.0684 z"
       id="path5779"
       inkscape:connector-curvature="0" />
    <path
       inkscape:connector-curvature="0"
       id="path5787"
       d="m 447.46123,1605.8436 c -96.16395,0 -174.81453,78.6506 -174.81453,174.8145 0,96.164 78.65058,174.8145 174.81453,174.8145 96.16395,0 174.81453,-78.6505 174.81453,-174.8145 0,-96.1639 -78.65058,-174.8145 -174.81453,-174.8145 z m 0,64.7461 c 61.17255,0 110.0684,48.8959 110.0684,110.0684 0,61.1725 -48.89585,110.0684 -110.0684,110.0684 -61.17255,0 -110.06841,-48.8959 -110.06841,-110.0684 0,-61.1725 48.89586,-110.0684 110.06841,-110.0684 z"
       style="font-size:medium;font-style:normal;font-variant:normal;font-weight:normal;font-stretch:normal;text-indent:0;text-align:start;text-decoration:none;line-height:normal;letter-spacing:normal;word-spacing:normal;text-transform:none;direction:ltr;block-progression:tb;writing-mode:lr-tb;text-anchor:start;baseline-shift:baseline;color:#000000;fill:#cccccc;fill-opacity:1;stroke:#000000;stroke-width:1.94238365;stroke-miterlimit:4;stroke-dasharray:none;marker:none;visibility:visible;display:inline;overflow:visible;enable-background:accumulate;font-family:Sans;-inkscape-font-specification:Sans" />
  </g>
</svg>
