<?xml version="1.0" encoding="UTF-8" standalone="no"?>
<!-- Created with Inkscape (http://www.inkscape.org/) -->

<svg
   xmlns:dc="http://purl.org/dc/elements/1.1/"
   xmlns:cc="http://creativecommons.org/ns#"
   xmlns:rdf="http://www.w3.org/1999/02/22-rdf-syntax-ns#"
   xmlns:svg="http://www.w3.org/2000/svg"
   xmlns="http://www.w3.org/2000/svg"
   xmlns:sodipodi="http://sodipodi.sourceforge.net/DTD/sodipodi-0.dtd"
   xmlns:inkscape="http://www.inkscape.org/namespaces/inkscape"
   width="744.09448819"
   height="1052.3622047"
   id="svg2"
   version="1.1"
   inkscape:version="0.48.2 r9819"
   sodipodi:docname="crosssesction_02.svg">
  <defs
     id="defs4" />
  <sodipodi:namedview
     id="base"
     pagecolor="#ffffff"
     bordercolor="#666666"
     borderopacity="1.0"
     inkscape:pageopacity="1"
     inkscape:pageshadow="2"
     inkscape:zoom="1.28"
     inkscape:cx="335.76452"
     inkscape:cy="791.12936"
     inkscape:document-units="px"
     inkscape:current-layer="layer1"
     showgrid="false"
     inkscape:window-width="1431"
     inkscape:window-height="976"
     inkscape:window-x="121"
     inkscape:window-y="27"
     inkscape:window-maximized="0" />
  <metadata
     id="metadata7">
    <rdf:RDF>
      <cc:Work
         rdf:about="">
        <dc:format>image/svg+xml</dc:format>
        <dc:type
           rdf:resource="http://purl.org/dc/dcmitype/StillImage" />
        <dc:title></dc:title>
      </cc:Work>
    </rdf:RDF>
  </metadata>
  <g
     inkscape:label="Layer 1"
     inkscape:groupmode="layer"
     id="layer1">
    <path
       style="fill:#000000;stroke:none"
       d="m 120,98.0625 c -41.421356,0 -75,33.57864 -75,75 0,16.77138 5.510973,32.25845 14.8125,44.75 -9.613859,10.11898 -15.53125,23.78408 -15.53125,38.84375 0,31.16464 25.303733,55.01943 56.4375,56.40625 173.29602,7.71927 347.02475,6.8843 488.95624,-0.0947 30.99761,-1.52421 56.04382,-25.24128 56.04382,-56.31171 0,-14.20148 -5.24615,-27.17518 -13.90625,-37.09375 10.11924,-12.78361 16.1875,-28.92995 16.1875,-46.5 0,-41.42136 -33.57864,-75 -75,-75 -41.42136,0 -75,33.57864 -75,75 0,0.12519 -6.1e-4,0.24995 0,0.375 l -1,0 c 6.1e-4,-0.12505 0,-0.24981 0,-0.375 0,-41.42136 -33.57864,-75 -75,-75 -41.42136,0 -75,33.57864 -75,75 0,0.12519 -6.1e-4,0.24995 0,0.375 l -1,0 c 6.1e-4,-0.12505 0,-0.24981 0,-0.375 0,-41.42136 -33.57864,-75 -75,-75 -41.42136,0 -75,33.57864 -75,75 0,0.12519 -6.1e-4,0.24995 0,0.375 l -1,0 c 6.1e-4,-0.12505 0,-0.24981 0,-0.375 0,-41.42136 -33.57864,-75 -75,-75 z"
       id="path2983"
       inkscape:connector-curvature="0"
       sodipodi:nodetypes="cscsssscsssccsssccsssccssc" />
  </g>
</svg>
