<?xml version="1.0" encoding="UTF-8" standalone="no"?>
<!-- Created with Inkscape (http://www.inkscape.org/) -->

<svg
   xmlns:dc="http://purl.org/dc/elements/1.1/"
   xmlns:cc="http://creativecommons.org/ns#"
   xmlns:rdf="http://www.w3.org/1999/02/22-rdf-syntax-ns#"
   xmlns:svg="http://www.w3.org/2000/svg"
   xmlns="http://www.w3.org/2000/svg"
   xmlns:sodipodi="http://sodipodi.sourceforge.net/DTD/sodipodi-0.dtd"
   xmlns:inkscape="http://www.inkscape.org/namespaces/inkscape"
   width="256"
   height="256"
   id="svg2"
   version="1.1"
   inkscape:version="0.48.0 r9654"
   sodipodi:docname="tile_01.svg"
   inkscape:export-filename="D:\home\00_shapeways\projects\abfab3d\code\trunk\apps\ringpopper\images\tile_01.png"
   inkscape:export-xdpi="720"
   inkscape:export-ydpi="720">
  <defs
     id="defs4" />
  <sodipodi:namedview
     id="base"
     pagecolor="#ffffff"
     bordercolor="#666666"
     borderopacity="1.0"
     inkscape:pageopacity="1"
     inkscape:pageshadow="2"
     inkscape:zoom="4"
     inkscape:cx="130.41497"
     inkscape:cy="77.125904"
     inkscape:document-units="px"
     inkscape:current-layer="layer1"
     showgrid="false"
     inkscape:window-width="1431"
     inkscape:window-height="976"
     inkscape:window-x="104"
     inkscape:window-y="26"
     inkscape:window-maximized="0"
     fit-margin-top="0"
     fit-margin-left="0"
     fit-margin-right="0"
     fit-margin-bottom="0" />
  <metadata
     id="metadata7">
    <rdf:RDF>
      <cc:Work
         rdf:about="">
        <dc:format>image/svg+xml</dc:format>
        <dc:type
           rdf:resource="http://purl.org/dc/dcmitype/StillImage" />
        <dc:title></dc:title>
      </cc:Work>
    </rdf:RDF>
  </metadata>
  <g
     inkscape:label="Layer 1"
     inkscape:groupmode="layer"
     id="layer1"
     transform="translate(-151.67159,-123.12509)">
    <path
       style="fill:#000000;stroke:none"
       d="m 250.71141,121.62518 c -18.91339,0.0144 -20.16392,0.35913 -27.88641,7.8769 -2.7619,2.7012 -5.32145,8.06249 -9.12704,11.50277 -16.32794,0.86113 -41.80638,-0.74565 -42.85602,0.56263 -1.04965,1.30829 -0.57273,4.4374 -0.88429,21.91152 -0.27853,15.63913 -0.28792,18.64239 -0.25264,20.88003 -2.72185,1.57908 -3.16362,1.9496 -4.45299,2.65688 -1.6896,0.60315 -2.74445,1.48975 -7.29531,6.00145 -7.04147,6.98088 -7.25753,7.63868 -7.70588,23.16182 -0.40056,13.86868 0.7566,23.16412 2.58968,25.47489 2.37864,3.00093 5.35226,6.27136 8.93755,9.47102 -3.58538,3.19971 -6.55886,6.47004 -8.93755,9.47103 -1.83308,2.31076 -2.99024,11.6062 -2.58968,25.47488 0.44835,15.52314 0.66441,16.18094 7.70588,23.16182 4.55086,4.51171 5.60571,5.3983 7.29531,6.00145 1.28937,0.70729 1.73114,1.0778 4.45299,2.65688 -0.0353,2.23764 -0.0259,5.2409 0.25264,20.88003 0.31156,17.47413 -0.16536,20.63449 0.88429,21.94278 1.04964,1.30828 26.52808,-0.2985 42.85602,0.56264 3.80559,3.44027 6.36514,8.7703 9.12704,11.4715 7.72249,7.51777 8.97302,7.86249 27.88641,7.8769 11.97978,0.009 16.08542,-0.63401 18.79096,-1.65665 4.85271,-2.21048 6.43773,-3.77112 10.16922,-7.12671 3.73149,3.35559 5.31652,4.91623 10.16923,7.12671 2.70554,1.02264 6.81118,1.66565 18.79096,1.65665 18.91338,-0.0144 20.16391,-0.35913 27.88641,-7.8769 2.7619,-2.7012 5.32145,-8.03123 9.12704,-11.4715 16.32793,-0.86114 41.80638,0.74564 42.85602,-0.56264 1.04965,-1.30829 0.57273,-4.46865 0.88429,-21.94278 0.27852,-15.63913 0.3195,-18.64239 0.28423,-20.88003 2.72185,-1.57908 3.13203,-1.94959 4.4214,-2.65688 1.6896,-0.60315 2.74445,-1.48974 7.29531,-6.00145 7.04147,-6.98088 7.25753,-7.63868 7.70587,-23.16182 0.40057,-13.86868 -0.75659,-23.16412 -2.58967,-25.47488 -2.37869,-3.00099 -5.35217,-6.27132 -8.93755,-9.47103 3.58529,-3.19966 6.55891,-6.47009 8.93755,-9.47102 1.83308,-2.31077 2.99024,-11.60621 2.58967,-25.47489 -0.44834,-15.52314 -0.6644,-16.18094 -7.70587,-23.16182 -4.55086,-4.5117 -5.60571,-5.3983 -7.29531,-6.00145 -1.28937,-0.70728 -1.69955,-1.0778 -4.4214,-2.65688 0.0353,-2.23764 -0.006,-5.2409 -0.28423,-20.88003 -0.31156,-17.47412 0.16536,-20.60323 -0.88429,-21.91152 -1.04964,-1.30828 -26.52809,0.2985 -42.85602,-0.56263 -3.80559,-3.44028 -6.36514,-8.80157 -9.12704,-11.50277 -7.7225,-7.51777 -8.97303,-7.86249 -27.88641,-7.8769 -11.97978,-0.009 -16.08542,0.66527 -18.79096,1.68791 -4.85271,2.21048 -6.43774,3.73987 -10.16923,7.09546 -3.73149,-3.35559 -5.31651,-4.88498 -10.16922,-7.09546 -2.70554,-1.02264 -6.81118,-1.69691 -18.79096,-1.68791 z m -0.15791,17.59799 c 3.35272,0.16401 6.28514,2.65843 9.34811,5.03246 4.65149,3.60524 9.14267,7.97928 12.22202,11.75282 -3.17715,2.90447 -6.96169,5.38422 -9.50602,9.15846 -3.75496,5.5701 -11.21676,7.72285 -17.5277,11.09642 -5.05521,2.67201 -12.71054,10.27384 -14.68537,14.69103 -1.66386,3.72163 -2.74318,4.06813 -12.2536,4.09474 -13.09984,0.0366 -12.32862,-1.3376 -12.82207,23.00553 -0.17305,8.5368 -0.18247,13.82385 -0.1579,17.56673 -0.12807,1.89851 -2.31352,6.70761 -4.83197,6.68911 -5.23022,0.0843 -11.04207,-0.0532 -16.51709,-0.0937 -2.60174,-3.5338 -6.90469,-6.79169 -9.47444,-9.37726 -4.15798,-4.46972 -7.44342,-6.20668 -6.69526,-12.44049 0.74816,-6.2338 7.57491,-12.08582 18.82254,-20.00482 0.13008,-9.49925 -0.1421,-8.25196 -0.12632,-20.34864 0.0224,-6.46373 0.55006,-13.86516 0.82111,-22.34912 2.99627,-0.19265 7.94435,-0.14309 20.71743,-0.21881 10.96457,-0.0651 20.80985,-0.30462 21.85436,-0.5939 1.04453,-0.28927 2.30383,-1.52576 2.77917,-2.37556 2.96925,-5.14137 10.32256,-15.15258 18.033,-15.28493 z m 58.23619,0 c 7.71044,0.13235 15.06375,10.14357 18.033,15.28492 0.47534,0.84981 1.73464,2.0863 2.77917,2.37558 1.04451,0.28927 10.88979,0.52889 21.85436,0.59389 12.77308,0.0757 17.72116,0.0262 20.71743,0.2188 0.27105,8.48396 0.79871,15.88539 0.82111,22.34912 0.0158,12.09669 -0.2564,10.8494 -0.12632,20.34865 11.24763,7.919 18.07438,13.77102 18.82254,20.00482 0.74815,6.23381 -2.50569,7.97076 -6.66368,12.44049 -2.56974,2.58557 -6.90428,5.84347 -9.50602,9.37725 -5.47502,0.0405 -11.28688,0.17809 -16.5171,0.0937 -2.51845,0.0185 -4.70389,-4.7906 -4.83196,-6.68911 0.0246,-3.74288 0.0152,-9.02993 -0.15791,-17.56673 -0.49344,-24.34313 0.27778,-22.96893 -12.82206,-23.00553 -9.51041,-0.0266 -10.58974,-0.37311 -12.2536,-4.09474 -1.97483,-4.41719 -9.63016,-12.01903 -14.68537,-14.69104 -6.31095,-3.37356 -13.74115,-5.52631 -17.49613,-11.09642 -2.54433,-3.77423 -6.36045,-6.25399 -9.53759,-9.15845 3.07935,-3.77354 7.57052,-8.14758 12.22202,-11.75282 3.06297,-2.37402 5.99539,-4.86845 9.34811,-5.03246 z m -29.1181,41.44747 c 2.40851,1.99546 4.04073,4.36564 8.71648,7.283 4.67575,2.91737 12.48666,5.47254 17.71719,10.3775 5.23054,4.90496 6.51538,8.3287 9.44286,14.09714 8.46054,0.19724 19.9577,-0.46094 20.87533,0.75018 0.91764,1.21115 1.02464,5.37382 0.82112,37.50902 -8.8e-4,0.16813 2.7e-4,0.2618 0,0.40636 -4e-5,0.0222 1.3e-4,0.0369 0,0.0625 2.7e-4,0.14456 -8.8e-4,0.23822 0,0.40635 0.20352,32.13521 0.0965,36.32913 -0.82112,37.54028 -0.91763,1.21112 -12.41479,0.55294 -20.87533,0.75018 -2.92748,5.76843 -4.21232,9.19218 -9.44286,14.09714 -5.23053,4.90496 -13.04144,7.42888 -17.71719,10.34625 -4.67575,2.91736 -6.30797,5.28753 -8.71648,7.28299 -2.40851,-1.99546 -4.04072,-4.36563 -8.71647,-7.28299 -4.67575,-2.91737 -12.48667,-5.44129 -17.71719,-10.34625 -5.23054,-4.90496 -6.51538,-8.32871 -9.44286,-14.09714 -8.46054,-0.19724 -19.9577,0.46094 -20.87534,-0.75018 -0.91763,-1.21115 -1.02463,-5.40507 -0.82111,-37.54028 0.001,-0.19399 -0.001,-0.27691 0,-0.46886 -2.7e-4,-0.14456 8.8e-4,-0.23823 0,-0.40636 -0.20352,-32.1352 -0.0965,-36.29787 0.82111,-37.50902 0.91764,-1.21112 12.4148,-0.55294 20.87534,-0.75018 2.92748,-5.76844 4.21232,-9.19218 9.44286,-14.09714 5.23052,-4.90496 13.04144,-7.46013 17.71719,-10.3775 4.67575,-2.91736 6.30796,-5.28754 8.71647,-7.283 z m -87.4806,79.26907 c 2.79599,-0.0295 5.5329,-0.0421 8.14801,0 2.51845,-0.0185 4.7039,4.82186 4.83197,6.72037 -0.0246,3.74288 -0.0152,8.99867 0.1579,17.53547 0.49345,24.34313 -0.27777,22.96892 12.82207,23.00553 9.51042,0.0266 10.58974,0.37311 12.2536,4.09474 1.97483,4.41719 9.63016,12.01903 14.68537,14.69103 6.31094,3.37357 13.77274,5.55758 17.5277,11.12768 2.54433,3.77424 6.32887,6.22273 9.50602,9.1272 -3.07935,3.77354 -7.57053,8.17884 -12.22202,11.78408 -3.06297,2.37402 -5.99539,4.83719 -9.34811,5.0012 -7.71044,-0.13234 -15.06375,-10.14356 -18.033,-15.28492 -0.47534,-0.84981 -1.73464,-2.08629 -2.77917,-2.37557 -1.04451,-0.28928 -10.88979,-0.52889 -21.85436,-0.5939 -12.77308,-0.0757 -17.72116,0.005 -20.71743,-0.18754 -0.27105,-8.48396 -0.79871,-15.91665 -0.82111,-22.38038 -0.0158,-12.09669 0.2564,-10.84939 0.12632,-20.34865 -11.24763,-7.919 -18.07438,-13.77101 -18.82254,-20.00482 -0.74816,-6.23381 2.53728,-7.97076 6.69526,-12.44049 2.56975,-2.58557 6.8727,-5.81221 9.47444,-9.346 2.73751,-0.0202 5.5731,-0.0955 8.36908,-0.12503 z m 166.81319,0 c 5.23022,-0.0843 11.04208,0.0845 16.5171,0.12503 2.60174,3.53379 6.93628,6.76043 9.50602,9.346 4.15799,4.46973 7.41183,6.20668 6.66368,12.44049 -0.74816,6.23381 -7.57491,12.08582 -18.82254,20.00482 -0.13008,9.49926 0.14209,8.25196 0.12632,20.34865 -0.0224,6.46373 -0.55006,13.89642 -0.82111,22.38038 -2.99627,0.19264 -7.94435,0.11182 -20.71743,0.18754 -10.96457,0.065 -20.80985,0.30462 -21.85436,0.5939 -1.04453,0.28928 -2.30383,1.52576 -2.77917,2.37557 -2.96925,5.14136 -10.32256,15.15258 -18.033,15.28492 -3.35272,-0.16401 -6.28514,-2.62718 -9.34811,-5.0012 -4.6515,-3.60524 -9.14267,-8.01054 -12.22202,-11.78408 3.17714,-2.90447 6.99326,-5.35296 9.53759,-9.1272 3.75498,-5.5701 11.18518,-7.75411 17.49613,-11.12768 5.05521,-2.672 12.71054,-10.27384 14.68537,-14.69103 1.66386,-3.72163 2.74319,-4.06813 12.2536,-4.09474 13.09984,-0.0366 12.32862,1.3376 12.82206,-23.00553 0.17306,-8.5368 0.18248,-13.79259 0.15791,-17.53547 0.12807,-1.89851 2.31351,-6.73887 4.83196,-6.72037 z"
       id="rect3013"
       inkscape:connector-curvature="0" />
  </g>
</svg>
