<?xml version="1.0" encoding="UTF-8" standalone="no"?>
<!-- Created with Inkscape (http://www.inkscape.org/) -->

<svg
   xmlns:dc="http://purl.org/dc/elements/1.1/"
   xmlns:cc="http://creativecommons.org/ns#"
   xmlns:rdf="http://www.w3.org/1999/02/22-rdf-syntax-ns#"
   xmlns:svg="http://www.w3.org/2000/svg"
   xmlns="http://www.w3.org/2000/svg"
   xmlns:sodipodi="http://sodipodi.sourceforge.net/DTD/sodipodi-0.dtd"
   xmlns:inkscape="http://www.inkscape.org/namespaces/inkscape"
   width="744.09448819"
   height="1052.3622047"
   id="svg2"
   version="1.1"
   inkscape:version="0.48.2 r9819"
   sodipodi:docname="crosssesction_03.svg">
  <defs
     id="defs4" />
  <sodipodi:namedview
     id="base"
     pagecolor="#ffffff"
     bordercolor="#666666"
     borderopacity="1.0"
     inkscape:pageopacity="1"
     inkscape:pageshadow="2"
     inkscape:zoom="1.4"
     inkscape:cx="441.18964"
     inkscape:cy="754.00126"
     inkscape:document-units="px"
     inkscape:current-layer="layer1"
     showgrid="false"
     inkscape:window-width="1431"
     inkscape:window-height="976"
     inkscape:window-x="121"
     inkscape:window-y="27"
     inkscape:window-maximized="0" />
  <metadata
     id="metadata7">
    <rdf:RDF>
      <cc:Work
         rdf:about="">
        <dc:format>image/svg+xml</dc:format>
        <dc:type
           rdf:resource="http://purl.org/dc/dcmitype/StillImage" />
        <dc:title></dc:title>
      </cc:Work>
    </rdf:RDF>
  </metadata>
  <g
     inkscape:label="Layer 1"
     inkscape:groupmode="layer"
     id="layer1">
    <path
       style="fill:#000000;fill-rule:evenodd;stroke:#000000;stroke-width:1.22600234px;stroke-linecap:butt;stroke-linejoin:miter;stroke-opacity:1"
       d="m 112.51641,112.47518 c 83.96784,-1.02171 160.70335,0 241.05502,0 87.97071,0 182.0253,-1.4978 263.91214,0 32.05392,0.5863 62.14485,7.3141 61.98498,46.57006 -0.15986,39.25597 -17.17106,41.37166 -26.29298,46.10633 12.72733,10.26016 28.43584,19.6523 27.72156,49.01231 -0.71429,29.36001 -24.94071,48.99885 -56.98499,50.94243 -37.88565,2.29788 -78.38177,-11.06018 -91.78483,-50.50715 -17.60958,55.94296 -114.24817,90.6889 -159.27017,10.50715 -10.28459,55.66655 -129.45894,68.10357 -159.28508,2.23171 -34.08049,41.33347 -80.45979,36.67641 -103.91279,36.33972 -28.031469,-0.40241 -61.68913,-6.6096 -60.260558,-50.96962 1.428571,-44.36001 42.857142,-46.06022 42.857142,-46.06022 0,0 -43.675396,-4.14373 -42.857142,-47.48881 0.818253,-43.34509 31.523551,-46.29948 63.117698,-46.68391 z"
       id="rect2988"
       inkscape:connector-curvature="0"
       inkscape:export-filename="C:\home\00_shapeways\projects\abfab3d\code\trunk\apps\ringpopper\images\crossection_03.png"
       inkscape:export-xdpi="199.8813"
       inkscape:export-ydpi="199.8813"
       sodipodi:nodetypes="saszczscccszczs" />
  </g>
</svg>
