<?xml version="1.0" encoding="UTF-8" standalone="no"?>
<!-- Created with Inkscape (http://www.inkscape.org/) -->

<svg
   xmlns:dc="http://purl.org/dc/elements/1.1/"
   xmlns:cc="http://creativecommons.org/ns#"
   xmlns:rdf="http://www.w3.org/1999/02/22-rdf-syntax-ns#"
   xmlns:svg="http://www.w3.org/2000/svg"
   xmlns="http://www.w3.org/2000/svg"
   xmlns:sodipodi="http://sodipodi.sourceforge.net/DTD/sodipodi-0.dtd"
   xmlns:inkscape="http://www.inkscape.org/namespaces/inkscape"
   width="744.09448819"
   height="1052.3622047"
   id="svg2"
   version="1.1"
   inkscape:version="0.48.2 r9819"
   sodipodi:docname="tile_01.svg"
   inkscape:export-filename="C:\home\00_shapeways\projects\abfab3d\code\trunk\apps\ringpopper\images\crosssesction_02.png"
   inkscape:export-xdpi="199.8813"
   inkscape:export-ydpi="199.8813">
  <defs
     id="defs4" />
  <sodipodi:namedview
     id="base"
     pagecolor="#ffffff"
     bordercolor="#666666"
     borderopacity="1.0"
     inkscape:pageopacity="1"
     inkscape:pageshadow="2"
     inkscape:zoom="1"
     inkscape:cx="323.55141"
     inkscape:cy="623.15637"
     inkscape:document-units="px"
     inkscape:current-layer="layer1"
     showgrid="false"
     inkscape:window-width="1431"
     inkscape:window-height="976"
     inkscape:window-x="104"
     inkscape:window-y="26"
     inkscape:window-maximized="0" />
  <metadata
     id="metadata7">
    <rdf:RDF>
      <cc:Work
         rdf:about="">
        <dc:format>image/svg+xml</dc:format>
        <dc:type
           rdf:resource="http://purl.org/dc/dcmitype/StillImage" />
        <dc:title></dc:title>
      </cc:Work>
    </rdf:RDF>
  </metadata>
  <g
     inkscape:label="Layer 1"
     inkscape:groupmode="layer"
     id="layer1">
    <path
       style="opacity:1;fill:#000000;stroke:none"
       d="M 251.15625 120.1875 C 232.44136 120.2019 231.20395 120.54654 223.5625 128.0625 C 220.8296 130.76305 218.2969 136.12305 214.53125 139.5625 C 198.37468 140.42343 173.16363 138.81703 172.125 140.125 C 171.08637 141.43297 171.55829 144.56133 171.25 162.03125 C 170.97439 177.66662 170.9651 180.66915 171 182.90625 C 168.30672 184.48495 167.86959 184.85538 166.59375 185.5625 C 164.92188 186.1655 163.8781 187.05188 159.375 191.5625 C 152.40744 198.5417 152.19364 199.19934 151.75 214.71875 C 151.35364 228.58409 152.49866 237.8773 154.3125 240.1875 C 156.66617 243.18771 159.60859 246.45736 163.15625 249.65625 C 159.6085 252.85519 156.66622 256.12473 154.3125 259.125 C 152.49866 261.4352 151.35364 270.72841 151.75 284.59375 C 152.19364 300.11316 152.40744 300.7708 159.375 307.75 C 163.8781 312.26062 164.92188 313.147 166.59375 313.75 C 167.86959 314.45712 168.30672 314.82755 171 316.40625 C 170.9651 318.64335 170.97439 321.64588 171.25 337.28125 C 171.55829 354.75117 171.08637 357.91078 172.125 359.21875 C 173.16363 360.52672 198.37468 358.92032 214.53125 359.78125 C 218.2969 363.2207 220.8296 368.54945 223.5625 371.25 C 231.20395 378.76596 232.44136 379.1106 251.15625 379.125 C 263.0103 379.134 267.07286 378.49115 269.75 377.46875 C 274.55178 375.2588 276.12017 373.69853 279.8125 370.34375 C 283.50483 373.69853 285.07322 375.2588 289.875 377.46875 C 292.55214 378.49115 296.6147 379.134 308.46875 379.125 C 327.18364 379.1106 328.42105 378.76596 336.0625 371.25 C 338.7954 368.54945 341.3281 363.2207 345.09375 359.78125 C 361.25032 358.92032 386.46137 360.52672 387.5 359.21875 C 388.53863 357.91078 388.06671 354.75117 388.375 337.28125 C 388.65061 321.64588 388.69115 318.64335 388.65625 316.40625 C 391.34953 314.82755 391.75541 314.45712 393.03125 313.75 C 394.70312 313.147 395.7469 312.26062 400.25 307.75 C 407.21756 300.7708 407.43136 300.11316 407.875 284.59375 C 408.27136 270.72841 407.12634 261.4352 405.3125 259.125 C 402.95878 256.12473 400.0165 252.85519 396.46875 249.65625 C 400.01641 246.45736 402.95883 243.18771 405.3125 240.1875 C 407.12634 237.8773 408.27136 228.58409 407.875 214.71875 C 407.43136 199.19934 407.21756 198.5417 400.25 191.5625 C 395.7469 187.05188 394.70312 186.1655 393.03125 185.5625 C 391.75541 184.85538 391.34953 184.48495 388.65625 182.90625 C 388.69115 180.66915 388.65061 177.66662 388.375 162.03125 C 388.06671 144.56133 388.53863 141.43297 387.5 140.125 C 386.46137 138.81703 361.25032 140.42343 345.09375 139.5625 C 341.3281 136.12305 338.7954 130.76305 336.0625 128.0625 C 328.42105 120.54654 327.18364 120.2019 308.46875 120.1875 C 296.6147 120.1785 292.55214 120.8526 289.875 121.875 C 285.07322 124.08495 283.50483 125.61397 279.8125 128.96875 C 276.12017 125.61397 274.55178 124.08495 269.75 121.875 C 267.07286 120.8526 263.0103 120.1785 251.15625 120.1875 z M 251 137.78125 C 254.31753 137.94522 257.21917 140.43905 260.25 142.8125 C 264.85268 146.41687 269.29672 150.78987 272.34375 154.5625 C 269.19995 157.46626 265.45513 159.94542 262.9375 163.71875 C 259.22194 169.28751 251.83846 171.43974 245.59375 174.8125 C 240.59159 177.48386 233.01661 185.08387 231.0625 189.5 C 229.4161 193.22073 228.3481 193.56715 218.9375 193.59375 C 205.97514 193.63035 206.73827 192.25647 206.25 216.59375 C 206.07877 225.12849 206.06945 230.41427 206.09375 234.15625 C 205.96702 236.0543 203.80452 240.86225 201.3125 240.84375 C 196.13717 240.92804 190.38631 240.7905 184.96875 240.75 C 182.39431 237.21706 178.13652 233.95994 175.59375 231.375 C 171.4794 226.90635 168.22845 225.16981 168.96875 218.9375 C 169.70906 212.7052 176.46416 206.85459 187.59375 198.9375 C 187.72246 189.44053 187.45315 190.68752 187.46875 178.59375 C 187.49092 172.13157 188.01304 164.73192 188.28125 156.25 C 191.24608 156.05741 196.14222 156.10695 208.78125 156.03125 C 219.63075 155.96626 229.3727 155.72671 230.40625 155.4375 C 231.43981 155.14829 232.6859 153.9121 233.15625 153.0625 C 236.09434 147.92238 243.37048 137.91357 251 137.78125 z M 308.625 137.78125 C 316.25452 137.91357 323.53066 147.92238 326.46875 153.0625 C 326.9391 153.9121 328.18519 155.14829 329.21875 155.4375 C 330.2523 155.72671 339.99425 155.96626 350.84375 156.03125 C 363.48278 156.10695 368.37892 156.05741 371.34375 156.25 C 371.61196 164.73192 372.13408 172.13157 372.15625 178.59375 C 372.17185 190.68752 371.90254 189.44053 372.03125 198.9375 C 383.16084 206.85459 389.91594 212.7052 390.65625 218.9375 C 391.39655 225.16981 388.17685 226.90635 384.0625 231.375 C 381.51973 233.95994 377.23069 237.21706 374.65625 240.75 C 369.23869 240.7905 363.48783 240.92804 358.3125 240.84375 C 355.82048 240.86225 353.65798 236.0543 353.53125 234.15625 C 353.55555 230.41427 353.54623 225.12849 353.375 216.59375 C 352.88673 192.25647 353.64986 193.63035 340.6875 193.59375 C 331.2769 193.56715 330.2089 193.22073 328.5625 189.5 C 326.60839 185.08387 319.03341 177.48386 314.03125 174.8125 C 307.78654 171.43974 300.43431 169.28751 296.71875 163.71875 C 294.20112 159.94542 290.42505 157.46626 287.28125 154.5625 C 290.32828 150.78987 294.77232 146.41687 299.375 142.8125 C 302.40583 140.43905 305.30747 137.94522 308.625 137.78125 z M 279.8125 179.21875 C 282.19573 181.21373 283.81082 183.58334 288.4375 186.5 C 293.06418 189.41666 300.79311 191.97122 305.96875 196.875 C 311.14439 201.77878 312.41575 205.2017 315.3125 210.96875 C 323.68425 211.16594 335.06075 210.50792 335.96875 211.71875 C 336.87675 212.92961 336.98263 217.09127 336.78125 249.21875 C 336.78038 249.38683 336.78152 249.48048 336.78125 249.625 C 336.78121 249.64723 336.78138 249.66191 336.78125 249.6875 C 336.78152 249.83202 336.78038 249.92567 336.78125 250.09375 C 336.98263 282.22123 336.87675 286.41414 335.96875 287.625 C 335.06075 288.83583 323.68425 288.17781 315.3125 288.375 C 312.41575 294.14205 311.14439 297.56497 305.96875 302.46875 C 300.79311 307.37253 293.06418 309.89584 288.4375 312.8125 C 283.81082 315.72916 282.19573 318.09877 279.8125 320.09375 C 277.42927 318.09877 275.81418 315.72916 271.1875 312.8125 C 266.56082 309.89584 258.83189 307.37253 253.65625 302.46875 C 248.48061 297.56497 247.20925 294.14205 244.3125 288.375 C 235.94075 288.17781 224.56425 288.83583 223.65625 287.625 C 222.74825 286.41414 222.64237 282.22123 222.84375 250.09375 C 222.84475 249.89981 222.84275 249.81691 222.84375 249.625 C 222.84348 249.48048 222.84462 249.38683 222.84375 249.21875 C 222.64237 217.09127 222.74825 212.92961 223.65625 211.71875 C 224.56425 210.50792 235.94075 211.16594 244.3125 210.96875 C 247.20925 205.2017 248.48061 201.77878 253.65625 196.875 C 258.83189 191.97122 266.56082 189.41666 271.1875 186.5 C 275.81418 183.58334 277.42927 181.21373 279.8125 179.21875 z M 193.25 258.46875 C 196.01664 258.43928 198.72483 258.4266 201.3125 258.46875 C 203.80452 258.45025 205.96702 263.28945 206.09375 265.1875 C 206.06945 268.92948 206.07877 274.18401 206.25 282.71875 C 206.73827 307.05603 205.97514 305.68215 218.9375 305.71875 C 228.3481 305.74535 229.4161 306.09177 231.0625 309.8125 C 233.01661 314.22863 240.59159 321.82864 245.59375 324.5 C 251.83846 327.87276 259.22194 330.05624 262.9375 335.625 C 265.45513 339.39833 269.19995 341.84624 272.34375 344.75 C 269.29672 348.52263 264.85268 352.92688 260.25 356.53125 C 257.21917 358.9047 254.31753 361.36728 251 361.53125 C 243.37048 361.39893 236.09434 351.39012 233.15625 346.25 C 232.6859 345.4004 231.43981 344.16421 230.40625 343.875 C 229.3727 343.58579 219.63075 343.34624 208.78125 343.28125 C 196.14222 343.20555 191.24608 343.28634 188.28125 343.09375 C 188.01304 334.61183 187.49092 327.18093 187.46875 320.71875 C 187.45315 308.62498 187.72246 309.87197 187.59375 300.375 C 176.46416 292.45791 169.70906 286.6073 168.96875 280.375 C 168.22845 274.14269 171.4794 272.40615 175.59375 267.9375 C 178.13652 265.35256 182.39431 262.12669 184.96875 258.59375 C 187.67753 258.5735 190.48336 258.49822 193.25 258.46875 z M 358.3125 258.46875 C 363.48783 258.38446 369.23869 258.55325 374.65625 258.59375 C 377.23069 262.12669 381.51973 265.35256 384.0625 267.9375 C 388.17685 272.40615 391.39655 274.14269 390.65625 280.375 C 389.91594 286.6073 383.16084 292.45791 372.03125 300.375 C 371.90254 309.87197 372.17185 308.62498 372.15625 320.71875 C 372.13408 327.18093 371.61196 334.61183 371.34375 343.09375 C 368.37892 343.28634 363.48278 343.20555 350.84375 343.28125 C 339.99425 343.34624 330.2523 343.58579 329.21875 343.875 C 328.18519 344.16421 326.9391 345.4004 326.46875 346.25 C 323.53066 351.39012 316.25452 361.39893 308.625 361.53125 C 305.30747 361.36728 302.40583 358.9047 299.375 356.53125 C 294.77232 352.92688 290.32828 348.52263 287.28125 344.75 C 290.42505 341.84624 294.20112 339.39833 296.71875 335.625 C 300.43431 330.05624 307.78654 327.87276 314.03125 324.5 C 319.03341 321.82864 326.60839 314.22863 328.5625 309.8125 C 330.2089 306.09177 331.2769 305.74535 340.6875 305.71875 C 353.64986 305.68215 352.88673 307.05603 353.375 282.71875 C 353.54623 274.18401 353.55555 268.92948 353.53125 265.1875 C 353.65798 263.28945 355.82048 258.45025 358.3125 258.46875 z "
       id="rect3013" />
  </g>
</svg>
