<?xml version="1.0" encoding="UTF-8" standalone="no"?>
<!-- Created with Inkscape (http://www.inkscape.org/) -->

<svg
   xmlns:dc="http://purl.org/dc/elements/1.1/"
   xmlns:cc="http://creativecommons.org/ns#"
   xmlns:rdf="http://www.w3.org/1999/02/22-rdf-syntax-ns#"
   xmlns:svg="http://www.w3.org/2000/svg"
   xmlns="http://www.w3.org/2000/svg"
   xmlns:sodipodi="http://sodipodi.sourceforge.net/DTD/sodipodi-0.dtd"
   xmlns:inkscape="http://www.inkscape.org/namespaces/inkscape"
   width="256"
   height="256"
   id="svg2"
   version="1.1"
   inkscape:version="0.48.0 r9654"
   sodipodi:docname="tile_02.svg"
   inkscape:export-filename="d:\home\00_shapeways\projects\abfab3d\code\trunk\apps\ringpopper\images\tile_02.png"
   inkscape:export-xdpi="299.95633"
   inkscape:export-ydpi="299.95633">
  <defs
     id="defs4" />
  <sodipodi:namedview
     id="base"
     pagecolor="#ffffff"
     bordercolor="#666666"
     borderopacity="1.0"
     inkscape:pageopacity="1"
     inkscape:pageshadow="2"
     inkscape:zoom="1.4142136"
     inkscape:cx="211.52671"
     inkscape:cy="92.017588"
     inkscape:document-units="px"
     inkscape:current-layer="layer1"
     showgrid="false"
     inkscape:window-width="1431"
     inkscape:window-height="976"
     inkscape:window-x="227"
     inkscape:window-y="-2"
     inkscape:window-maximized="0"
     fit-margin-top="0"
     fit-margin-left="0"
     fit-margin-right="0"
     fit-margin-bottom="0" />
  <metadata
     id="metadata7">
    <rdf:RDF>
      <cc:Work
         rdf:about="">
        <dc:format>image/svg+xml</dc:format>
        <dc:type
           rdf:resource="http://purl.org/dc/dcmitype/StillImage" />
        <dc:title></dc:title>
      </cc:Work>
    </rdf:RDF>
  </metadata>
  <g
     inkscape:label="Layer 1"
     inkscape:groupmode="layer"
     id="layer1"
     transform="translate(-153,-121.375)">
    <path
       style="fill:#000000;stroke:none"
       d="m 233.98024,121.375 c -3.53333,1.04227 -5.78403,2.99663 -9.58103,6.6875 -2.76531,2.70055 -5.32804,8.06055 -9.13834,11.5 -16.34815,0.86093 -41.85815,-0.74547 -42.90909,0.5625 -1.05095,1.30797 -0.57343,4.43633 -0.88538,21.90625 -0.27887,15.63537 -0.28828,18.6379 -0.25296,20.875 -2.72522,1.5787 -3.16753,1.94913 -4.4585,2.65625 -1.69169,0.603 -2.74785,1.48938 -7.30435,6 -3.68727,3.65014 -5.49097,5.59021 -6.45059,8.8125 l 0,36.375 c 0.38334,1.63441 0.82469,2.80389 1.32806,3.4375 2.38158,3.00021 5.35889,6.26986 8.94862,9.46875 -3.58982,3.19894 -6.56699,6.46848 -8.94862,9.46875 -0.50337,0.63361 -0.94472,1.80309 -1.32806,3.4375 l 0,36.375 c 0.95962,3.22229 2.76332,5.16236 6.45059,8.8125 4.5565,4.51062 5.61266,5.397 7.30435,6 1.29097,0.70712 1.73328,1.07755 4.4585,2.65625 -0.0353,2.2371 -0.0259,5.23963 0.25296,20.875 0.31195,17.46992 -0.16557,20.62953 0.88538,21.9375 1.05094,1.30797 26.56094,-0.29843 42.90909,0.5625 3.8103,3.43945 6.37303,8.7682 9.13834,11.46875 3.21658,3.12668 5.31818,4.98795 8.03162,6.125 l 38.89328,0 c 4.69916,-2.16085 6.30904,-3.72412 9.9921,-7.03125 3.68305,3.30713 5.29293,4.8704 9.99209,7.03125 l 38.89328,0 c 2.71344,-1.13705 4.81504,-2.99832 8.03162,-6.125 2.76531,-2.70055 5.32804,-8.0293 9.13834,-11.46875 16.34815,-0.86093 41.85815,0.74547 42.90909,-0.5625 1.05095,-1.30797 0.57343,-4.46758 0.88538,-21.9375 0.27888,-15.63537 0.3199,-18.6379 0.28458,-20.875 2.72522,-1.5787 3.13591,-1.94913 4.42688,-2.65625 1.69169,-0.603 2.74785,-1.48938 7.30435,-6 3.00184,-2.97161 4.74871,-4.81032 5.81818,-7.125 l 0,-40.21875 c -0.21657,-0.54242 -0.45348,-0.97643 -0.69565,-1.28125 -2.38163,-3.00027 -5.3588,-6.26981 -8.94862,-9.46875 3.58973,-3.19889 6.56704,-6.46854 8.94862,-9.46875 0.24217,-0.30482 0.47908,-0.73883 0.69565,-1.28125 l 0,-40.21875 c -1.06947,-2.31468 -2.81634,-4.15339 -5.81818,-7.125 -4.5565,-4.51062 -5.61266,-5.397 -7.30435,-6 -1.29097,-0.70712 -1.70166,-1.07755 -4.42688,-2.65625 0.0353,-2.2371 -0.006,-5.23963 -0.28458,-20.875 -0.31195,-17.46992 0.16557,-20.59828 -0.88538,-21.90625 -1.05094,-1.30797 -26.56094,0.29843 -42.90909,-0.5625 -3.8103,-3.43945 -6.37303,-8.79945 -9.13834,-11.5 -3.79699,-3.69087 -6.0477,-5.64523 -9.58103,-6.6875 l -35.5415,0 c -0.58973,0.15493 -1.14171,0.32226 -1.61265,0.5 -4.85871,2.20995 -6.4457,3.73897 -10.18181,7.09375 -3.73612,-3.35478 -5.3231,-4.8838 -10.18182,-7.09375 -0.47094,-0.17774 -1.02292,-0.34507 -1.61265,-0.5 l -35.5415,0 z m 18.18182,16.40625 c 3.35686,0.16397 6.29291,2.6578 9.35968,5.03125 4.65726,3.60437 9.15399,7.97737 12.23715,11.75 -3.18107,2.90376 -6.9703,5.38292 -9.51778,9.15625 -3.75962,5.56876 -11.23065,7.72099 -17.54941,11.09375 -5.06147,2.67136 -12.72628,10.27137 -14.70356,14.6875 -1.66592,3.72073 -2.74658,4.06715 -12.26877,4.09375 -13.11607,0.0366 -12.34389,-1.33728 -12.83795,23 -0.17326,8.53474 -0.18269,13.82052 -0.1581,17.5625 -0.12823,1.89805 -2.31637,6.706 -4.83794,6.6875 -5.2367,0.0843 -11.05575,-0.0532 -16.53755,-0.0937 -2.60497,-3.53294 -6.91325,-6.79006 -9.48617,-9.375 -4.16314,-4.46865 -7.45264,-6.20519 -6.70356,-12.4375 0.74909,-6.2323 7.58429,-12.08291 18.84585,-20 0.13024,-9.49697 -0.14226,-8.24998 -0.12648,-20.34375 0.0225,-6.46218 0.55074,-13.86183 0.82213,-22.34375 2.99999,-0.19259 7.95419,-0.14305 20.74309,-0.21875 10.97815,-0.065 20.83562,-0.30454 21.88142,-0.59375 1.04582,-0.28921 2.30668,-1.5254 2.78261,-2.375 2.97293,-5.14012 10.33535,-15.14893 18.05534,-15.28125 z m 58.3083,0 c 7.71998,0.13232 15.0824,10.14113 18.05533,15.28125 0.47593,0.8496 1.73679,2.08579 2.78261,2.375 1.04581,0.28921 10.90327,0.52876 21.88142,0.59375 12.7889,0.0757 17.7431,0.0262 20.74309,0.21875 0.27139,8.48192 0.7997,15.88157 0.82213,22.34375 0.0158,12.09377 -0.25672,10.84678 -0.12648,20.34375 11.26156,7.91709 18.09676,13.7677 18.84585,20 0.74908,6.23231 -2.5088,7.96885 -6.67194,12.4375 -2.57292,2.58494 -6.91282,5.84206 -9.51779,9.375 -5.48179,0.0405 -11.30085,0.17804 -16.53754,0.0937 -2.52157,0.0185 -4.70972,-4.78945 -4.83795,-6.6875 0.0246,-3.74198 0.0152,-9.02776 -0.1581,-17.5625 -0.49406,-24.33728 0.27812,-22.9634 -12.83795,-23 -9.52218,-0.0266 -10.60285,-0.37302 -12.26877,-4.09375 -1.97728,-4.41613 -9.64208,-12.01614 -14.70356,-14.6875 -6.31876,-3.37276 -13.75817,-5.52499 -17.51779,-11.09375 -2.54748,-3.77333 -6.36832,-6.25249 -9.5494,-9.15625 3.08316,-3.77263 7.57989,-8.14563 12.23715,-11.75 3.06677,-2.37345 6.00282,-4.86728 9.35969,-5.03125 z m -29.15415,41.4375 c 2.41149,1.99498 4.04573,4.36459 8.72727,7.28125 4.68154,2.91666 12.50212,5.47122 17.73913,10.375 5.23701,4.90378 6.52345,8.3267 9.45454,14.09375 8.47102,0.19719 19.98242,-0.46083 20.90119,0.75 0.91877,1.21086 1.0259,5.37252 0.82213,37.5 -8.8e-4,0.16808 2.8e-4,0.26173 0,0.40625 -4e-5,0.0222 1.4e-4,0.0369 0,0.0625 2.8e-4,0.14452 -8.8e-4,0.23817 0,0.40625 0.20377,32.12748 0.0966,36.32039 -0.82213,37.53125 -0.91877,1.21083 -12.43017,0.55281 -20.90119,0.75 -2.93109,5.76705 -4.21753,9.18997 -9.45454,14.09375 -5.23701,4.90378 -13.05759,7.42709 -17.73913,10.34375 -4.68154,2.91666 -6.31578,5.28627 -8.72727,7.28125 -2.41149,-1.99498 -4.04574,-4.36459 -8.72728,-7.28125 -4.68154,-2.91666 -12.50212,-5.43997 -17.73913,-10.34375 -5.23701,-4.90378 -6.52344,-8.3267 -9.45454,-14.09375 -8.47102,-0.19719 -19.98242,0.46083 -20.90119,-0.75 -0.91877,-1.21086 -1.0259,-5.40377 -0.82213,-37.53125 0.001,-0.19394 -0.001,-0.27684 0,-0.46875 -2.8e-4,-0.14452 8.8e-4,-0.23817 0,-0.40625 -0.20377,-32.12748 -0.0966,-36.28914 0.82213,-37.5 0.91877,-1.21083 12.43017,-0.55281 20.90119,-0.75 2.9311,-5.76705 4.21753,-9.18997 9.45454,-14.09375 5.23701,-4.90378 13.05759,-7.45834 17.73913,-10.375 4.68154,-2.91666 6.31579,-5.28627 8.72728,-7.28125 z m -83.44664,79.21875 c 1.3623,-0.002 2.70662,0.0102 4.01581,0.0312 2.52157,-0.0185 4.70971,4.8207 4.83794,6.71875 -0.0246,3.74198 -0.0152,8.99651 0.1581,17.53125 0.49406,24.33728 -0.27812,22.9634 12.83795,23 9.52219,0.0266 10.60285,0.37302 12.26877,4.09375 1.97728,4.41613 9.64209,12.01614 14.70356,14.6875 6.31876,3.37276 13.78979,5.55624 17.54941,11.125 2.54748,3.77333 6.33671,6.22124 9.51778,9.125 -3.08316,3.77263 -7.57989,8.17688 -12.23715,11.78125 -3.06677,2.37345 -6.00282,4.83603 -9.35968,5 -7.71999,-0.13232 -15.08241,-10.14113 -18.05534,-15.28125 -0.47593,-0.8496 -1.73679,-2.08579 -2.78261,-2.375 -1.0458,-0.28921 -10.90327,-0.52876 -21.88142,-0.59375 -12.7889,-0.0757 -17.7431,0.005 -20.74309,-0.1875 -0.27139,-8.48192 -0.7997,-15.91282 -0.82213,-22.375 -0.0158,-12.09377 0.25672,-10.84678 0.12648,-20.34375 -11.26156,-7.91709 -18.09676,-13.7677 -18.84585,-20 -0.74908,-6.23231 2.54042,-7.96885 6.70356,-12.4375 2.57292,-2.58494 6.8812,-5.81081 9.48617,-9.34375 2.7409,-0.0202 5.58,-0.0955 8.37944,-0.125 1.39973,-0.0147 2.77999,-0.0297 4.1423,-0.0312 z m 166.89328,0 c 4.1028,0.0138 8.41039,0.12588 12.52173,0.15625 2.60497,3.53294 6.94487,6.75881 9.51779,9.34375 4.16314,4.46865 7.42102,6.20519 6.67194,12.4375 -0.74909,6.2323 -7.58429,12.08291 -18.84585,20 -0.13024,9.49697 0.14227,8.24998 0.12648,20.34375 -0.0225,6.46218 -0.55074,13.89308 -0.82213,22.375 -2.99999,0.19259 -7.95419,0.1118 -20.74309,0.1875 -10.97815,0.065 -20.83561,0.30454 -21.88142,0.59375 -1.04582,0.28921 -2.30668,1.5254 -2.78261,2.375 -2.97293,5.14012 -10.33535,15.14893 -18.05533,15.28125 -3.35687,-0.16397 -6.29292,-2.62655 -9.35969,-5 -4.65726,-3.60437 -9.15399,-8.00862 -12.23715,-11.78125 3.18108,-2.90376 7.00192,-5.35167 9.5494,-9.125 3.75962,-5.56876 11.19903,-7.75224 17.51779,-11.125 5.06148,-2.67136 12.72628,-10.27137 14.70356,-14.6875 1.66592,-3.72073 2.74659,-4.06715 12.26877,-4.09375 13.11607,-0.0366 12.34389,1.33728 12.83795,-23 0.17326,-8.53474 0.18269,-13.78927 0.1581,-17.53125 0.12823,-1.89805 2.31638,-6.73725 4.83795,-6.71875 1.30917,-0.0211 2.64821,-0.0358 4.01581,-0.0312 z"
       id="rect3034"
       inkscape:connector-curvature="0"
       inkscape:export-xdpi="720"
       inkscape:export-ydpi="720" />
    <path
       style="fill:none;stroke:#000000;stroke-width:3;stroke-linecap:butt;stroke-linejoin:miter;stroke-miterlimit:4;stroke-opacity:1;stroke-dasharray:none"
       d="m 280,193.86219 0,106"
       id="path3037"
       inkscape:connector-curvature="0" />
    <path
       style="fill:none;stroke:#000000;stroke-width:3;stroke-linecap:butt;stroke-linejoin:miter;stroke-miterlimit:4;stroke-opacity:1;stroke-dasharray:none"
       d="m 233.69879,249.08888 93.3381,0"
       id="path3807"
       inkscape:connector-curvature="0" />
  </g>
</svg>
