<?xml version="1.0" encoding="UTF-8" standalone="no"?>
<!-- Created with Inkscape (http://www.inkscape.org/) -->

<svg
   xmlns:dc="http://purl.org/dc/elements/1.1/"
   xmlns:cc="http://creativecommons.org/ns#"
   xmlns:rdf="http://www.w3.org/1999/02/22-rdf-syntax-ns#"
   xmlns:svg="http://www.w3.org/2000/svg"
   xmlns="http://www.w3.org/2000/svg"
   xmlns:sodipodi="http://sodipodi.sourceforge.net/DTD/sodipodi-0.dtd"
   xmlns:inkscape="http://www.inkscape.org/namespaces/inkscape"
   width="1000"
   height="1000"
   id="svg2"
   version="1.1"
   inkscape:version="0.48.0 r9654"
   inkscape:export-filename="D:\home\00_shapeways\projects\abfab3d\code\trunk\apps\imagepopper\images\circular_sign_1.png"
   inkscape:export-xdpi="92.160004"
   inkscape:export-ydpi="92.160004"
   sodipodi:docname="New document 1">
  <defs
     id="defs4" />
  <sodipodi:namedview
     id="base"
     pagecolor="#ffffff"
     bordercolor="#666666"
     borderopacity="1.0"
     inkscape:pageopacity="0.0"
     inkscape:pageshadow="2"
     inkscape:zoom="0.45254834"
     inkscape:cx="929.03345"
     inkscape:cy="227.72535"
     inkscape:document-units="px"
     inkscape:current-layer="g2998"
     showgrid="false"
     inkscape:window-width="1621"
     inkscape:window-height="1143"
     inkscape:window-x="54"
     inkscape:window-y="22"
     inkscape:window-maximized="0" />
  <metadata
     id="metadata7">
    <rdf:RDF>
      <cc:Work
         rdf:about="">
        <dc:format>image/svg+xml</dc:format>
        <dc:type
           rdf:resource="http://purl.org/dc/dcmitype/StillImage" />
        <dc:title></dc:title>
      </cc:Work>
    </rdf:RDF>
  </metadata>
  <g
     inkscape:label="Layer 1"
     inkscape:groupmode="layer"
     id="layer1"
     transform="translate(0,-52.362183)">
    <g
       id="g2998">
      <path
         style="fill:#d0d0d0"
         d="m 354.42751,1010.1855 c -13.9861,-8.5284 -12.6506,-16.30731 12.91988,-75.25532 0.87328,-2.01315 -2.43958,-4.57499 -9.29416,-7.18724 -22.54685,-8.5925 -67.64885,-33.0696 -88.38438,-47.9667 C 194.81777,826.00067 142.71154,753.54785 118.00338,668.88798 106.9705,631.085 99.754115,519.75239 107.924,513.38576 c 3.24558,-2.52923 105.1947,4.39665 108.14483,7.3468 0.87434,0.87433 1.90935,17.80267 2.30002,37.61849 0.55496,28.149 2.06175,41.79284 6.88951,62.38384 17.63677,75.22292 66.44466,141.01544 132.56438,178.69538 10.29081,5.86447 19.36765,10.66269 20.17074,10.66269 0.80311,0 -0.7578,-12.96097 -3.46867,-28.80214 -4.25849,-24.88488 -4.48525,-29.87312 -1.66718,-36.67649 6.05208,-14.61107 25.40472,-19.42571 38.19848,-9.5032 23.3104,18.0789 184.35169,156.59746 185.48088,159.5401 0.75293,1.96209 -0.15209,4.98217 -2.01115,6.71131 -5.33233,4.95965 -195.46804,105.60056 -207.27308,109.71196 -14.19787,4.9447 -23.67947,4.6879 -32.82525,-0.889 z m 298.43761,-96.12774 c -5.95941,-6.07322 -48.94669,-96.09342 -47.22089,-98.88584 0.93917,-1.5196 9.02968,-6.47422 17.9789,-11.01029 91.18495,-46.21857 151.54906,-144.25039 151.54906,-246.11685 0,-14.20077 -0.8599,-25.81956 -1.91087,-25.81956 -1.051,0 -10.5582,7.18939 -21.12714,15.97642 -22.78299,18.94183 -25.58604,20.58512 -35.1132,20.58512 -8.80428,0 -21.1351,-9.71447 -23.30503,-18.36021 -1.38902,-5.53429 37.10594,-231.40407 42.15078,-247.32035 1.06231,-3.35147 3.64757,-6.09359 5.74504,-6.09359 2.09748,0 50.32172,28.96299 107.16493,64.36221 72.1636,44.93998 104.23429,66.23314 106.27727,70.56222 6.41375,13.59061 1.69441,34.03035 -8.79809,38.1053 -2.26563,0.87987 -16.52638,3.05043 -31.69063,4.82344 -15.16421,1.77302 -28.1919,3.84428 -28.9504,4.60276 -0.75848,0.75851 -0.14259,9.69332 1.36889,19.85514 4.5308,30.46298 3.47037,91.56488 -2.16079,124.50359 -20.56918,120.31688 -95.48109,222.84471 -207.14821,283.51252 -20.69301,11.24234 -20.43783,11.17324 -24.80962,6.71797 z M 148.70174,467.02379 c -0.0271,-2.34603 2.30043,-58.5594 5.17234,-124.91861 5.56291,-128.53802 6.16169,-133.08161 18.26477,-138.59614 9.47692,-4.31797 21.38266,-3.35429 27.36017,2.2146 2.94573,2.74437 12.5635,14.80968 21.37281,26.8118 8.80932,12.00212 16.5268,21.82203 17.14996,21.82203 0.62317,0 11.77809,-7.6736 24.78872,-17.05244 48.14314,-34.70447 115.99751,-63.29688 163.80829,-69.02538 30.37031,-3.63886 109.53756,-3.64858 139.35798,-0.0171 41.73949,5.08294 104.41305,29.63512 148.86886,58.31892 9.04899,5.83859 16.4527,12.30263 16.4527,14.36453 0,6.2468 -59.29893,91.23897 -63.71973,91.32844 -2.20139,0.0446 -13.39998,-5.81889 -24.88574,-13.02988 -68.48262,-42.9947 -149.71772,-53.7799 -229.47997,-30.46696 -17.74749,5.18724 -61.58695,25.66144 -71.53361,33.40811 l -5.72283,4.45706 22.78488,8.0719 c 30.72691,10.88547 35.45799,13.52785 40.02139,22.3525 4.89534,9.46656 2.9882,21.36102 -4.56237,28.45442 -6.05896,5.69208 -229.8057,85.76773 -239.65152,85.76773 -3.87795,0 -5.81412,-1.41245 -5.8471,-4.26552 z"
         id="path3012"
         inkscape:connector-curvature="0" />
      <path
         style="fill:#b0b0b0"
         d="m 353.30822,1007.7128 c -3.91867,-3.9187 -7.12482,-9.51771 -7.12482,-12.44237 0,-2.92465 5.48423,-18.35589 12.18718,-34.29163 6.70295,-15.93574 12.18718,-29.38247 12.18718,-29.88163 0,-0.49914 -5.21002,-2.86484 -11.57782,-5.25711 -20.85996,-7.8367 -59.70102,-28.2719 -80.93426,-42.58143 -79.64897,-53.67715 -137.9817,-135.109 -161.25802,-225.11443 -6.98791,-27.02103 -11.79607,-71.7933 -11.8586,-110.42423 -0.0429,-26.49117 0.59132,-32.28206 3.66463,-33.46141 3.7498,-1.43892 92.74615,4.63315 102.92135,7.02215 5.35476,1.25723 5.48423,2.06873 5.48423,34.37307 0,34.72755 4.82986,66.31811 14.38578,94.09289 18.68066,54.29629 60.00318,108.00468 107.97931,140.34469 21.11436,14.23287 38.40892,23.34832 40.44164,21.3156 0.80494,-0.80494 -0.42143,-12.67255 -2.72524,-26.37248 -2.30385,-13.69993 -4.16556,-28.52356 -4.13716,-32.94142 0.11553,-17.98789 22.23266,-26.41089 38.11041,-14.51383 4.02557,3.01632 47.07504,39.3217 95.66545,80.67858 55.82556,47.51497 88.07338,76.5696 87.60498,78.93033 -0.7239,3.64848 -194.45041,108.45046 -211.84315,114.60266 -13.72211,4.8539 -21.30059,3.7945 -29.17307,-4.078 z m 300.56142,-95.85688 c -3.64219,-4.5017 -46.88055,-91.55288 -46.88055,-94.38394 0,-1.33211 5.75844,-5.30462 12.79654,-8.82779 74.31456,-37.20071 129.51286,-106.28058 149.5276,-187.13163 6.48112,-26.18092 11.13441,-89.68309 6.76947,-92.38079 -1.22208,-0.75527 -8.78218,4.12743 -16.8002,10.85049 -26.3814,22.12054 -33.13656,26.36706 -41.94326,26.36706 -10.08882,0 -22.60245,-11.1471 -22.60245,-20.13419 0,-5.8995 40.44953,-235.70161 42.89903,-243.71829 0.71683,-2.34603 2.46988,-4.26551 3.89566,-4.26551 1.42578,0 49.52941,29.26916 106.89696,65.04257 69.00704,43.03159 105.19244,66.99106 106.92807,70.80034 3.72947,8.18532 3.24576,20.61725 -1.0403,26.73646 -4.82342,6.88636 -14.05784,9.52535 -45.95082,13.13168 l -26.45888,2.99186 1.48018,8.75534 c 16.94262,100.21705 -4.48586,204.33341 -58.99069,286.62311 -36.3343,54.85644 -93.97653,106.41204 -150.91726,134.98143 -17.48302,8.77189 -16.40563,8.52125 -19.6091,4.5618 z M 151.99112,467.42775 c -1.57899,-4.11476 -0.24045,-44.7623 5.4112,-164.32155 1.9328,-40.88799 3.51908,-76.79241 3.52505,-79.78758 0.006,-2.99518 3.16243,-8.97299 7.01434,-13.28403 5.4145,-6.05988 8.9816,-7.83825 15.7221,-7.83825 10.94575,0 15.12702,3.70716 36.15143,32.05228 9.19779,12.40046 17.31607,22.54629 18.04064,22.54629 0.72456,0 11.36768,-7.21662 23.65137,-16.03694 58.7147,-42.16015 115.86985,-65.53285 178.51745,-73.00192 73.32615,-8.7422 139.84993,-1.30694 199.74625,22.32533 39.89837,15.74201 89.2149,44.47608 88.94707,51.82465 -0.22254,6.10305 -56.6693,86.63644 -61.35739,87.53929 -2.2938,0.44174 -9.24907,-2.69096 -15.45617,-6.96155 -17.18766,-11.82541 -51.07424,-27.87191 -74.16461,-35.11957 -67.88092,-21.3066 -142.39089,-15.43901 -206.29352,16.24543 -23.42731,11.61581 -38.38622,21.50986 -35.90213,23.74621 1.15949,1.04385 11.75337,5.33446 23.54196,9.53468 35.90622,12.79323 40.72084,16.54485 40.72084,31.7303 0,15.84348 -2.78092,17.17773 -127.90897,61.36888 -64.31729,22.71479 -117.27455,41.29961 -117.68281,41.29961 -0.40826,0 -1.40911,-1.7377 -2.2241,-3.86156 z"
         id="path3010"
         inkscape:connector-curvature="0" />
      <path
         style="fill:#8f8f8f"
         d="m 355.07034,1008.8604 c -9.25096,-8.5735 -8.33201,-18.26258 4.51896,-47.64639 6.03265,-13.7937 10.96846,-26.65432 10.96846,-28.57914 0,-1.92484 -4.6616,-5.27305 -10.3591,-7.44049 -26.49454,-10.07904 -73.34205,-36.1024 -96.8881,-53.82042 -27.49983,-20.6932 -62.24302,-55.19394 -81.34815,-80.78049 -51.07242,-68.39871 -77.08521,-150.44686 -77.08521,-243.13801 0,-25.28962 0.61471,-30.24375 3.90957,-31.5081 3.78571,-1.45271 85.8906,3.18405 98.71207,5.57463 l 6.3429,1.18265 1.45316,38.27504 c 3.08444,81.24155 29.06641,142.6505 83.26065,196.78839 26.1388,26.11165 79.0222,61.15111 82.87756,54.91301 0.85069,-1.37647 -0.73722,-15.06987 -3.52872,-30.42976 -2.79147,-15.35992 -4.36633,-30.75236 -3.49967,-34.2054 3.47144,-13.83138 20.80376,-20.0632 32.78159,-11.78661 8.41915,5.81757 183.56692,154.64536 185.69938,157.79377 0.95696,1.41286 0.40854,3.85447 -1.21872,5.42574 -2.63089,2.54037 -158.19303,86.09951 -199.45639,107.13658 -19.29855,9.8389 -28.35555,10.3864 -37.14024,2.245 z M 631.94222,867.35572 c -12.38364,-24.81027 -22.5157,-46.7249 -22.5157,-48.69919 0,-1.9743 4.6616,-5.94313 10.35911,-8.81962 48.97153,-24.72429 97.08299,-70.33418 123.14377,-116.7409 10.21861,-18.19641 21.77174,-47.58607 27.48029,-69.9063 8.8455,-34.58559 11.47567,-95.83937 4.11524,-95.83937 -1.32742,0 -11.32225,7.49661 -22.2107,16.65915 -29.87124,25.13638 -34.83357,26.80605 -47.64067,16.02958 -6.08727,-5.1221 -7.49933,-8.15788 -7.49933,-16.12276 0,-7.56966 33.37409,-202.87632 40.42084,-236.5446 0.77159,-3.68662 2.94925,-6.70295 4.83921,-6.70295 4.86732,0 203.31739,124.01379 210.01549,131.24113 3.67139,3.96152 5.50409,8.91973 5.45264,14.75161 -0.14844,16.80566 -7.60626,21.23 -41.78836,24.79031 -37.73505,3.93037 -36.04547,2.44594 -32.16446,28.25922 4.21604,28.04154 4.15517,83.96401 -0.12163,111.73087 -15.35255,99.67674 -61.83239,182.80424 -137.4007,245.73616 -28.66361,23.8706 -79.12993,55.28722 -88.81091,55.28722 -1.73714,0 -13.29049,-20.29931 -25.67413,-45.10956 z M 152.5512,466.64741 c -0.74934,-1.21243 0.22356,-36.03731 2.162,-77.3886 1.93844,-41.35128 4.23191,-94.37896 5.09661,-117.83928 1.76433,-47.86842 3.76344,-59.09062 11.49044,-64.50282 6.08154,-4.25968 17.07154,-4.88864 23.67442,-1.35489 2.45669,1.31479 12.88579,13.94309 23.17578,28.0629 11.92115,16.35808 19.74903,25.03964 21.57548,23.92841 1.57653,-0.95918 11.41488,-8.06834 21.863,-15.79814 52.60768,-38.92055 117.93297,-65.51906 181.33393,-73.83376 91.32306,-11.97652 178.41597,6.15932 258.19558,53.76552 12.35573,7.37292 23.74726,14.95039 25.31451,16.83882 2.28697,2.75563 -3.04726,12.11651 -27.01793,47.41297 -16.42713,24.1887 -30.85758,43.97946 -32.06767,43.97946 -1.21009,0 -6.78519,-3.10122 -12.38908,-6.89159 -30.57003,-20.67701 -68.92984,-36.66982 -106.46766,-44.38804 -21.78397,-4.47904 -31.03468,-5.08337 -62.15462,-4.06047 -40.41784,1.32851 -67.18143,6.96424 -101.15361,21.30037 -22.0442,9.30257 -51.18616,26.76553 -51.18616,30.67268 0,1.55306 10.42952,6.41877 23.1767,10.81268 28.09333,9.68368 37.11277,14.91112 40.33055,23.37454 3.14825,8.28052 -1.08273,21.83524 -7.96546,25.51876 -5.9952,3.20853 -230.40854,82.59494 -233.48338,82.59494 -1.17755,0 -2.7541,-0.99201 -3.50343,-2.20446 z"
         id="path3008"
         inkscape:connector-curvature="0" />
      <path
         style="fill:#6f6f6f"
         d="m 355.74566,1007.7128 c -3.91867,-3.9187 -7.12483,-9.51771 -7.12483,-12.44237 0,-2.92465 5.55185,-18.51664 12.33743,-34.64884 6.7856,-16.13219 11.4472,-30.16415 10.3591,-31.1821 -1.08807,-1.01792 -10.20466,-5.26427 -20.25909,-9.43631 -83.18832,-34.51863 -152.9413,-96.13322 -196.17184,-173.28357 -24.41752,-43.57612 -39.08676,-89.40679 -46.26455,-144.54294 -4.01226,-30.8201 -4.96104,-78.88461 -1.6599,-84.08893 1.64401,-2.59179 11.27127,-2.45184 52.85782,0.76853 27.96623,2.16561 51.72392,4.47903 52.79486,5.14092 1.07095,0.66188 1.94718,14.70559 1.94718,31.20825 0,61.29597 15.72731,113.63877 48.76063,162.28249 14.18166,20.88339 43.40513,51.06287 65.72429,67.87434 20.90989,15.74995 50.03689,31.64192 52.84569,28.83309 1.03823,-1.03823 0.002,-13.08024 -2.30301,-26.76005 -5.64103,-33.48041 -5.42613,-41.14159 1.32743,-47.32298 7.48629,-6.85204 14.00884,-8.30008 21.80123,-4.83989 8.46132,3.75721 189.64698,157.76206 189.64449,161.19473 -0.002,3.85992 -215.98289,118.37043 -223.26037,118.37043 -3.63782,0 -9.19742,-2.9657 -13.35656,-7.1248 z M 632.59253,866.17469 c -12.81953,-25.61207 -22.72256,-47.515 -22.00676,-48.67319 0.7158,-1.1582 9.24836,-6.47149 18.96123,-11.80733 90.76082,-49.86001 145.59607,-138.50511 149.56487,-241.78228 0.75078,-19.53749 0.30261,-34.2951 -1.10323,-36.32621 -2.68974,-3.88601 -2.15484,-4.22588 -33.19652,21.09223 -14.96035,12.20191 -20.36909,15.23398 -27.17507,15.23398 -10.15897,0 -20.46282,-8.99602 -20.46282,-17.86553 0,-9.95283 41.62023,-241.5824 43.80926,-243.81227 2.55105,-2.59863 201.07076,120.36523 210.29348,130.25657 9.97138,10.69428 8.3381,25.39333 -3.52719,31.74344 -2.88395,1.54343 -19.0373,4.62596 -35.89632,6.85005 l -30.65278,4.0438 0.23301,7.22105 c 0.12821,3.97161 1.62697,19.83481 3.33061,35.2516 5.70197,51.5986 -1.95375,116.9567 -19.58633,167.21191 -31.55271,89.92929 -93.77222,164.13898 -178.49234,212.88915 -32.69383,18.81286 -27.33278,21.93741 -54.09315,-31.52697 z M 154.37397,464.84809 c -1.39241,-3.62856 0.82876,-68.04405 6.71181,-194.64728 2.58521,-55.63371 3.94449,-60.67496 17.58589,-65.2221 10.66408,-3.55469 18.74621,2.60657 38.31465,29.20846 10.06155,13.67794 19.39057,24.90667 20.73116,24.95273 1.34059,0.046 10.9457,-6.29079 21.34469,-14.08187 51.11546,-38.29646 109.00807,-63.43376 173.65022,-75.39989 29.93003,-5.54045 96.81665,-5.54045 126.74669,0 31.01711,5.74168 61.7116,15.01563 91.40386,27.61649 27.12794,11.51262 69.96997,36.23011 73.85844,42.61225 1.7787,2.91937 -4.37022,13.60433 -26.30028,45.70193 -15.74194,23.04047 -30.2169,41.89175 -32.16655,41.89175 -1.94964,0 -8.12983,-3.08711 -13.73371,-6.86026 -28.06379,-18.89553 -64.26048,-34.2756 -99.6833,-42.35571 -43.45272,-9.91175 -103.07216,-6.33561 -147.75769,8.86291 -30.50517,10.37548 -73.52107,33.89559 -73.52107,40.19963 0,1.11976 12.1756,6.27396 27.05688,11.45378 14.88128,5.17983 29.68871,11.83339 32.90539,14.78571 7.80165,7.16047 7.97654,20.76634 0.36428,28.34246 -3.58869,3.57166 -36.23403,16.27304 -94.45066,36.7481 -48.93153,17.20948 -100.7988,35.52564 -115.2606,40.70261 -22.93999,8.21194 -26.48628,8.91207 -27.8001,5.4883 z"
         id="path3006"
         inkscape:connector-curvature="0" />
      <path
         style="fill:#4e4e4e"
         d="m 357.04108,1008.8548 c -9.68479,-9.68476 -9.06108,-15.58165 5.17241,-48.90265 5.92994,-13.88217 10.78171,-26.80622 10.78171,-28.72014 0,-1.92326 -5.1789,-5.40212 -11.57782,-7.7773 -23.14609,-8.5914 -73.01432,-35.79251 -93.70162,-51.11046 C 186.64818,812.31765 133.89271,730.11702 114.56749,633.71709 106.0409,591.184 102.4042,542.76216 106.28065,523.37991 l 1.40344,-7.01724 50.81251,3.66576 c 27.94688,2.01618 51.46794,4.32757 52.26901,5.13643 0.80107,0.80889 1.88398,16.71316 2.40646,35.34283 1.71383,61.1077 16.41363,107.75814 49.82593,158.12464 13.81944,20.83174 47.22323,54.94081 68.56078,70.00836 23.56331,16.63928 48.65635,29.83193 51.44244,27.04584 1.51269,-1.51269 0.39922,-13.68969 -3.11729,-34.09144 -5.21119,-30.23379 -5.27157,-32.04181 -1.2739,-38.14301 4.61306,-7.04046 13.26384,-10.21571 21.91591,-8.04417 6.0126,1.50907 190.61981,157.40771 190.61981,160.97624 0,3.25237 -216.11293,118.15785 -222.52685,118.31575 -3.07726,0.076 -8.28728,-2.5546 -11.57782,-5.8451 z M 633.81373,866.17964 c -12.07238,-24.11651 -21.94977,-45.30185 -21.94977,-47.07855 0,-1.77672 4.11317,-5.17178 9.14039,-7.5446 18.56061,-8.76056 55.95888,-35.58981 72.90352,-52.30048 39.86283,-39.31239 64.14214,-81.01841 78.17451,-134.28495 4.80194,-18.2281 6.39668,-31.38424 7.34997,-60.63594 0.73496,-22.55128 0.28259,-38.29188 -1.14131,-39.71578 -1.52008,-1.52008 -10.94392,4.64259 -26.50383,17.33205 -26.48211,21.59676 -32.83266,24.48222 -42.25691,19.19996 -13.82448,-7.74864 -13.84985,-7.22995 5.7194,-116.92697 9.89999,-55.49527 19.44102,-109.52557 21.20226,-120.06735 1.76127,-10.54177 4.50828,-19.66802 6.10451,-20.28054 3.57138,-1.37047 202.31141,121.71898 209.93922,130.02566 9.12164,9.93346 7.01004,23.02532 -4.6896,29.07543 -5.18672,2.68215 -53.58755,10.38036 -67.45001,10.72798 -0.46455,0.0122 -0.18378,5.77963 0.6241,12.81772 0.8078,7.0381 2.12291,33.0882 2.92249,57.88912 1.60257,49.70808 -2.1487,81.63961 -14.62333,124.47712 -20.39339,70.03018 -64.4221,136.85378 -121.72174,184.74056 -29.68288,24.80672 -79.0396,56.39777 -88.11386,56.39777 -2.33221,0 -11.72017,-16.06107 -25.63001,-43.84821 z M 154.47285,439.34612 c 0.85418,-15.27571 3.23869,-68.35732 5.29891,-117.95915 2.06023,-49.60183 4.32353,-93.81107 5.02956,-98.24276 1.72986,-10.85816 8.89885,-17.53546 18.82669,-17.53546 10.51262,0 12.23282,1.55774 34.38509,31.1378 12.1062,16.16548 19.78776,24.41597 21.66734,23.27213 1.60155,-0.97464 11.19456,-7.89937 21.31779,-15.38828 69.82464,-51.65447 150.55009,-78.77054 235.0875,-78.96703 53.02589,-0.12324 96.05211,8.5759 148.62632,30.04962 23.57088,9.62743 66.04236,32.3517 76.90543,41.14808 l 5.60739,4.54059 -27.57064,40.60081 c -15.16388,22.33044 -29.00101,41.78788 -30.74919,43.23875 -2.37655,1.97235 -5.85935,0.79348 -13.80359,-4.6723 -14.07023,-9.68056 -47.32198,-26.34537 -64.66902,-32.41021 -61.07026,-21.35128 -125.31359,-22.1316 -184.16966,-2.23699 -23.09188,7.80556 -50.49016,21.01904 -66.68059,32.15836 -13.8651,9.53944 -12.62323,10.87338 21.22584,22.7994 28.1877,9.93136 33.28036,13.45972 35.50871,24.6015 3.14213,15.71059 0.0383,17.25091 -119.89871,59.50228 -60.49069,21.30963 -113.02398,39.50801 -116.74065,40.44084 l -6.75757,1.69605 1.55305,-27.77403 z"
         id="path3004"
         inkscape:connector-curvature="0" />
      <path
         style="fill:#2e2e2e"
         d="m 363.10996,1013.2487 c -4.48113,-1.2096 -12.05169,-13.2398 -12.05169,-19.15121 0,-2.27954 5.53191,-17.29632 12.29314,-33.3706 8.99253,-21.37905 11.60098,-30.06 9.71516,-32.33228 -1.41789,-1.70844 -7.77243,-5.05763 -14.12122,-7.44264 -20.89771,-7.85049 -57.67247,-27.26491 -81.11302,-42.82185 -32.70265,-21.70398 -81.36476,-70.85732 -104.24877,-105.30113 -29.2261,-43.98958 -48.76229,-91.2658 -57.62568,-139.45017 -2.21939,-12.06531 -4.98982,-25.77589 -6.15652,-30.46795 -5.51317,-22.17204 -5.75056,-90.05257 -0.30316,-86.68589 1.37734,0.85123 92.13366,8.67099 100.79812,8.68498 1.00544,0.002 1.83249,12.89089 1.83788,28.64282 0.0173,50.57201 8.96517,89.54437 30.22962,131.665 25.98573,51.47254 65.60379,93.11365 115.81247,121.72628 10.09635,5.75366 20.30307,10.46121 22.68157,10.46121 5.61214,0 5.54628,-6.24813 -0.41103,-38.99898 -3.73308,-20.52285 -4.0829,-26.79589 -1.76578,-31.66447 4.03486,-8.47777 14.06594,-12.91951 22.1962,-9.8284 7.56973,2.878 187.83106,155.64832 187.83106,159.18562 0,1.33487 -44.42227,26.1302 -98.71617,55.10076 -54.29389,28.97054 -102.68461,55.1406 -107.53489,58.1558 -8.62479,5.3614 -11.65114,5.9704 -19.34729,3.8931 z M 634.3713,864.90149 c -12.37904,-24.80103 -22.50734,-45.5344 -22.50734,-46.0742 0,-0.53977 8.00795,-5.37642 17.79545,-10.74812 76.1869,-41.81378 129.42505,-113.22601 146.67715,-196.74881 7.63846,-36.98013 7.75463,-88.85489 0.19901,-88.85489 -1.76704,0 -13.83011,8.77477 -26.80682,19.49949 -19.38969,16.02478 -25.08849,19.49949 -31.98068,19.49949 -10.20072,0 -18.1364,-7.13971 -18.1364,-16.31724 0,-5.99495 10.12547,-64.86282 32.7996,-190.69135 4.69346,-26.04609 9.37943,-48.16415 10.41327,-49.15125 1.86995,-1.78544 197.42605,118.84033 209.05811,128.95428 6.01525,5.23018 8.07028,15.64466 4.23188,21.44635 -4.0773,6.16274 -18.01841,10.25156 -45.08807,13.22394 -16.05449,1.76288 -29.77187,4.47287 -31.1704,6.15796 -1.70606,2.05569 -1.69294,7.91641 0.0414,18.49101 13.95696,85.10018 -4.59123,185.26614 -47.86818,258.50299 -33.96658,57.48101 -89.31498,111.77439 -147.03876,144.23595 -10.65284,5.99073 -21.336,11.51662 -23.74034,12.27973 -3.63297,1.15306 -8.17401,-6.23074 -26.87883,-43.70533 z M 155.85556,463.23636 c -0.41518,-5.82513 0.39079,-30.85646 2.76223,-85.78835 6.3555,-147.21791 7.05369,-157.85416 10.73027,-163.46534 4.30472,-6.56983 16.19271,-9.7278 22.96857,-6.10147 2.66888,1.42834 13.30385,14.1151 23.63325,28.19278 10.3294,14.07769 20.12459,25.5958 21.76709,25.5958 1.64249,0 7.25034,-3.44304 12.46189,-7.6512 58.93894,-47.59136 136.92656,-78.59149 221.16036,-87.91141 49.79278,-5.50925 120.21578,7.89214 182.31137,34.69358 24.58854,10.61281 67.63313,35.40573 69.38182,39.9627 1.54709,4.03167 -52.8232,84.27057 -57.10567,84.27577 -1.76936,0.002 -7.95582,-3.25648 -13.74771,-7.2414 -49.74454,-34.22516 -121.85882,-52.76223 -180.83189,-46.48309 -46.7969,4.98268 -86.79635,18.04884 -123.94502,40.48766 -24.21454,14.62625 -23.39974,16.96064 10.13566,29.0385 30.50781,10.98746 37.39434,15.80815 37.39434,26.17667 0,11.18248 -3.90394,15.81167 -17.66144,20.94239 -10.87328,4.05509 -169.26152,60.0906 -208.41078,73.73276 -9.15025,3.18855 -12.85575,3.62841 -13.00434,1.54365 z"
         id="path3002"
         inkscape:connector-curvature="0" />
      <path
         style="fill:#000000"
         d="m 359.68794,1008.1596 c -3.40573,-3.673 -6.19223,-9.55773 -6.19223,-13.07734 0,-3.51958 5.37108,-19.36599 11.93573,-35.21425 6.56468,-15.84824 11.44062,-30.10531 10.83543,-31.68238 -0.60517,-1.57707 -8.99258,-5.89034 -18.63868,-9.58505 -79.47684,-30.44175 -155.34537,-96.43931 -198.91677,-173.03646 -21.83112,-38.37843 -38.6096,-88.08127 -44.46665,-131.72347 -1.69494,-12.6294 -3.78553,-21.82376 -4.64575,-20.43188 -2.52846,4.09114 -5.06033,-44.57998 -3.2422,-62.32605 0.91722,-8.95256 2.33059,-15.25455 3.14082,-14.00442 0.81023,1.25014 21.21639,3.58652 45.34701,5.19196 24.13061,1.60547 46.17442,3.38414 48.98623,3.95265 4.82754,0.97607 5.19803,3.03931 6.64988,37.03272 2.11956,49.6273 10.54805,84.49517 29.63916,122.61441 18.2024,36.34476 50.7969,75.70224 82.90783,100.11031 20.01648,15.21484 47.23654,31.00061 56.72951,32.8992 9.76561,1.95312 9.82223,1.14599 2.70236,-38.52085 -4.80541,-26.77229 -4.88709,-29.16578 -1.18789,-34.81147 5.50154,-8.39641 14.31412,-10.11797 23.36368,-4.5641 8.70986,5.3454 182.49666,152.50776 182.70872,154.71742 0.08,0.83382 -46.93128,26.58205 -104.46952,57.2183 -57.53825,30.63624 -104.16655,56.42785 -103.61847,57.31465 0.87672,1.4186 -6.92371,4.4799 -11.64653,4.5708 -0.95119,0.019 -4.51594,-2.9718 -7.92167,-6.6447 z M 636.33662,865.54463 c -11.08516,-23.12517 -20.64486,-43.28545 -21.24379,-44.80061 -0.5989,-1.51516 7.47857,-7.37471 17.94996,-13.02123 10.47138,-5.64651 26.26399,-15.62092 35.09468,-22.16536 20.18957,-14.96257 51.73529,-47.67284 65.44446,-67.86049 15.88353,-23.38952 33.73619,-62.81205 40.5711,-89.58978 11.62618,-45.54879 13.40758,-105.57136 3.19163,-107.53879 -2.14492,-0.41307 -13.65701,7.36138 -25.58246,17.27655 -25.87653,21.51459 -30.62239,24.23158 -38.75892,22.18942 -7.40973,-1.85971 -10.95418,-7.69145 -10.95418,-18.02306 0,-8.67735 38.24772,-225.72785 40.90889,-232.15232 1.47367,-3.55763 16.39473,4.93339 95.58755,54.39524 51.61271,32.23601 98.22868,61.52059 103.59104,65.07684 5.36236,3.55624 10.49117,6.25241 11.39738,5.99146 0.90619,-0.26093 2.35898,2.76439 3.22841,6.72296 1.63455,7.44203 -0.24637,17.21795 -3.1965,16.61354 -0.92374,-0.18914 -4.77016,0.931 -8.5476,2.4894 -3.77744,1.55843 -20.06425,4.3666 -36.19289,6.2404 -16.12863,1.8738 -30.31676,4.39887 -31.52911,5.61122 -1.31412,1.31412 -0.63159,12.48753 1.69012,27.66795 5.29618,34.629 3.44034,98.42434 -3.86066,132.71085 -20.14066,94.58336 -71.27914,174.9966 -147.85072,232.48934 -23.62492,17.73846 -62.89978,41.72225 -68.32261,41.72225 -1.35351,0 -11.53058,-18.9206 -22.61578,-42.04578 z M 157.63241,462.01637 c -1.42257,-2.43085 7.78675,-218.4306 9.99383,-234.39997 1.48857,-10.7705 3.04745,-14.00683 8.10551,-16.82748 11.46798,-6.39517 17.4585,-2.29479 38.71766,26.50137 10.88888,14.74931 21.25055,26.81693 23.02594,26.81693 1.77538,0 7.49196,-3.44304 12.70351,-7.65121 15.50622,-12.52078 52.13654,-36.11473 70.34577,-45.31039 36.90161,-18.63533 89.99973,-35.43886 122.50942,-38.76957 8.59609,-0.8807 14.37678,-2.37535 12.84595,-3.32145 -4.51328,-2.78937 38.64938,-5.12402 61.81361,-3.34348 11.74366,0.90269 20.10616,2.4113 18.58333,3.35246 -1.52284,0.94116 4.26439,2.43177 12.86047,3.31247 35.7756,3.66531 90.22254,21.65759 130.38518,43.08645 29.77084,15.8843 42.39028,24.39894 41.51985,28.01447 -1.55265,6.44916 -52.10428,78.93222 -55.1157,79.02723 -1.76936,0.0558 -7.80202,-3.04448 -13.4059,-6.88956 -42.21004,-28.96212 -100.91913,-46.52681 -155.73932,-46.59436 -57.63077,-0.071 -109.65277,14.92819 -157.30107,45.35371 -19.92755,12.72461 -18.23776,15.59876 16.33904,27.79102 35.66517,12.57604 41.76993,18.23594 35.56485,32.97321 -2.86543,6.8055 -8.28636,9.03581 -102.72033,42.26166 -54.83239,19.29236 -106.52268,37.60489 -114.8673,40.69451 -8.34462,3.08965 -15.61856,4.85452 -16.1643,3.92198 z"
         id="path3000"
         inkscape:connector-curvature="0" />
      <path
         sodipodi:type="arc"
         style="color:#000000;fill:none;stroke:none;stroke-width:21.26621557000000000;marker:none;visibility:visible;display:inline;overflow:visible;enable-background:accumulate;stroke-miterlimit:4;stroke-dasharray:none"
         id="path3016"
         sodipodi:cx="503.81357"
         sodipodi:cy="507.23495"
         sodipodi:rx="517.07184"
         sodipodi:ry="517.07184"
         d="m 1020.8854,507.23495 a 517.07184,517.07184 0 1 1 -1034.14367,0 517.07184,517.07184 0 1 1 1034.14367,0 z"
         transform="matrix(0.94045882,0,0,0.94045882,27.787947,73.724717)" />
    </g>
    <path
       sodipodi:type="arc"
       style="color:#000000;fill:none;fill-opacity:1;stroke:none;stroke-width:5;stroke-linecap:round;stroke-linejoin:round;stroke-miterlimit:4;stroke-opacity:1;stroke-dasharray:none;stroke-dashoffset:0;marker:none;visibility:visible;display:inline;overflow:visible;enable-background:accumulate"
       id="path2985"
       sodipodi:cx="502.85715"
       sodipodi:cy="482.85715"
       sodipodi:rx="491.42856"
       sodipodi:ry="491.42856"
       d="m 994.28571,482.85715 a 491.42856,491.42856 0 1 1 -982.857121,0 491.42856,491.42856 0 1 1 982.857121,0 z"
       transform="matrix(1.0122921,0,0,1.0122921,-9.0383404,63.569686)" />
  </g>
</svg>
