<?xml version="1.0" encoding="UTF-8" standalone="no"?>
<!-- Created with Inkscape (http://www.inkscape.org/) -->

<svg
   xmlns:dc="http://purl.org/dc/elements/1.1/"
   xmlns:cc="http://creativecommons.org/ns#"
   xmlns:rdf="http://www.w3.org/1999/02/22-rdf-syntax-ns#"
   xmlns:svg="http://www.w3.org/2000/svg"
   xmlns="http://www.w3.org/2000/svg"
   xmlns:sodipodi="http://sodipodi.sourceforge.net/DTD/sodipodi-0.dtd"
   xmlns:inkscape="http://www.inkscape.org/namespaces/inkscape"
   width="388.57144"
   height="254.64285"
   id="svg2"
   version="1.1"
   inkscape:version="0.91 r13725"
   sodipodi:docname="PeriodicWrap_2D.svg">
  <defs
     id="defs4">
    <marker
       inkscape:isstock="true"
       style="overflow:visible"
       id="marker4802"
       refX="0"
       refY="0"
       orient="auto"
       inkscape:stockid="Arrow1Mend">
      <path
         inkscape:connector-curvature="0"
         transform="matrix(-0.4,0,0,-0.4,-4,0)"
         style="fill:#0000ff;fill-opacity:1;fill-rule:evenodd;stroke:#0000ff;stroke-width:1pt;stroke-opacity:1"
         d="M 0,0 5,-5 -12.5,0 5,5 0,0 Z"
         id="path4804" />
    </marker>
    <marker
       inkscape:stockid="Arrow1Mend"
       orient="auto"
       refY="0"
       refX="0"
       id="marker4724"
       style="overflow:visible"
       inkscape:isstock="true"
       inkscape:collect="always">
      <path
         id="path4477"
         d="M 0,0 5,-5 -12.5,0 5,5 0,0 Z"
         style="fill:#0000ff;fill-opacity:1;fill-rule:evenodd;stroke:#0000ff;stroke-width:1pt;stroke-opacity:1"
         transform="matrix(-0.4,0,0,-0.4,-4,0)"
         inkscape:connector-curvature="0" />
    </marker>
    <marker
       inkscape:stockid="Arrow1Mstart"
       orient="auto"
       refY="0"
       refX="0"
       id="Arrow1Mstart"
       style="overflow:visible">
      <path
         id="path4085"
         d="M 0,0 5,-5 -12.5,0 5,5 0,0 Z"
         style="fill-rule:evenodd;stroke:#000000;stroke-width:1pt;marker-start:none"
         transform="matrix(0.4,0,0,0.4,4,0)"
         inkscape:connector-curvature="0" />
    </marker>
    <marker
       inkscape:stockid="Arrow1Lstart"
       orient="auto"
       refY="0"
       refX="0"
       id="Arrow1Lstart"
       style="overflow:visible">
      <path
         id="path4079"
         d="M 0,0 5,-5 -12.5,0 5,5 0,0 Z"
         style="fill-rule:evenodd;stroke:#000000;stroke-width:1pt;marker-start:none"
         transform="matrix(0.8,0,0,0.8,10,0)"
         inkscape:connector-curvature="0" />
    </marker>
    <marker
       inkscape:stockid="Arrow1Mend"
       orient="auto"
       refY="0"
       refX="0"
       id="Arrow1Mend"
       style="overflow:visible">
      <path
         id="path3810"
         d="M 0,0 5,-5 -12.5,0 5,5 0,0 Z"
         style="fill-rule:evenodd;stroke:#000000;stroke-width:1pt;marker-start:none"
         transform="matrix(-0.4,0,0,-0.4,-4,0)"
         inkscape:connector-curvature="0" />
    </marker>
    <marker
       inkscape:stockid="Arrow1Sstart"
       orient="auto"
       refY="0"
       refX="0"
       id="Arrow1Sstart"
       style="overflow:visible">
      <path
         id="path3812"
         d="M 0,0 5,-5 -12.5,0 5,5 0,0 Z"
         style="fill-rule:evenodd;stroke:#000000;stroke-width:1pt;marker-start:none"
         transform="matrix(0.2,0,0,0.2,1.2,0)"
         inkscape:connector-curvature="0" />
    </marker>
    <marker
       inkscape:stockid="Arrow1Send"
       orient="auto"
       refY="0"
       refX="0"
       id="Arrow1Send"
       style="overflow:visible">
      <path
         id="path3815"
         d="M 0,0 5,-5 -12.5,0 5,5 0,0 Z"
         style="fill-rule:evenodd;stroke:#000000;stroke-width:1pt;marker-start:none"
         transform="matrix(-0.2,0,0,-0.2,-1.2,0)"
         inkscape:connector-curvature="0" />
    </marker>
  </defs>
  <sodipodi:namedview
     id="base"
     pagecolor="#ffffff"
     bordercolor="#666666"
     borderopacity="1.0"
     inkscape:pageopacity="0.0"
     inkscape:pageshadow="2"
     inkscape:zoom="1.979899"
     inkscape:cx="165.43584"
     inkscape:cy="109.91261"
     inkscape:document-units="px"
     inkscape:current-layer="layer2"
     showgrid="false"
     fit-margin-left="20"
     fit-margin-top="20"
     fit-margin-right="10"
     fit-margin-bottom="10"
     inkscape:window-width="1615"
     inkscape:window-height="1102"
     inkscape:window-x="206"
     inkscape:window-y="-3"
     inkscape:window-maximized="0" />
  <metadata
     id="metadata7">
    <rdf:RDF>
      <cc:Work
         rdf:about="">
        <dc:format>image/svg+xml</dc:format>
        <dc:type
           rdf:resource="http://purl.org/dc/dcmitype/StillImage" />
        <dc:title></dc:title>
      </cc:Work>
    </rdf:RDF>
  </metadata>
  <g
     inkscape:label="Layer 1"
     inkscape:groupmode="layer"
     id="layer1"
     transform="translate(-98.508553,-40.0247)" />
  <g
     inkscape:groupmode="layer"
     id="layer2"
     inkscape:label="drawing"
     transform="translate(-23.508572,234.12318)">
    <rect
       style="fill:#ffff00;fill-opacity:1;stroke:none;stroke-width:2;stroke-linecap:round;stroke-linejoin:round;stroke-miterlimit:4;stroke-dasharray:none;stroke-opacity:1"
       id="rect4458"
       width="38.385788"
       height="49.535545"
       x="201.61082"
       y="-97.9589" />
    <path
       style="fill:#008000;fill-opacity:1;stroke:none;stroke-width:2;stroke-linecap:round;stroke-linejoin:round;stroke-miterlimit:4;stroke-dasharray:none;stroke-opacity:1;marker-end:"
       id="path4460"
       sodipodi:type="arc"
       sodipodi:cx="220.55118"
       sodipodi:cy="-78.778687"
       sodipodi:rx="14.899749"
       sodipodi:ry="14.899749"
       sodipodi:start="0.15818128"
       sodipodi:end="0.15811304"
       sodipodi:open="true"
       d="m 235.26491,-76.431642 a 14.899749,14.899749 0 0 1 -17.06053,12.366727 14.899749,14.899749 0 0 1 -12.36701,-17.060314 14.899749,14.899749 0 0 1 17.0601,-12.367309 14.899749,14.899749 0 0 1 12.3676,17.059892" />
    <text
       xml:space="preserve"
       style="font-style:normal;font-weight:normal;font-size:20px;line-height:125%;font-family:sans-serif;letter-spacing:0px;word-spacing:0px;fill:#000000;fill-opacity:1;stroke:none;stroke-width:1px;stroke-linecap:butt;stroke-linejoin:miter;stroke-opacity:1"
       x="227.16313"
       y="-52.478825"
       id="text4775"
       sodipodi:linespacing="125%"><tspan
         sodipodi:role="line"
         id="tspan4777"
         x="227.16313"
         y="-52.478825"
         style="font-size:10px">a1</tspan></text>
    <text
       xml:space="preserve"
       style="font-style:normal;font-weight:normal;font-size:20px;line-height:125%;font-family:sans-serif;letter-spacing:0px;word-spacing:0px;fill:#000000;fill-opacity:1;stroke:none;stroke-width:1px;stroke-linecap:butt;stroke-linejoin:miter;stroke-opacity:1"
       x="168.78087"
       y="-51.757111"
       id="text4787"
       sodipodi:linespacing="125%"><tspan
         sodipodi:role="line"
         id="tspan4789"
         x="168.78087"
         y="-51.757111"
         style="font-size:10px">origin</tspan></text>
    <path
       d="m 275.26491,-76.431642 a 14.899749,14.899749 0 0 1 -17.06053,12.366727 14.899749,14.899749 0 0 1 -12.36701,-17.060314 14.899749,14.899749 0 0 1 17.0601,-12.367309 14.899749,14.899749 0 0 1 12.3676,17.059892"
       sodipodi:open="true"
       sodipodi:end="0.15811304"
       sodipodi:start="0.15818128"
       sodipodi:ry="14.899749"
       sodipodi:rx="14.899749"
       sodipodi:cy="-78.778687"
       sodipodi:cx="260.55118"
       sodipodi:type="arc"
       id="path4793"
       style="fill:#008000;fill-opacity:1;stroke:none;stroke-width:2;stroke-linecap:round;stroke-linejoin:round;stroke-miterlimit:4;stroke-dasharray:none;stroke-opacity:1;marker-end:" />
    <path
       style="fill:#008000;fill-opacity:1;stroke:none;stroke-width:2;stroke-linecap:round;stroke-linejoin:round;stroke-miterlimit:4;stroke-dasharray:none;stroke-opacity:1;marker-end:"
       id="path4795"
       sodipodi:type="arc"
       sodipodi:cx="300.55118"
       sodipodi:cy="-78.778687"
       sodipodi:rx="14.899749"
       sodipodi:ry="14.899749"
       sodipodi:start="0.15818128"
       sodipodi:end="0.15811304"
       sodipodi:open="true"
       d="m 315.26491,-76.431642 a 14.899749,14.899749 0 0 1 -17.06053,12.366727 14.899749,14.899749 0 0 1 -12.36701,-17.060314 14.899749,14.899749 0 0 1 17.0601,-12.367309 14.899749,14.899749 0 0 1 12.3676,17.059892" />
    <path
       d="m 355.26491,-76.431642 a 14.899749,14.899749 0 0 1 -17.06053,12.366727 14.899749,14.899749 0 0 1 -12.36701,-17.060314 14.899749,14.899749 0 0 1 17.0601,-12.367309 14.899749,14.899749 0 0 1 12.3676,17.059892"
       sodipodi:open="true"
       sodipodi:end="0.15811304"
       sodipodi:start="0.15818128"
       sodipodi:ry="14.899749"
       sodipodi:rx="14.899749"
       sodipodi:cy="-78.778687"
       sodipodi:cx="340.55118"
       sodipodi:type="arc"
       id="path4797"
       style="fill:#008000;fill-opacity:1;stroke:none;stroke-width:2;stroke-linecap:round;stroke-linejoin:round;stroke-miterlimit:4;stroke-dasharray:none;stroke-opacity:1;marker-end:" />
    <path
       d="m 195.26491,-76.431642 a 14.899749,14.899749 0 0 1 -17.06053,12.366727 14.899749,14.899749 0 0 1 -12.36701,-17.060314 14.899749,14.899749 0 0 1 17.0601,-12.367309 14.899749,14.899749 0 0 1 12.3676,17.059892"
       sodipodi:open="true"
       sodipodi:end="0.15811304"
       sodipodi:start="0.15818128"
       sodipodi:ry="14.899749"
       sodipodi:rx="14.899749"
       sodipodi:cy="-78.778687"
       sodipodi:cx="180.55118"
       sodipodi:type="arc"
       id="path4799"
       style="fill:#008000;fill-opacity:1;stroke:none;stroke-width:2;stroke-linecap:round;stroke-linejoin:round;stroke-miterlimit:4;stroke-dasharray:none;stroke-opacity:1;marker-end:" />
    <path
       style="fill:#008000;fill-opacity:1;stroke:none;stroke-width:2;stroke-linecap:round;stroke-linejoin:round;stroke-miterlimit:4;stroke-dasharray:none;stroke-opacity:1;marker-end:"
       id="path4801"
       sodipodi:type="arc"
       sodipodi:cx="140.55118"
       sodipodi:cy="-78.778687"
       sodipodi:rx="14.899749"
       sodipodi:ry="14.899749"
       sodipodi:start="0.15818128"
       sodipodi:end="0.15811304"
       sodipodi:open="true"
       d="m 155.26491,-76.431642 a 14.899749,14.899749 0 0 1 -17.06053,12.366727 14.899749,14.899749 0 0 1 -12.36701,-17.060314 14.899749,14.899749 0 0 1 17.0601,-12.367309 14.899749,14.899749 0 0 1 12.3676,17.059892" />
    <path
       d="m 115.26491,-76.431642 a 14.899749,14.899749 0 0 1 -17.060526,12.366727 14.899749,14.899749 0 0 1 -12.367018,-17.060314 14.899749,14.899749 0 0 1 17.060104,-12.367309 14.899749,14.899749 0 0 1 12.3676,17.059892"
       sodipodi:open="true"
       sodipodi:end="0.15811304"
       sodipodi:start="0.15818128"
       sodipodi:ry="14.899749"
       sodipodi:rx="14.899749"
       sodipodi:cy="-78.778687"
       sodipodi:cx="100.55118"
       sodipodi:type="arc"
       id="path4803"
       style="fill:#008000;fill-opacity:1;stroke:none;stroke-width:2;stroke-linecap:round;stroke-linejoin:round;stroke-miterlimit:4;stroke-dasharray:none;stroke-opacity:1;marker-end:" />
    <path
       style="fill:#008000;fill-opacity:1;stroke:none;stroke-width:2;stroke-linecap:round;stroke-linejoin:round;stroke-miterlimit:4;stroke-dasharray:none;stroke-opacity:1;marker-end:"
       id="path4805"
       sodipodi:type="arc"
       sodipodi:cx="60.551178"
       sodipodi:cy="-78.778687"
       sodipodi:rx="14.899749"
       sodipodi:ry="14.899749"
       sodipodi:start="0.15818128"
       sodipodi:end="0.15811304"
       sodipodi:open="true"
       d="M 75.264909,-76.431642 A 14.899749,14.899749 0 0 1 58.204384,-64.064915 14.899749,14.899749 0 0 1 45.837366,-81.125229 14.899749,14.899749 0 0 1 62.89747,-93.492538 14.899749,14.899749 0 0 1 75.26507,-76.432646" />
    <path
       style="fill:#008000;fill-opacity:1;stroke:none;stroke-width:2;stroke-linecap:round;stroke-linejoin:round;stroke-miterlimit:4;stroke-dasharray:none;stroke-opacity:1;marker-end:"
       id="path4807"
       sodipodi:type="arc"
       sodipodi:cx="380.55118"
       sodipodi:cy="-78.778687"
       sodipodi:rx="14.899749"
       sodipodi:ry="14.899749"
       sodipodi:start="0.15818128"
       sodipodi:end="0.15811304"
       sodipodi:open="true"
       d="m 395.26491,-76.431642 a 14.899749,14.899749 0 0 1 -17.06053,12.366727 14.899749,14.899749 0 0 1 -12.36701,-17.060314 14.899749,14.899749 0 0 1 17.0601,-12.367309 14.899749,14.899749 0 0 1 12.3676,17.059892" />
    <path
       style="fill:none;fill-rule:evenodd;stroke:#000000;stroke-width:1px;stroke-linecap:butt;stroke-linejoin:miter;stroke-opacity:1;marker-end:"
       d="m 43.508572,-48.4089 358.571428,0"
       id="path4207"
       inkscape:connector-curvature="0" />
    <path
       inkscape:connector-curvature="0"
       id="path4209"
       d="m 43.508572,-98.4089 358.571428,0"
       style="fill:none;fill-rule:evenodd;stroke:#000000;stroke-width:1px;stroke-linecap:butt;stroke-linejoin:miter;stroke-opacity:1;marker-end:" />
    <path
       style="fill:none;fill-rule:evenodd;stroke:#000000;stroke-width:1px;stroke-linecap:butt;stroke-linejoin:miter;stroke-opacity:1;marker-end:"
       d="m 43.508572,-148.4089 358.571428,0"
       id="path4211"
       inkscape:connector-curvature="0" />
    <path
       inkscape:connector-curvature="0"
       id="path4213"
       d="m 43.508572,-198.4089 358.571428,0"
       style="fill:none;fill-rule:evenodd;stroke:#000000;stroke-width:1px;stroke-linecap:butt;stroke-linejoin:miter;stroke-opacity:1;marker-end:" />
    <path
       inkscape:connector-curvature="0"
       id="path4215"
       d="m 43.508572,1.5911 358.571428,0"
       style="fill:none;fill-rule:evenodd;stroke:#000000;stroke-width:1px;stroke-linecap:butt;stroke-linejoin:miter;stroke-opacity:1;marker-end:" />
    <path
       style="fill:none;fill-rule:evenodd;stroke:#000000;stroke-width:1px;stroke-linecap:butt;stroke-linejoin:miter;stroke-opacity:1;marker-end:"
       d="m 200.65143,10.51967 0,-224.64285"
       id="path4217"
       inkscape:connector-curvature="0" />
    <path
       inkscape:connector-curvature="0"
       id="path4223"
       d="m 240.65143,10.51967 0,-224.64285"
       style="fill:none;fill-rule:evenodd;stroke:#000000;stroke-width:1px;stroke-linecap:butt;stroke-linejoin:miter;stroke-opacity:1;marker-end:" />
    <path
       style="fill:none;fill-rule:evenodd;stroke:#000000;stroke-width:1px;stroke-linecap:butt;stroke-linejoin:miter;stroke-opacity:1;marker-end:"
       d="m 280.65143,10.51967 0,-224.64285"
       id="path4225"
       inkscape:connector-curvature="0" />
    <path
       inkscape:connector-curvature="0"
       id="path4227"
       d="m 320.65143,10.51967 0,-224.64285"
       style="fill:none;fill-rule:evenodd;stroke:#000000;stroke-width:1px;stroke-linecap:butt;stroke-linejoin:miter;stroke-opacity:1;marker-end:" />
    <path
       style="fill:none;fill-rule:evenodd;stroke:#000000;stroke-width:1px;stroke-linecap:butt;stroke-linejoin:miter;stroke-opacity:1;marker-end:"
       d="m 360.65143,10.51967 0,-224.64285"
       id="path4229"
       inkscape:connector-curvature="0" />
    <path
       inkscape:connector-curvature="0"
       id="path4233"
       d="m 160.65143,10.51967 0,-224.64285"
       style="fill:none;fill-rule:evenodd;stroke:#000000;stroke-width:1px;stroke-linecap:butt;stroke-linejoin:miter;stroke-opacity:1;marker-end:" />
    <path
       style="fill:none;fill-rule:evenodd;stroke:#000000;stroke-width:1px;stroke-linecap:butt;stroke-linejoin:miter;stroke-opacity:1;marker-end:"
       d="m 120.65143,10.51967 0,-224.64285"
       id="path4235"
       inkscape:connector-curvature="0" />
    <path
       inkscape:connector-curvature="0"
       id="path4237"
       d="m 80.65143,10.51967 0,-224.64285"
       style="fill:none;fill-rule:evenodd;stroke:#000000;stroke-width:1px;stroke-linecap:butt;stroke-linejoin:miter;stroke-opacity:1;marker-end:" />
    <path
       d="m 235.26491,-126.43164 a 14.899749,14.899749 0 0 1 -17.06053,12.36672 14.899749,14.899749 0 0 1 -12.36701,-17.06031 14.899749,14.899749 0 0 1 17.0601,-12.36731 14.899749,14.899749 0 0 1 12.3676,17.05989"
       sodipodi:open="true"
       sodipodi:end="0.15811304"
       sodipodi:start="0.15818128"
       sodipodi:ry="14.899749"
       sodipodi:rx="14.899749"
       sodipodi:cy="-128.77869"
       sodipodi:cx="220.55118"
       sodipodi:type="arc"
       id="path4241"
       style="fill:#008000;fill-opacity:1;stroke:none;stroke-width:2;stroke-linecap:round;stroke-linejoin:round;stroke-miterlimit:4;stroke-dasharray:none;stroke-opacity:1;marker-end:" />
    <path
       style="fill:#008000;fill-opacity:1;stroke:none;stroke-width:2;stroke-linecap:round;stroke-linejoin:round;stroke-miterlimit:4;stroke-dasharray:none;stroke-opacity:1;marker-end:"
       id="path4243"
       sodipodi:type="arc"
       sodipodi:cx="260.55118"
       sodipodi:cy="-128.77869"
       sodipodi:rx="14.899749"
       sodipodi:ry="14.899749"
       sodipodi:start="0.15818128"
       sodipodi:end="0.15811304"
       sodipodi:open="true"
       d="m 275.26491,-126.43164 a 14.899749,14.899749 0 0 1 -17.06053,12.36672 14.899749,14.899749 0 0 1 -12.36701,-17.06031 14.899749,14.899749 0 0 1 17.0601,-12.36731 14.899749,14.899749 0 0 1 12.3676,17.05989" />
    <path
       d="m 315.26491,-126.43164 a 14.899749,14.899749 0 0 1 -17.06053,12.36672 14.899749,14.899749 0 0 1 -12.36701,-17.06031 14.899749,14.899749 0 0 1 17.0601,-12.36731 14.899749,14.899749 0 0 1 12.3676,17.05989"
       sodipodi:open="true"
       sodipodi:end="0.15811304"
       sodipodi:start="0.15818128"
       sodipodi:ry="14.899749"
       sodipodi:rx="14.899749"
       sodipodi:cy="-128.77869"
       sodipodi:cx="300.55118"
       sodipodi:type="arc"
       id="path4245"
       style="fill:#008000;fill-opacity:1;stroke:none;stroke-width:2;stroke-linecap:round;stroke-linejoin:round;stroke-miterlimit:4;stroke-dasharray:none;stroke-opacity:1;marker-end:" />
    <path
       style="fill:#008000;fill-opacity:1;stroke:none;stroke-width:2;stroke-linecap:round;stroke-linejoin:round;stroke-miterlimit:4;stroke-dasharray:none;stroke-opacity:1;marker-end:"
       id="path4247"
       sodipodi:type="arc"
       sodipodi:cx="340.55118"
       sodipodi:cy="-128.77869"
       sodipodi:rx="14.899749"
       sodipodi:ry="14.899749"
       sodipodi:start="0.15818128"
       sodipodi:end="0.15811304"
       sodipodi:open="true"
       d="m 355.26491,-126.43164 a 14.899749,14.899749 0 0 1 -17.06053,12.36672 14.899749,14.899749 0 0 1 -12.36701,-17.06031 14.899749,14.899749 0 0 1 17.0601,-12.36731 14.899749,14.899749 0 0 1 12.3676,17.05989" />
    <path
       style="fill:#008000;fill-opacity:1;stroke:none;stroke-width:2;stroke-linecap:round;stroke-linejoin:round;stroke-miterlimit:4;stroke-dasharray:none;stroke-opacity:1;marker-end:"
       id="path4249"
       sodipodi:type="arc"
       sodipodi:cx="180.55118"
       sodipodi:cy="-128.77869"
       sodipodi:rx="14.899749"
       sodipodi:ry="14.899749"
       sodipodi:start="0.15818128"
       sodipodi:end="0.15811304"
       sodipodi:open="true"
       d="m 195.26491,-126.43164 a 14.899749,14.899749 0 0 1 -17.06053,12.36672 14.899749,14.899749 0 0 1 -12.36701,-17.06031 14.899749,14.899749 0 0 1 17.0601,-12.36731 14.899749,14.899749 0 0 1 12.3676,17.05989" />
    <path
       d="m 155.26491,-126.43164 a 14.899749,14.899749 0 0 1 -17.06053,12.36672 14.899749,14.899749 0 0 1 -12.36701,-17.06031 14.899749,14.899749 0 0 1 17.0601,-12.36731 14.899749,14.899749 0 0 1 12.3676,17.05989"
       sodipodi:open="true"
       sodipodi:end="0.15811304"
       sodipodi:start="0.15818128"
       sodipodi:ry="14.899749"
       sodipodi:rx="14.899749"
       sodipodi:cy="-128.77869"
       sodipodi:cx="140.55118"
       sodipodi:type="arc"
       id="path4251"
       style="fill:#008000;fill-opacity:1;stroke:none;stroke-width:2;stroke-linecap:round;stroke-linejoin:round;stroke-miterlimit:4;stroke-dasharray:none;stroke-opacity:1;marker-end:" />
    <path
       style="fill:#008000;fill-opacity:1;stroke:none;stroke-width:2;stroke-linecap:round;stroke-linejoin:round;stroke-miterlimit:4;stroke-dasharray:none;stroke-opacity:1;marker-end:"
       id="path4253"
       sodipodi:type="arc"
       sodipodi:cx="100.55118"
       sodipodi:cy="-128.77869"
       sodipodi:rx="14.899749"
       sodipodi:ry="14.899749"
       sodipodi:start="0.15818128"
       sodipodi:end="0.15811304"
       sodipodi:open="true"
       d="m 115.26491,-126.43164 a 14.899749,14.899749 0 0 1 -17.060526,12.36672 14.899749,14.899749 0 0 1 -12.367018,-17.06031 14.899749,14.899749 0 0 1 17.060104,-12.36731 14.899749,14.899749 0 0 1 12.3676,17.05989" />
    <path
       d="m 75.264909,-126.43164 a 14.899749,14.899749 0 0 1 -17.060525,12.36672 14.899749,14.899749 0 0 1 -12.367018,-17.06031 14.899749,14.899749 0 0 1 17.060104,-12.36731 14.899749,14.899749 0 0 1 12.3676,17.05989"
       sodipodi:open="true"
       sodipodi:end="0.15811304"
       sodipodi:start="0.15818128"
       sodipodi:ry="14.899749"
       sodipodi:rx="14.899749"
       sodipodi:cy="-128.77869"
       sodipodi:cx="60.551178"
       sodipodi:type="arc"
       id="path4255"
       style="fill:#008000;fill-opacity:1;stroke:none;stroke-width:2;stroke-linecap:round;stroke-linejoin:round;stroke-miterlimit:4;stroke-dasharray:none;stroke-opacity:1;marker-end:" />
    <path
       d="m 395.26491,-126.43164 a 14.899749,14.899749 0 0 1 -17.06053,12.36672 14.899749,14.899749 0 0 1 -12.36701,-17.06031 14.899749,14.899749 0 0 1 17.0601,-12.36731 14.899749,14.899749 0 0 1 12.3676,17.05989"
       sodipodi:open="true"
       sodipodi:end="0.15811304"
       sodipodi:start="0.15818128"
       sodipodi:ry="14.899749"
       sodipodi:rx="14.899749"
       sodipodi:cy="-128.77869"
       sodipodi:cx="380.55118"
       sodipodi:type="arc"
       id="path4257"
       style="fill:#008000;fill-opacity:1;stroke:none;stroke-width:2;stroke-linecap:round;stroke-linejoin:round;stroke-miterlimit:4;stroke-dasharray:none;stroke-opacity:1;marker-end:" />
    <path
       style="fill:#008000;fill-opacity:1;stroke:none;stroke-width:2;stroke-linecap:round;stroke-linejoin:round;stroke-miterlimit:4;stroke-dasharray:none;stroke-opacity:1;marker-end:"
       id="path4259"
       sodipodi:type="arc"
       sodipodi:cx="220.55118"
       sodipodi:cy="-178.77869"
       sodipodi:rx="14.899749"
       sodipodi:ry="14.899749"
       sodipodi:start="0.15818128"
       sodipodi:end="0.15811304"
       sodipodi:open="true"
       d="m 235.26491,-176.43164 a 14.899749,14.899749 0 0 1 -17.06053,12.36672 14.899749,14.899749 0 0 1 -12.36701,-17.06031 14.899749,14.899749 0 0 1 17.0601,-12.36731 14.899749,14.899749 0 0 1 12.3676,17.05989" />
    <path
       d="m 275.26491,-176.43164 a 14.899749,14.899749 0 0 1 -17.06053,12.36672 14.899749,14.899749 0 0 1 -12.36701,-17.06031 14.899749,14.899749 0 0 1 17.0601,-12.36731 14.899749,14.899749 0 0 1 12.3676,17.05989"
       sodipodi:open="true"
       sodipodi:end="0.15811304"
       sodipodi:start="0.15818128"
       sodipodi:ry="14.899749"
       sodipodi:rx="14.899749"
       sodipodi:cy="-178.77869"
       sodipodi:cx="260.55118"
       sodipodi:type="arc"
       id="path4261"
       style="fill:#008000;fill-opacity:1;stroke:none;stroke-width:2;stroke-linecap:round;stroke-linejoin:round;stroke-miterlimit:4;stroke-dasharray:none;stroke-opacity:1;marker-end:" />
    <path
       style="fill:#008000;fill-opacity:1;stroke:none;stroke-width:2;stroke-linecap:round;stroke-linejoin:round;stroke-miterlimit:4;stroke-dasharray:none;stroke-opacity:1;marker-end:"
       id="path4263"
       sodipodi:type="arc"
       sodipodi:cx="300.55118"
       sodipodi:cy="-178.77869"
       sodipodi:rx="14.899749"
       sodipodi:ry="14.899749"
       sodipodi:start="0.15818128"
       sodipodi:end="0.15811304"
       sodipodi:open="true"
       d="m 315.26491,-176.43164 a 14.899749,14.899749 0 0 1 -17.06053,12.36672 14.899749,14.899749 0 0 1 -12.36701,-17.06031 14.899749,14.899749 0 0 1 17.0601,-12.36731 14.899749,14.899749 0 0 1 12.3676,17.05989" />
    <path
       d="m 355.26491,-176.43164 a 14.899749,14.899749 0 0 1 -17.06053,12.36672 14.899749,14.899749 0 0 1 -12.36701,-17.06031 14.899749,14.899749 0 0 1 17.0601,-12.36731 14.899749,14.899749 0 0 1 12.3676,17.05989"
       sodipodi:open="true"
       sodipodi:end="0.15811304"
       sodipodi:start="0.15818128"
       sodipodi:ry="14.899749"
       sodipodi:rx="14.899749"
       sodipodi:cy="-178.77869"
       sodipodi:cx="340.55118"
       sodipodi:type="arc"
       id="path4265"
       style="fill:#008000;fill-opacity:1;stroke:none;stroke-width:2;stroke-linecap:round;stroke-linejoin:round;stroke-miterlimit:4;stroke-dasharray:none;stroke-opacity:1;marker-end:" />
    <path
       d="m 195.26491,-176.43164 a 14.899749,14.899749 0 0 1 -17.06053,12.36672 14.899749,14.899749 0 0 1 -12.36701,-17.06031 14.899749,14.899749 0 0 1 17.0601,-12.36731 14.899749,14.899749 0 0 1 12.3676,17.05989"
       sodipodi:open="true"
       sodipodi:end="0.15811304"
       sodipodi:start="0.15818128"
       sodipodi:ry="14.899749"
       sodipodi:rx="14.899749"
       sodipodi:cy="-178.77869"
       sodipodi:cx="180.55118"
       sodipodi:type="arc"
       id="path4267"
       style="fill:#008000;fill-opacity:1;stroke:none;stroke-width:2;stroke-linecap:round;stroke-linejoin:round;stroke-miterlimit:4;stroke-dasharray:none;stroke-opacity:1;marker-end:" />
    <path
       style="fill:#008000;fill-opacity:1;stroke:none;stroke-width:2;stroke-linecap:round;stroke-linejoin:round;stroke-miterlimit:4;stroke-dasharray:none;stroke-opacity:1;marker-end:"
       id="path4269"
       sodipodi:type="arc"
       sodipodi:cx="140.55118"
       sodipodi:cy="-178.77869"
       sodipodi:rx="14.899749"
       sodipodi:ry="14.899749"
       sodipodi:start="0.15818128"
       sodipodi:end="0.15811304"
       sodipodi:open="true"
       d="m 155.26491,-176.43164 a 14.899749,14.899749 0 0 1 -17.06053,12.36672 14.899749,14.899749 0 0 1 -12.36701,-17.06031 14.899749,14.899749 0 0 1 17.0601,-12.36731 14.899749,14.899749 0 0 1 12.3676,17.05989" />
    <path
       d="m 115.26491,-176.43164 a 14.899749,14.899749 0 0 1 -17.060526,12.36672 14.899749,14.899749 0 0 1 -12.367018,-17.06031 14.899749,14.899749 0 0 1 17.060104,-12.36731 14.899749,14.899749 0 0 1 12.3676,17.05989"
       sodipodi:open="true"
       sodipodi:end="0.15811304"
       sodipodi:start="0.15818128"
       sodipodi:ry="14.899749"
       sodipodi:rx="14.899749"
       sodipodi:cy="-178.77869"
       sodipodi:cx="100.55118"
       sodipodi:type="arc"
       id="path4271"
       style="fill:#008000;fill-opacity:1;stroke:none;stroke-width:2;stroke-linecap:round;stroke-linejoin:round;stroke-miterlimit:4;stroke-dasharray:none;stroke-opacity:1;marker-end:" />
    <path
       style="fill:#008000;fill-opacity:1;stroke:none;stroke-width:2;stroke-linecap:round;stroke-linejoin:round;stroke-miterlimit:4;stroke-dasharray:none;stroke-opacity:1;marker-end:"
       id="path4273"
       sodipodi:type="arc"
       sodipodi:cx="60.551178"
       sodipodi:cy="-178.77869"
       sodipodi:rx="14.899749"
       sodipodi:ry="14.899749"
       sodipodi:start="0.15818128"
       sodipodi:end="0.15811304"
       sodipodi:open="true"
       d="m 75.264909,-176.43164 a 14.899749,14.899749 0 0 1 -17.060525,12.36672 14.899749,14.899749 0 0 1 -12.367018,-17.06031 14.899749,14.899749 0 0 1 17.060104,-12.36731 14.899749,14.899749 0 0 1 12.3676,17.05989" />
    <path
       style="fill:#008000;fill-opacity:1;stroke:none;stroke-width:2;stroke-linecap:round;stroke-linejoin:round;stroke-miterlimit:4;stroke-dasharray:none;stroke-opacity:1;marker-end:"
       id="path4275"
       sodipodi:type="arc"
       sodipodi:cx="380.55118"
       sodipodi:cy="-178.77869"
       sodipodi:rx="14.899749"
       sodipodi:ry="14.899749"
       sodipodi:start="0.15818128"
       sodipodi:end="0.15811304"
       sodipodi:open="true"
       d="m 395.26491,-176.43164 a 14.899749,14.899749 0 0 1 -17.06053,12.36672 14.899749,14.899749 0 0 1 -12.36701,-17.06031 14.899749,14.899749 0 0 1 17.0601,-12.36731 14.899749,14.899749 0 0 1 12.3676,17.05989" />
    <path
       d="m 235.26491,-26.431642 a 14.899749,14.899749 0 0 1 -17.06053,12.366727 14.899749,14.899749 0 0 1 -12.36701,-17.060314 14.899749,14.899749 0 0 1 17.0601,-12.367309 14.899749,14.899749 0 0 1 12.3676,17.059892"
       sodipodi:open="true"
       sodipodi:end="0.15811304"
       sodipodi:start="0.15818128"
       sodipodi:ry="14.899749"
       sodipodi:rx="14.899749"
       sodipodi:cy="-28.778687"
       sodipodi:cx="220.55118"
       sodipodi:type="arc"
       id="path4277"
       style="fill:#008000;fill-opacity:1;stroke:none;stroke-width:2;stroke-linecap:round;stroke-linejoin:round;stroke-miterlimit:4;stroke-dasharray:none;stroke-opacity:1;marker-end:" />
    <path
       d="m 315.26491,-26.431642 a 14.899749,14.899749 0 0 1 -17.06053,12.366727 14.899749,14.899749 0 0 1 -12.36701,-17.060314 14.899749,14.899749 0 0 1 17.0601,-12.367309 14.899749,14.899749 0 0 1 12.3676,17.059892"
       sodipodi:open="true"
       sodipodi:end="0.15811304"
       sodipodi:start="0.15818128"
       sodipodi:ry="14.899749"
       sodipodi:rx="14.899749"
       sodipodi:cy="-28.778687"
       sodipodi:cx="300.55118"
       sodipodi:type="arc"
       id="path4279"
       style="fill:#008000;fill-opacity:1;stroke:none;stroke-width:2;stroke-linecap:round;stroke-linejoin:round;stroke-miterlimit:4;stroke-dasharray:none;stroke-opacity:1;marker-end:" />
    <path
       style="fill:#008000;fill-opacity:1;stroke:none;stroke-width:2;stroke-linecap:round;stroke-linejoin:round;stroke-miterlimit:4;stroke-dasharray:none;stroke-opacity:1;marker-end:"
       id="path4281"
       sodipodi:type="arc"
       sodipodi:cx="340.55118"
       sodipodi:cy="-28.778687"
       sodipodi:rx="14.899749"
       sodipodi:ry="14.899749"
       sodipodi:start="0.15818128"
       sodipodi:end="0.15811304"
       sodipodi:open="true"
       d="m 355.26491,-26.431642 a 14.899749,14.899749 0 0 1 -17.06053,12.366727 14.899749,14.899749 0 0 1 -12.36701,-17.060314 14.899749,14.899749 0 0 1 17.0601,-12.367309 14.899749,14.899749 0 0 1 12.3676,17.059892" />
    <path
       style="fill:#008000;fill-opacity:1;stroke:none;stroke-width:2;stroke-linecap:round;stroke-linejoin:round;stroke-miterlimit:4;stroke-dasharray:none;stroke-opacity:1;marker-end:"
       id="path4283"
       sodipodi:type="arc"
       sodipodi:cx="180.55118"
       sodipodi:cy="-28.778687"
       sodipodi:rx="14.899749"
       sodipodi:ry="14.899749"
       sodipodi:start="0.15818128"
       sodipodi:end="0.15811304"
       sodipodi:open="true"
       d="m 195.26491,-26.431642 a 14.899749,14.899749 0 0 1 -17.06053,12.366727 14.899749,14.899749 0 0 1 -12.36701,-17.060314 14.899749,14.899749 0 0 1 17.0601,-12.367309 14.899749,14.899749 0 0 1 12.3676,17.059892" />
    <path
       d="m 155.26491,-26.431642 a 14.899749,14.899749 0 0 1 -17.06053,12.366727 14.899749,14.899749 0 0 1 -12.36701,-17.060314 14.899749,14.899749 0 0 1 17.0601,-12.367309 14.899749,14.899749 0 0 1 12.3676,17.059892"
       sodipodi:open="true"
       sodipodi:end="0.15811304"
       sodipodi:start="0.15818128"
       sodipodi:ry="14.899749"
       sodipodi:rx="14.899749"
       sodipodi:cy="-28.778687"
       sodipodi:cx="140.55118"
       sodipodi:type="arc"
       id="path4285"
       style="fill:#008000;fill-opacity:1;stroke:none;stroke-width:2;stroke-linecap:round;stroke-linejoin:round;stroke-miterlimit:4;stroke-dasharray:none;stroke-opacity:1;marker-end:" />
    <path
       style="fill:#008000;fill-opacity:1;stroke:none;stroke-width:2;stroke-linecap:round;stroke-linejoin:round;stroke-miterlimit:4;stroke-dasharray:none;stroke-opacity:1;marker-end:"
       id="path4287"
       sodipodi:type="arc"
       sodipodi:cx="100.55118"
       sodipodi:cy="-28.778687"
       sodipodi:rx="14.899749"
       sodipodi:ry="14.899749"
       sodipodi:start="0.15818128"
       sodipodi:end="0.15811304"
       sodipodi:open="true"
       d="m 115.26491,-26.431642 a 14.899749,14.899749 0 0 1 -17.060526,12.366727 14.899749,14.899749 0 0 1 -12.367018,-17.060314 14.899749,14.899749 0 0 1 17.060104,-12.367309 14.899749,14.899749 0 0 1 12.3676,17.059892" />
    <path
       d="M 75.264909,-26.431642 A 14.899749,14.899749 0 0 1 58.204384,-14.064915 14.899749,14.899749 0 0 1 45.837366,-31.125229 14.899749,14.899749 0 0 1 62.89747,-43.492538 14.899749,14.899749 0 0 1 75.26507,-26.432646"
       sodipodi:open="true"
       sodipodi:end="0.15811304"
       sodipodi:start="0.15818128"
       sodipodi:ry="14.899749"
       sodipodi:rx="14.899749"
       sodipodi:cy="-28.778687"
       sodipodi:cx="60.551178"
       sodipodi:type="arc"
       id="path4289"
       style="fill:#008000;fill-opacity:1;stroke:none;stroke-width:2;stroke-linecap:round;stroke-linejoin:round;stroke-miterlimit:4;stroke-dasharray:none;stroke-opacity:1;marker-end:" />
    <path
       d="m 395.26491,-26.431642 a 14.899749,14.899749 0 0 1 -17.06053,12.366727 14.899749,14.899749 0 0 1 -12.36701,-17.060314 14.899749,14.899749 0 0 1 17.0601,-12.367309 14.899749,14.899749 0 0 1 12.3676,17.059892"
       sodipodi:open="true"
       sodipodi:end="0.15811304"
       sodipodi:start="0.15818128"
       sodipodi:ry="14.899749"
       sodipodi:rx="14.899749"
       sodipodi:cy="-28.778687"
       sodipodi:cx="380.55118"
       sodipodi:type="arc"
       id="path4291"
       style="fill:#008000;fill-opacity:1;stroke:none;stroke-width:2;stroke-linecap:round;stroke-linejoin:round;stroke-miterlimit:4;stroke-dasharray:none;stroke-opacity:1;marker-end:" />
    <path
       style="fill:#008000;fill-opacity:1;stroke:none;stroke-width:2;stroke-linecap:round;stroke-linejoin:round;stroke-miterlimit:4;stroke-dasharray:none;stroke-opacity:1;marker-end:"
       id="path4293"
       sodipodi:type="arc"
       sodipodi:cx="260.55118"
       sodipodi:cy="-28.778687"
       sodipodi:rx="14.899749"
       sodipodi:ry="14.899749"
       sodipodi:start="0.15818128"
       sodipodi:end="0.15811304"
       sodipodi:open="true"
       d="m 275.26491,-26.431642 a 14.899749,14.899749 0 0 1 -17.06053,12.366727 14.899749,14.899749 0 0 1 -12.36701,-17.060314 14.899749,14.899749 0 0 1 17.0601,-12.367309 14.899749,14.899749 0 0 1 12.3676,17.059892" />
    <path
       style="fill:#0000ff;fill-rule:evenodd;stroke:#0000ff;stroke-width:1px;stroke-linecap:butt;stroke-linejoin:miter;stroke-opacity:1;marker-end:url(#marker4724)"
       d="m 200.58535,-48.35419 38.89088,0"
       id="path4462"
       inkscape:connector-curvature="0" />
    <path
       inkscape:connector-curvature="0"
       id="path4800"
       d="m 200.58535,-48.35419 -0.3788,-48.866129"
       style="fill:#0000ff;fill-rule:evenodd;stroke:#0000ff;stroke-width:1px;stroke-linecap:butt;stroke-linejoin:miter;stroke-opacity:1;marker-end:url(#marker4802)"
       sodipodi:nodetypes="cc" />
    <text
       sodipodi:linespacing="125%"
       id="text5070"
       y="-87.960434"
       x="203.04575"
       style="font-style:normal;font-weight:normal;font-size:20px;line-height:125%;font-family:sans-serif;letter-spacing:0px;word-spacing:0px;fill:#000000;fill-opacity:1;stroke:none;stroke-width:1px;stroke-linecap:butt;stroke-linejoin:miter;stroke-opacity:1"
       xml:space="preserve"><tspan
         style="font-size:10px"
         y="-87.960434"
         x="203.04575"
         id="tspan5072"
         sodipodi:role="line">a2</tspan></text>
    <path
       style="fill:#0000ff;fill-opacity:1;stroke:none;stroke-width:2;stroke-linecap:round;stroke-linejoin:round;stroke-miterlimit:4;stroke-dasharray:none;stroke-opacity:1"
       id="path4785"
       sodipodi:type="arc"
       sodipodi:cx="200.60066"
       sodipodi:cy="-48.726658"
       sodipodi:rx="1.767767"
       sodipodi:ry="1.767767"
       sodipodi:start="0.15818128"
       sodipodi:end="0.15811304"
       sodipodi:open="true"
       d="m 202.34636,-48.448195 a 1.767767,1.767767 0 0 1 -2.02413,1.467239 1.767767,1.767767 0 0 1 -1.46727,-2.024105 1.767767,1.767767 0 0 1 2.02408,-1.467308 1.767767,1.767767 0 0 1 1.46734,2.024055" />
  </g>
</svg>
