<?xml version="1.0" encoding="UTF-8" standalone="no"?>
<!-- Created with Inkscape (http://www.inkscape.org/) -->

<svg
   xmlns:dc="http://purl.org/dc/elements/1.1/"
   xmlns:cc="http://creativecommons.org/ns#"
   xmlns:rdf="http://www.w3.org/1999/02/22-rdf-syntax-ns#"
   xmlns:svg="http://www.w3.org/2000/svg"
   xmlns="http://www.w3.org/2000/svg"
   xmlns:sodipodi="http://sodipodi.sourceforge.net/DTD/sodipodi-0.dtd"
   xmlns:inkscape="http://www.inkscape.org/namespaces/inkscape"
   width="425.47543"
   height="420.32535"
   id="svg2"
   version="1.1"
   inkscape:version="0.48.0 r9654"
   sodipodi:docname="wp_2S22_01.svg">
  <defs
     id="defs4">
    <marker
       inkscape:stockid="Arrow1Mend"
       orient="auto"
       refY="0"
       refX="0"
       id="Arrow1Mend"
       style="overflow:visible">
      <path
         id="path3810"
         d="M 0,0 5,-5 -12.5,0 5,5 0,0 z"
         style="fill-rule:evenodd;stroke:#000000;stroke-width:1pt;marker-start:none"
         transform="matrix(-0.4,0,0,-0.4,-4,0)"
         inkscape:connector-curvature="0" />
    </marker>
    <marker
       inkscape:stockid="Arrow1Sstart"
       orient="auto"
       refY="0"
       refX="0"
       id="Arrow1Sstart"
       style="overflow:visible">
      <path
         id="path3812"
         d="M 0,0 5,-5 -12.5,0 5,5 0,0 z"
         style="fill-rule:evenodd;stroke:#000000;stroke-width:1pt;marker-start:none"
         transform="matrix(0.2,0,0,0.2,1.2,0)"
         inkscape:connector-curvature="0" />
    </marker>
    <marker
       inkscape:stockid="Arrow1Send"
       orient="auto"
       refY="0"
       refX="0"
       id="Arrow1Send"
       style="overflow:visible">
      <path
         id="path3815"
         d="M 0,0 5,-5 -12.5,0 5,5 0,0 z"
         style="fill-rule:evenodd;stroke:#000000;stroke-width:1pt;marker-start:none"
         transform="matrix(-0.2,0,0,-0.2,-1.2,0)"
         inkscape:connector-curvature="0" />
    </marker>
  </defs>
  <sodipodi:namedview
     id="base"
     pagecolor="#ffffff"
     bordercolor="#666666"
     borderopacity="1.0"
     inkscape:pageopacity="0.0"
     inkscape:pageshadow="2"
     inkscape:zoom="0.98994949"
     inkscape:cx="315.572"
     inkscape:cy="169.44603"
     inkscape:document-units="px"
     inkscape:current-layer="layer3"
     showgrid="false"
     fit-margin-left="0"
     fit-margin-top="0"
     fit-margin-right="0"
     fit-margin-bottom="0"
     inkscape:window-width="1562"
     inkscape:window-height="1134"
     inkscape:window-x="1998"
     inkscape:window-y="34"
     inkscape:window-maximized="0" />
  <metadata
     id="metadata7">
    <rdf:RDF>
      <cc:Work
         rdf:about="">
        <dc:format>image/svg+xml</dc:format>
        <dc:type
           rdf:resource="http://purl.org/dc/dcmitype/StillImage" />
        <dc:title></dc:title>
      </cc:Work>
    </rdf:RDF>
  </metadata>
  <g
     inkscape:label="Layer 1"
     inkscape:groupmode="layer"
     id="layer1"
     transform="translate(-133.899,-125.20431)"
     style="display:none">
    <rect
       style="opacity:0.5;color:#000000;fill:#0000ff;fill-opacity:0.48529412;stroke:#000000;stroke-width:0.3481465;stroke-linecap:round;stroke-linejoin:round;stroke-miterlimit:4;stroke-opacity:1;stroke-dasharray:none;stroke-dashoffset:0;marker:none;visibility:visible;display:inline;overflow:visible;enable-background:accumulate"
       id="rect3914"
       width="99.239937"
       height="293.12228"
       x="371.78995"
       y="125.3062" />
  </g>
  <g
     inkscape:groupmode="layer"
     id="layer2"
     inkscape:label="orbifold"
     transform="translate(-58.899017,148.94357)"
     style="display:inline">
    <g
       id="g3094"
       transform="matrix(0.6857783,0,0,0.88911962,108.05189,-3.1283371)">
      <g
         transform="matrix(1.4292751,0,0,1.4292751,-206.54258,-844.11899)"
         id="g6126"
         style="display:inline">
        <rect
           style="color:#000000;fill:#b2aaed;fill-opacity:0.48529412;stroke:none;stroke-width:2;marker:none;visibility:visible;display:inline;overflow:visible;enable-background:accumulate"
           id="rect6128"
           width="50"
           height="50"
           x="337.62967"
           y="582.50378" />
        <rect
           y="632.63263"
           x="337.62967"
           height="50"
           width="50"
           id="rect6130"
           style="color:#000000;fill:#b2aaed;fill-opacity:0.48529412;stroke:none;stroke-width:2;marker:none;visibility:visible;display:inline;overflow:visible;enable-background:accumulate" />
      </g>
      <path
         sodipodi:nodetypes="cccc"
         inkscape:connector-curvature="0"
         id="path5541"
         d="m 276.09296,-10.208961 71.4674,-0.360949 -0.7219,142.2129 -71.10645,0"
         style="color:#000000;fill:none;stroke:#000000;stroke-width:2.85855031;marker:none;visibility:visible;display:inline;overflow:visible;enable-background:accumulate" />
      <path
         style="color:#000000;fill:#ff0000;fill-opacity:1;stroke:#000000;stroke-width:1.42927516;stroke-linecap:square;stroke-linejoin:round;stroke-miterlimit:4;stroke-opacity:1;stroke-dasharray:none;stroke-dashoffset:0;marker:none;visibility:visible;display:inline;overflow:visible;enable-background:accumulate"
         d="m 281.24289,61.70121 -4.30819,-8.265837 -3.89876,7.856392 3.89879,7.583505 z"
         id="path4411-79-9-9-84-5"
         inkscape:connector-curvature="0"
         sodipodi:nodetypes="ccccc" />
    </g>
  </g>
  <g
     inkscape:groupmode="layer"
     id="layer3"
     inkscape:label="circles"
     style="display:inline">
    <path
       sodipodi:type="arc"
       style="opacity:0.5;color:#000000;fill:#ff0000;fill-opacity:0.48529412;stroke:#000000;stroke-width:0.60598999;stroke-linecap:round;stroke-linejoin:round;stroke-miterlimit:4;stroke-opacity:1;stroke-dasharray:none;stroke-dashoffset:0;marker:none;visibility:visible;display:inline;overflow:visible;enable-background:accumulate"
       id="path3889"
       sodipodi:cx="64.649765"
       sodipodi:cy="314.7644"
       sodipodi:rx="59.598999"
       sodipodi:ry="59.598999"
       d="m 124.24876,314.7644 a 59.598999,59.598999 0 1 1 -119.197994,0 59.598999,59.598999 0 1 1 119.197994,0 z"
       transform="matrix(0.83469675,0,0,0.83469675,233.50308,-175.83572)" />
    <path
       transform="matrix(0.83469675,0,0,0.83469675,232.99799,-75.830609)"
       d="m 124.24876,314.7644 a 59.598999,59.598999 0 1 1 -119.197994,0 59.598999,59.598999 0 1 1 119.197994,0 z"
       sodipodi:ry="59.598999"
       sodipodi:rx="59.598999"
       sodipodi:cy="314.7644"
       sodipodi:cx="64.649765"
       id="path3891"
       style="opacity:0.5;color:#000000;fill:#ff0000;fill-opacity:0.48529412;stroke:#000000;stroke-width:0.60598999;stroke-linecap:round;stroke-linejoin:round;stroke-miterlimit:4;stroke-opacity:1;stroke-dasharray:none;stroke-dashoffset:0;marker:none;visibility:visible;display:inline;overflow:visible;enable-background:accumulate"
       sodipodi:type="arc" />
    <path
       sodipodi:type="arc"
       style="opacity:0.5;color:#000000;fill:#0000ff;fill-opacity:0.48529412;stroke:#000000;stroke-width:0.60598999;stroke-linecap:round;stroke-linejoin:round;stroke-miterlimit:4;stroke-opacity:1;stroke-dasharray:none;stroke-dashoffset:0;marker:none;visibility:visible;display:inline;overflow:visible;enable-background:accumulate"
       id="path3893"
       sodipodi:cx="64.649765"
       sodipodi:cy="314.7644"
       sodipodi:rx="59.598999"
       sodipodi:ry="59.598999"
       d="m 124.24876,314.7644 a 59.598999,59.598999 0 1 1 -119.197994,0 59.598999,59.598999 0 1 1 119.197994,0 z"
       transform="matrix(0.53211918,0,0,0.53211918,188.47263,-30.902812)" />
    <path
       transform="matrix(0.53211918,0,0,0.53211918,125.08555,-31.155349)"
       d="m 124.24876,314.7644 a 59.598999,59.598999 0 1 1 -119.197994,0 59.598999,59.598999 0 1 1 119.197994,0 z"
       sodipodi:ry="59.598999"
       sodipodi:rx="59.598999"
       sodipodi:cy="314.7644"
       sodipodi:cx="64.649765"
       id="path3895"
       style="opacity:0.5;color:#000000;fill:#0000ff;fill-opacity:0.48529412;stroke:#000000;stroke-width:0.60598999;stroke-linecap:round;stroke-linejoin:round;stroke-miterlimit:4;stroke-opacity:1;stroke-dasharray:none;stroke-dashoffset:0;marker:none;visibility:visible;display:inline;overflow:visible;enable-background:accumulate"
       sodipodi:type="arc" />
    <path
       sodipodi:type="arc"
       style="opacity:0.5;color:#000000;fill:#ff0000;fill-opacity:0.48529412;stroke:#000000;stroke-width:0.60598999;stroke-linecap:round;stroke-linejoin:round;stroke-miterlimit:4;stroke-opacity:1;stroke-dasharray:none;stroke-dashoffset:0;marker:none;visibility:visible;display:inline;overflow:visible;enable-background:accumulate"
       id="path3897"
       sodipodi:cx="64.649765"
       sodipodi:cy="314.7644"
       sodipodi:rx="59.598999"
       sodipodi:ry="59.598999"
       d="m 124.24876,314.7644 a 59.598999,59.598999 0 1 1 -119.197994,0 59.598999,59.598999 0 1 1 119.197994,0 z"
       transform="matrix(0.83469675,0,0,0.83469675,137.28604,-201.59461)" />
    <path
       transform="matrix(0.83469675,0,0,0.83469675,136.52843,-51.081874)"
       d="m 124.24876,314.7644 a 59.598999,59.598999 0 1 1 -119.197994,0 59.598999,59.598999 0 1 1 119.197994,0 z"
       sodipodi:ry="59.598999"
       sodipodi:rx="59.598999"
       sodipodi:cy="314.7644"
       sodipodi:cx="64.649765"
       id="path3899"
       style="opacity:0.5;color:#000000;fill:#ff0000;fill-opacity:0.48529412;stroke:#000000;stroke-width:0.60598999;stroke-linecap:round;stroke-linejoin:round;stroke-miterlimit:4;stroke-opacity:1;stroke-dasharray:none;stroke-dashoffset:0;marker:none;visibility:visible;display:inline;overflow:visible;enable-background:accumulate"
       sodipodi:type="arc" />
    <path
       transform="matrix(0.53211918,0,0,0.53211918,284.18458,94.608642)"
       d="m 124.24876,314.7644 a 59.598999,59.598999 0 1 1 -119.197994,0 59.598999,59.598999 0 1 1 119.197994,0 z"
       sodipodi:ry="59.598999"
       sodipodi:rx="59.598999"
       sodipodi:cy="314.7644"
       sodipodi:cx="64.649765"
       id="path3901"
       style="opacity:0.5;color:#000000;fill:#0000ff;fill-opacity:0.48529412;stroke:#000000;stroke-width:0.60598999;stroke-linecap:round;stroke-linejoin:round;stroke-miterlimit:4;stroke-opacity:1;stroke-dasharray:none;stroke-dashoffset:0;marker:none;visibility:visible;display:inline;overflow:visible;enable-background:accumulate"
       sodipodi:type="arc" />
    <path
       sodipodi:type="arc"
       style="opacity:0.5;color:#000000;fill:#0000ff;fill-opacity:0.48529412;stroke:#000000;stroke-width:0.60598999;stroke-linecap:round;stroke-linejoin:round;stroke-miterlimit:4;stroke-opacity:1;stroke-dasharray:none;stroke-dashoffset:0;marker:none;visibility:visible;display:inline;overflow:visible;enable-background:accumulate"
       id="path3903"
       sodipodi:cx="64.649765"
       sodipodi:cy="314.7644"
       sodipodi:rx="59.598999"
       sodipodi:ry="59.598999"
       d="m 124.24876,314.7644 a 59.598999,59.598999 0 1 1 -119.197994,0 59.598999,59.598999 0 1 1 119.197994,0 z"
       transform="matrix(0.53211918,0,0,0.53211918,220.29243,94.356104)" />
    <path
       sodipodi:type="arc"
       style="opacity:0.5;color:#000000;fill:#0000ff;fill-opacity:0.48529412;stroke:#000000;stroke-width:0.60598999;stroke-linecap:round;stroke-linejoin:round;stroke-miterlimit:4;stroke-opacity:1;stroke-dasharray:none;stroke-dashoffset:0;marker:none;visibility:visible;display:inline;overflow:visible;enable-background:accumulate"
       id="path3916"
       sodipodi:cx="64.649765"
       sodipodi:cy="314.7644"
       sodipodi:rx="59.598999"
       sodipodi:ry="59.598999"
       d="m 124.24876,314.7644 a 59.598999,59.598999 0 1 1 -119.197994,0 59.598999,59.598999 0 1 1 119.197994,0 z"
       transform="matrix(0.53211918,0,0,0.53211918,380.90669,-30.145197)" />
    <path
       transform="matrix(0.53211918,0,0,0.53211918,317.01454,-30.397735)"
       d="m 124.24876,314.7644 a 59.598999,59.598999 0 1 1 -119.197994,0 59.598999,59.598999 0 1 1 119.197994,0 z"
       sodipodi:ry="59.598999"
       sodipodi:rx="59.598999"
       sodipodi:cy="314.7644"
       sodipodi:cx="64.649765"
       id="path3918"
       style="opacity:0.5;color:#000000;fill:#0000ff;fill-opacity:0.48529412;stroke:#000000;stroke-width:0.60598999;stroke-linecap:round;stroke-linejoin:round;stroke-miterlimit:4;stroke-opacity:1;stroke-dasharray:none;stroke-dashoffset:0;marker:none;visibility:visible;display:inline;overflow:visible;enable-background:accumulate"
       sodipodi:type="arc" />
    <path
       transform="matrix(0.83469675,0,0,0.83469675,329.21503,-50.324266)"
       d="m 124.24876,314.7644 a 59.598999,59.598999 0 1 1 -119.197994,0 59.598999,59.598999 0 1 1 119.197994,0 z"
       sodipodi:ry="59.598999"
       sodipodi:rx="59.598999"
       sodipodi:cy="314.7644"
       sodipodi:cx="64.649765"
       id="path3920"
       style="opacity:0.5;color:#000000;fill:#ff0000;fill-opacity:0.48529412;stroke:#000000;stroke-width:0.60598999;stroke-linecap:round;stroke-linejoin:round;stroke-miterlimit:4;stroke-opacity:1;stroke-dasharray:none;stroke-dashoffset:0;marker:none;visibility:visible;display:inline;overflow:visible;enable-background:accumulate"
       sodipodi:type="arc" />
    <path
       sodipodi:type="arc"
       style="opacity:0.5;color:#000000;fill:#ff0000;fill-opacity:0.48529412;stroke:#000000;stroke-width:0.60598999;stroke-linecap:round;stroke-linejoin:round;stroke-miterlimit:4;stroke-opacity:1;stroke-dasharray:none;stroke-dashoffset:0;marker:none;visibility:visible;display:inline;overflow:visible;enable-background:accumulate"
       id="path3922"
       sodipodi:cx="64.649765"
       sodipodi:cy="314.7644"
       sodipodi:rx="59.598999"
       sodipodi:ry="59.598999"
       d="m 124.24876,314.7644 a 59.598999,59.598999 0 1 1 -119.197994,0 59.598999,59.598999 0 1 1 119.197994,0 z"
       transform="matrix(0.83469675,0,0,0.83469675,328.70994,49.680845)" />
    <path
       sodipodi:type="arc"
       style="opacity:0.5;color:#000000;fill:#ff0000;fill-opacity:0.48529412;stroke:#000000;stroke-width:0.60598999;stroke-linecap:round;stroke-linejoin:round;stroke-miterlimit:4;stroke-opacity:1;stroke-dasharray:none;stroke-dashoffset:0;marker:none;visibility:visible;display:inline;overflow:visible;enable-background:accumulate"
       id="path3924"
       sodipodi:cx="64.649765"
       sodipodi:cy="314.7644"
       sodipodi:rx="59.598999"
       sodipodi:ry="59.598999"
       d="m 124.24876,314.7644 a 59.598999,59.598999 0 1 1 -119.197994,0 59.598999,59.598999 0 1 1 119.197994,0 z"
       transform="matrix(0.83469675,0,0,0.83469675,40.816478,-178.61364)" />
    <path
       transform="matrix(0.83469675,0,0,0.83469675,40.05885,-77.850914)"
       d="m 124.24876,314.7644 a 59.598999,59.598999 0 1 1 -119.197994,0 59.598999,59.598999 0 1 1 119.197994,0 z"
       sodipodi:ry="59.598999"
       sodipodi:rx="59.598999"
       sodipodi:cy="314.7644"
       sodipodi:cx="64.649765"
       id="path3926"
       style="opacity:0.5;color:#000000;fill:#ff0000;fill-opacity:0.48529412;stroke:#000000;stroke-width:0.60598999;stroke-linecap:round;stroke-linejoin:round;stroke-miterlimit:4;stroke-opacity:1;stroke-dasharray:none;stroke-dashoffset:0;marker:none;visibility:visible;display:inline;overflow:visible;enable-background:accumulate"
       sodipodi:type="arc" />
    <path
       transform="matrix(0.53211918,0,0,0.53211918,90.172161,92.651471)"
       d="m 124.24876,314.7644 a 59.598999,59.598999 0 1 1 -119.197994,0 59.598999,59.598999 0 1 1 119.197994,0 z"
       sodipodi:ry="59.598999"
       sodipodi:rx="59.598999"
       sodipodi:cy="314.7644"
       sodipodi:cx="64.649765"
       id="path3928"
       style="opacity:0.5;color:#000000;fill:#0000ff;fill-opacity:0.48529412;stroke:#000000;stroke-width:0.60598999;stroke-linecap:round;stroke-linejoin:round;stroke-miterlimit:4;stroke-opacity:1;stroke-dasharray:none;stroke-dashoffset:0;marker:none;visibility:visible;display:inline;overflow:visible;enable-background:accumulate"
       sodipodi:type="arc" />
    <path
       sodipodi:type="arc"
       style="opacity:0.5;color:#000000;fill:#0000ff;fill-opacity:0.48529412;stroke:#000000;stroke-width:0.60598999;stroke-linecap:round;stroke-linejoin:round;stroke-miterlimit:4;stroke-opacity:1;stroke-dasharray:none;stroke-dashoffset:0;marker:none;visibility:visible;display:inline;overflow:visible;enable-background:accumulate"
       id="path3930"
       sodipodi:cx="64.649765"
       sodipodi:cy="314.7644"
       sodipodi:rx="59.598999"
       sodipodi:ry="59.598999"
       d="m 124.24876,314.7644 a 59.598999,59.598999 0 1 1 -119.197994,0 59.598999,59.598999 0 1 1 119.197994,0 z"
       transform="matrix(0.53211918,0,0,0.53211918,26.785081,92.398934)" />
    <path
       sodipodi:type="arc"
       style="opacity:0.5;color:#000000;fill:#ff0000;fill-opacity:0.48529412;stroke:#000000;stroke-width:0.60598999;stroke-linecap:round;stroke-linejoin:round;stroke-miterlimit:4;stroke-opacity:1;stroke-dasharray:none;stroke-dashoffset:0;marker:none;visibility:visible;display:inline;overflow:visible;enable-background:accumulate"
       id="path3932"
       sodipodi:cx="64.649765"
       sodipodi:cy="314.7644"
       sodipodi:rx="59.598999"
       sodipodi:ry="59.598999"
       d="m 124.24876,314.7644 a 59.598999,59.598999 0 1 1 -119.197994,0 59.598999,59.598999 0 1 1 119.197994,0 z"
       transform="matrix(0.83469675,0,0,0.83469675,231.98785,74.429573)" />
    <path
       transform="matrix(0.83469675,0,0,0.83469675,231.48276,174.43468)"
       d="m 124.24876,314.7644 a 59.598999,59.598999 0 1 1 -119.197994,0 59.598999,59.598999 0 1 1 119.197994,0 z"
       sodipodi:ry="59.598999"
       sodipodi:rx="59.598999"
       sodipodi:cy="314.7644"
       sodipodi:cx="64.649765"
       id="path3934"
       style="opacity:0.5;color:#000000;fill:#ff0000;fill-opacity:0.48529412;stroke:#000000;stroke-width:0.60598999;stroke-linecap:round;stroke-linejoin:round;stroke-miterlimit:4;stroke-opacity:1;stroke-dasharray:none;stroke-dashoffset:0;marker:none;visibility:visible;display:inline;overflow:visible;enable-background:accumulate"
       sodipodi:type="arc" />
    <path
       sodipodi:type="arc"
       style="opacity:0.5;color:#000000;fill:#ff0000;fill-opacity:0.48529412;stroke:#000000;stroke-width:0.60598999;stroke-linecap:round;stroke-linejoin:round;stroke-miterlimit:4;stroke-opacity:1;stroke-dasharray:none;stroke-dashoffset:0;marker:none;visibility:visible;display:inline;overflow:visible;enable-background:accumulate"
       id="path3940"
       sodipodi:cx="64.649765"
       sodipodi:cy="314.7644"
       sodipodi:rx="59.598999"
       sodipodi:ry="59.598999"
       d="m 124.24876,314.7644 a 59.598999,59.598999 0 1 1 -119.197994,0 59.598999,59.598999 0 1 1 119.197994,0 z"
       transform="matrix(0.83469675,0,0,0.83469675,135.51826,48.41815)" />
    <path
       transform="matrix(0.83469675,0,0,0.83469675,38.710886,72.703864)"
       d="m 124.24876,314.7644 a 59.598999,59.598999 0 1 1 -119.197994,0 59.598999,59.598999 0 1 1 119.197994,0 z"
       sodipodi:ry="59.598999"
       sodipodi:rx="59.598999"
       sodipodi:cy="314.7644"
       sodipodi:cx="64.649765"
       id="path3942"
       style="opacity:0.5;color:#000000;fill:#ff0000;fill-opacity:0.48529412;stroke:#000000;stroke-width:0.60598999;stroke-linecap:round;stroke-linejoin:round;stroke-miterlimit:4;stroke-opacity:1;stroke-dasharray:none;stroke-dashoffset:0;marker:none;visibility:visible;display:inline;overflow:visible;enable-background:accumulate"
       sodipodi:type="arc" />
    <path
       sodipodi:type="arc"
       style="opacity:0.5;color:#000000;fill:#0000ff;fill-opacity:0.48529412;stroke:#000000;stroke-width:0.60598999;stroke-linecap:round;stroke-linejoin:round;stroke-miterlimit:4;stroke-opacity:1;stroke-dasharray:none;stroke-dashoffset:0;marker:none;visibility:visible;display:inline;overflow:visible;enable-background:accumulate"
       id="path3944"
       sodipodi:cx="64.649765"
       sodipodi:cy="314.7644"
       sodipodi:rx="59.598999"
       sodipodi:ry="59.598999"
       d="m 124.24876,314.7644 a 59.598999,59.598999 0 1 1 -119.197994,0 59.598999,59.598999 0 1 1 119.197994,0 z"
       transform="matrix(0.53211918,0,0,0.53211918,185.61315,218.89436)" />
    <path
       transform="matrix(0.53211918,0,0,0.53211918,122.09981,218.51555)"
       d="m 124.24876,314.7644 a 59.598999,59.598999 0 1 1 -119.197994,0 59.598999,59.598999 0 1 1 119.197994,0 z"
       sodipodi:ry="59.598999"
       sodipodi:rx="59.598999"
       sodipodi:cy="314.7644"
       sodipodi:cx="64.649765"
       id="path3946"
       style="opacity:0.5;color:#000000;fill:#0000ff;fill-opacity:0.48529412;stroke:#000000;stroke-width:0.60598999;stroke-linecap:round;stroke-linejoin:round;stroke-miterlimit:4;stroke-opacity:1;stroke-dasharray:none;stroke-dashoffset:0;marker:none;visibility:visible;display:inline;overflow:visible;enable-background:accumulate"
       sodipodi:type="arc" />
    <path
       transform="matrix(0.53211918,0,0,0.53211918,379.18458,221.03722)"
       d="m 124.24876,314.7644 a 59.598999,59.598999 0 1 1 -119.197994,0 59.598999,59.598999 0 1 1 119.197994,0 z"
       sodipodi:ry="59.598999"
       sodipodi:rx="59.598999"
       sodipodi:cy="314.7644"
       sodipodi:cx="64.649765"
       id="path3948"
       style="opacity:0.5;color:#000000;fill:#0000ff;fill-opacity:0.48529412;stroke:#000000;stroke-width:0.60598999;stroke-linecap:round;stroke-linejoin:round;stroke-miterlimit:4;stroke-opacity:1;stroke-dasharray:none;stroke-dashoffset:0;marker:none;visibility:visible;display:inline;overflow:visible;enable-background:accumulate"
       sodipodi:type="arc" />
    <path
       sodipodi:type="arc"
       style="opacity:0.5;color:#000000;fill:#0000ff;fill-opacity:0.48529412;stroke:#000000;stroke-width:0.60598999;stroke-linecap:round;stroke-linejoin:round;stroke-miterlimit:4;stroke-opacity:1;stroke-dasharray:none;stroke-dashoffset:0;marker:none;visibility:visible;display:inline;overflow:visible;enable-background:accumulate"
       id="path3950"
       sodipodi:cx="64.649765"
       sodipodi:cy="314.7644"
       sodipodi:rx="59.598999"
       sodipodi:ry="59.598999"
       d="m 124.24876,314.7644 a 59.598999,59.598999 0 1 1 -119.197994,0 59.598999,59.598999 0 1 1 119.197994,0 z"
       transform="matrix(0.53211918,0,0,0.53211918,315.29243,220.78468)" />
    <path
       transform="matrix(0.83469675,0,0,0.83469675,330.64594,-200.83572)"
       d="m 124.24876,314.7644 a 59.598999,59.598999 0 1 1 -119.197994,0 59.598999,59.598999 0 1 1 119.197994,0 z"
       sodipodi:ry="59.598999"
       sodipodi:rx="59.598999"
       sodipodi:cy="314.7644"
       sodipodi:cx="64.649765"
       id="path3952"
       style="opacity:0.5;color:#000000;fill:#ff0000;fill-opacity:0.48529412;stroke:#000000;stroke-width:0.60598999;stroke-linecap:round;stroke-linejoin:round;stroke-miterlimit:4;stroke-opacity:1;stroke-dasharray:none;stroke-dashoffset:0;marker:none;visibility:visible;display:inline;overflow:visible;enable-background:accumulate"
       sodipodi:type="arc" />
    <path
       transform="matrix(0.53211918,0,0,0.53211918,285.90669,-155.85948)"
       d="m 124.24876,314.7644 a 59.598999,59.598999 0 1 1 -119.197994,0 59.598999,59.598999 0 1 1 119.197994,0 z"
       sodipodi:ry="59.598999"
       sodipodi:rx="59.598999"
       sodipodi:cy="314.7644"
       sodipodi:cx="64.649765"
       id="path3954"
       style="opacity:0.5;color:#000000;fill:#0000ff;fill-opacity:0.48529412;stroke:#000000;stroke-width:0.60598999;stroke-linecap:round;stroke-linejoin:round;stroke-miterlimit:4;stroke-opacity:1;stroke-dasharray:none;stroke-dashoffset:0;marker:none;visibility:visible;display:inline;overflow:visible;enable-background:accumulate"
       sodipodi:type="arc" />
    <path
       sodipodi:type="arc"
       style="opacity:0.5;color:#000000;fill:#0000ff;fill-opacity:0.48529412;stroke:#000000;stroke-width:0.60598999;stroke-linecap:round;stroke-linejoin:round;stroke-miterlimit:4;stroke-opacity:1;stroke-dasharray:none;stroke-dashoffset:0;marker:none;visibility:visible;display:inline;overflow:visible;enable-background:accumulate"
       id="path3956"
       sodipodi:cx="64.649765"
       sodipodi:cy="314.7644"
       sodipodi:rx="59.598999"
       sodipodi:ry="59.598999"
       d="m 124.24876,314.7644 a 59.598999,59.598999 0 1 1 -119.197994,0 59.598999,59.598999 0 1 1 119.197994,0 z"
       transform="matrix(0.53211918,0,0,0.53211918,222.01454,-156.11202)" />
    <path
       sodipodi:type="arc"
       style="opacity:0.5;color:#000000;fill:#0000ff;fill-opacity:0.48529412;stroke:#000000;stroke-width:0.60598999;stroke-linecap:round;stroke-linejoin:round;stroke-miterlimit:4;stroke-opacity:1;stroke-dasharray:none;stroke-dashoffset:0;marker:none;visibility:visible;display:inline;overflow:visible;enable-background:accumulate"
       id="path3958"
       sodipodi:cx="64.649765"
       sodipodi:cy="314.7644"
       sodipodi:rx="59.598999"
       sodipodi:ry="59.598999"
       d="m 124.24876,314.7644 a 59.598999,59.598999 0 1 1 -119.197994,0 59.598999,59.598999 0 1 1 119.197994,0 z"
       transform="matrix(0.53211918,0,0,0.53211918,91.620976,-158.71662)" />
    <path
       transform="matrix(0.53211918,0,0,0.53211918,27.728826,-158.96916)"
       d="m 124.24876,314.7644 a 59.598999,59.598999 0 1 1 -119.197994,0 59.598999,59.598999 0 1 1 119.197994,0 z"
       sodipodi:ry="59.598999"
       sodipodi:rx="59.598999"
       sodipodi:cy="314.7644"
       sodipodi:cx="64.649765"
       id="path3960"
       style="opacity:0.5;color:#000000;fill:#0000ff;fill-opacity:0.48529412;stroke:#000000;stroke-width:0.60598999;stroke-linecap:round;stroke-linejoin:round;stroke-miterlimit:4;stroke-opacity:1;stroke-dasharray:none;stroke-dashoffset:0;marker:none;visibility:visible;display:inline;overflow:visible;enable-background:accumulate"
       sodipodi:type="arc" />
    <path
       sodipodi:type="arc"
       style="opacity:0.5;color:#000000;fill:#ff0000;fill-opacity:0.48529412;stroke:#000000;stroke-width:0.60598999;stroke-linecap:round;stroke-linejoin:round;stroke-miterlimit:4;stroke-opacity:1;stroke-dasharray:none;stroke-dashoffset:0;marker:none;visibility:visible;display:inline;overflow:visible;enable-background:accumulate"
       id="path3962"
       sodipodi:cx="64.649765"
       sodipodi:cy="314.7644"
       sodipodi:rx="59.598999"
       sodipodi:ry="59.598999"
       d="m 124.24876,314.7644 a 59.598999,59.598999 0 1 1 -119.197994,0 59.598999,59.598999 0 1 1 119.197994,0 z"
       transform="matrix(0.83469675,0,0,0.83469675,37.661122,172.41171)" />
    <path
       sodipodi:type="arc"
       style="opacity:0.5;color:#000000;fill:#ff0000;fill-opacity:0.48529412;stroke:#000000;stroke-width:0.60598999;stroke-linecap:round;stroke-linejoin:round;stroke-miterlimit:4;stroke-opacity:1;stroke-dasharray:none;stroke-dashoffset:0;marker:none;visibility:visible;display:inline;overflow:visible;enable-background:accumulate"
       id="path3964"
       sodipodi:cx="64.649765"
       sodipodi:cy="314.7644"
       sodipodi:rx="59.598999"
       sodipodi:ry="59.598999"
       d="m 124.24876,314.7644 a 59.598999,59.598999 0 1 1 -119.197994,0 59.598999,59.598999 0 1 1 119.197994,0 z"
       transform="matrix(0.83469675,0,0,0.83469675,-57.843954,47.242116)" />
    <path
       sodipodi:type="arc"
       style="opacity:0.5;color:#000000;fill:#ff0000;fill-opacity:0.48529412;stroke:#000000;stroke-width:0.60598999;stroke-linecap:round;stroke-linejoin:round;stroke-miterlimit:4;stroke-opacity:1;stroke-dasharray:none;stroke-dashoffset:0;marker:none;visibility:visible;display:inline;overflow:visible;enable-background:accumulate"
       id="path3966"
       sodipodi:cx="64.649765"
       sodipodi:cy="314.7644"
       sodipodi:rx="59.598999"
       sodipodi:ry="59.598999"
       d="m 124.24876,314.7644 a 59.598999,59.598999 0 1 1 -119.197994,0 59.598999,59.598999 0 1 1 119.197994,0 z"
       transform="matrix(0.83469675,0,0,0.83469675,-56.369721,-52.9809)" />
    <path
       transform="matrix(0.53211918,0,0,0.53211918,-4.0933097,-32.288049)"
       d="m 124.24876,314.7644 a 59.598999,59.598999 0 1 1 -119.197994,0 59.598999,59.598999 0 1 1 119.197994,0 z"
       sodipodi:ry="59.598999"
       sodipodi:rx="59.598999"
       sodipodi:cy="314.7644"
       sodipodi:cx="64.649765"
       id="path3968"
       style="opacity:0.5;color:#000000;fill:#0000ff;fill-opacity:0.48529412;stroke:#000000;stroke-width:0.60598999;stroke-linecap:round;stroke-linejoin:round;stroke-miterlimit:4;stroke-opacity:1;stroke-dasharray:none;stroke-dashoffset:0;marker:none;visibility:visible;display:inline;overflow:visible;enable-background:accumulate"
       sodipodi:type="arc" />
    <path
       sodipodi:type="arc"
       style="opacity:0.5;color:#000000;fill:#0000ff;fill-opacity:0.48529412;stroke:#000000;stroke-width:0.60598999;stroke-linecap:round;stroke-linejoin:round;stroke-miterlimit:4;stroke-opacity:1;stroke-dasharray:none;stroke-dashoffset:0;marker:none;visibility:visible;display:inline;overflow:visible;enable-background:accumulate"
       id="path3970"
       sodipodi:cx="64.649765"
       sodipodi:cy="314.7644"
       sodipodi:rx="59.598999"
       sodipodi:ry="59.598999"
       d="m 124.24876,314.7644 a 59.598999,59.598999 0 1 1 -119.197994,0 59.598999,59.598999 0 1 1 119.197994,0 z"
       transform="matrix(0.53211918,0,0,0.53211918,-67.98546,-32.540589)" />
    <path
       transform="matrix(0.83469675,0,0,0.83469675,-54.183522,-202.89935)"
       d="m 124.24876,314.7644 a 59.598999,59.598999 0 1 1 -119.197994,0 59.598999,59.598999 0 1 1 119.197994,0 z"
       sodipodi:ry="59.598999"
       sodipodi:rx="59.598999"
       sodipodi:cy="314.7644"
       sodipodi:cx="64.649765"
       id="path3972"
       style="opacity:0.5;color:#000000;fill:#ff0000;fill-opacity:0.48529412;stroke:#000000;stroke-width:0.60598999;stroke-linecap:round;stroke-linejoin:round;stroke-miterlimit:4;stroke-opacity:1;stroke-dasharray:none;stroke-dashoffset:0;marker:none;visibility:visible;display:inline;overflow:visible;enable-background:accumulate"
       sodipodi:type="arc" />
    <path
       transform="matrix(0.53211918,0,0,0.53211918,-7.9582786,218.18007)"
       d="m 124.24876,314.7644 a 59.598999,59.598999 0 1 1 -119.197994,0 59.598999,59.598999 0 1 1 119.197994,0 z"
       sodipodi:ry="59.598999"
       sodipodi:rx="59.598999"
       sodipodi:cy="314.7644"
       sodipodi:cx="64.649765"
       id="path3974"
       style="opacity:0.5;color:#000000;fill:#0000ff;fill-opacity:0.48529412;stroke:#000000;stroke-width:0.60598999;stroke-linecap:round;stroke-linejoin:round;stroke-miterlimit:4;stroke-opacity:1;stroke-dasharray:none;stroke-dashoffset:0;marker:none;visibility:visible;display:inline;overflow:visible;enable-background:accumulate"
       sodipodi:type="arc" />
    <path
       sodipodi:type="arc"
       style="opacity:0.5;color:#000000;fill:#0000ff;fill-opacity:0.48529412;stroke:#000000;stroke-width:0.60598999;stroke-linecap:round;stroke-linejoin:round;stroke-miterlimit:4;stroke-opacity:1;stroke-dasharray:none;stroke-dashoffset:0;marker:none;visibility:visible;display:inline;overflow:visible;enable-background:accumulate"
       id="path3976"
       sodipodi:cx="64.649765"
       sodipodi:cy="314.7644"
       sodipodi:rx="59.598999"
       sodipodi:ry="59.598999"
       d="m 124.24876,314.7644 a 59.598999,59.598999 0 1 1 -119.197994,0 59.598999,59.598999 0 1 1 119.197994,0 z"
       transform="matrix(0.53211918,0,0,0.53211918,-71.850429,217.92753)" />
  </g>
</svg>
