<?xml version="1.0" encoding="UTF-8" standalone="no"?>
<!-- Created with Inkscape (http://www.inkscape.org/) -->

<svg
   xmlns:dc="http://purl.org/dc/elements/1.1/"
   xmlns:cc="http://creativecommons.org/ns#"
   xmlns:rdf="http://www.w3.org/1999/02/22-rdf-syntax-ns#"
   xmlns:svg="http://www.w3.org/2000/svg"
   xmlns="http://www.w3.org/2000/svg"
   xmlns:xlink="http://www.w3.org/1999/xlink"
   xmlns:sodipodi="http://sodipodi.sourceforge.net/DTD/sodipodi-0.dtd"
   xmlns:inkscape="http://www.inkscape.org/namespaces/inkscape"
   width="500"
   height="100"
   id="svg2"
   version="1.1"
   inkscape:version="0.48.0 r9654"
   sodipodi:docname="circles.svg"
   inkscape:export-filename="D:\home\00_shapeways\projects\abfab3d\code\trunk\docs\images\circles.png"
   inkscape:export-xdpi="600.29999"
   inkscape:export-ydpi="600.29999">
  <defs
     id="defs4">
    <linearGradient
       id="linearGradient3791">
      <stop
         style="stop-color:#000000;stop-opacity:1;"
         offset="0"
         id="stop3793" />
      <stop
         style="stop-color:#f6f6f6;stop-opacity:0.99130434;"
         offset="1"
         id="stop3795" />
    </linearGradient>
    <linearGradient
       id="linearGradient3783">
      <stop
         style="stop-color:#000000;stop-opacity:1;"
         offset="0"
         id="stop3785" />
      <stop
         style="stop-color:#ffffff;stop-opacity:1;"
         offset="1"
         id="stop3787" />
    </linearGradient>
    <linearGradient
       id="linearGradient3759">
      <stop
         style="stop-color:#0803f9;stop-opacity:1;"
         offset="0"
         id="stop3761" />
      <stop
         style="stop-color:#193ac5;stop-opacity:0;"
         offset="1"
         id="stop3763" />
    </linearGradient>
    <linearGradient
       inkscape:collect="always"
       xlink:href="#linearGradient3791"
       id="linearGradient3797"
       x1="85.306732"
       y1="324.86716"
       x2="667.66614"
       y2="324.86716"
       gradientUnits="userSpaceOnUse" />
  </defs>
  <sodipodi:namedview
     id="base"
     pagecolor="#ffffff"
     bordercolor="#666666"
     borderopacity="1.0"
     inkscape:pageopacity="1"
     inkscape:pageshadow="2"
     inkscape:zoom="2.8284271"
     inkscape:cx="242.16416"
     inkscape:cy="73.132974"
     inkscape:document-units="px"
     inkscape:current-layer="layer1"
     showgrid="false"
     inkscape:window-width="1671"
     inkscape:window-height="1035"
     inkscape:window-x="122"
     inkscape:window-y="34"
     inkscape:window-maximized="0"
     fit-margin-left="0"
     fit-margin-top="0"
     fit-margin-right="0"
     fit-margin-bottom="0" />
  <metadata
     id="metadata7">
    <rdf:RDF>
      <cc:Work
         rdf:about="">
        <dc:format>image/svg+xml</dc:format>
        <dc:type
           rdf:resource="http://purl.org/dc/dcmitype/StillImage" />
        <dc:title />
      </cc:Work>
    </rdf:RDF>
  </metadata>
  <g
     inkscape:groupmode="layer"
     id="layer2"
     inkscape:label="background"
     style="display:none"
     transform="translate(0,-900)">
    <rect
       transform="translate(13,483.5)"
       y="16.999023"
       x="487.49899"
       height="499.00198"
       width="499.00201"
       id="rect3767"
       style="color:#000000;fill:none;stroke:#000000;stroke-width:0.99800402;stroke-linecap:square;stroke-linejoin:round;stroke-miterlimit:4;stroke-opacity:1;stroke-dasharray:none;stroke-dashoffset:0;marker:none;visibility:visible;display:inline;overflow:visible;enable-background:accumulate" />
    <rect
       transform="translate(13,483.5)"
       y="-483.00098"
       x="-12.500998"
       height="499.00198"
       width="499.00201"
       id="rect3765"
       style="color:#000000;fill:none;stroke:#000000;stroke-width:0.99800402;stroke-linecap:square;stroke-linejoin:round;stroke-miterlimit:4;stroke-opacity:1;stroke-dasharray:none;stroke-dashoffset:0;marker:none;visibility:visible;display:inline;overflow:visible;enable-background:accumulate" />
    <rect
       transform="translate(13,483.5)"
       style="color:#000000;fill:none;stroke:#000000;stroke-width:0.99800402;stroke-linecap:square;stroke-linejoin:round;stroke-miterlimit:4;stroke-opacity:1;stroke-dasharray:none;stroke-dashoffset:0;marker:none;visibility:visible;display:inline;overflow:visible;enable-background:accumulate"
       id="rect2995"
       width="499.00201"
       height="499.00198"
       x="487.49902"
       y="-483.00098" />
    <rect
       transform="translate(13,483.5)"
       style="color:#000000;fill:none;stroke:#000000;stroke-width:0.99800402;stroke-linecap:square;stroke-linejoin:round;stroke-miterlimit:4;stroke-opacity:1;stroke-dasharray:none;stroke-dashoffset:0;marker:none;visibility:visible;display:inline;overflow:visible;enable-background:accumulate"
       id="rect3769"
       width="499.00201"
       height="499.00198"
       x="-12.500998"
       y="16.999023" />
    <path
       style="color:#000000;fill:none;stroke:#000000;stroke-width:1;stroke-linecap:square;stroke-linejoin:round;stroke-miterlimit:4;stroke-opacity:1;stroke-dasharray:none;stroke-dashoffset:0;marker:none;visibility:visible;display:inline;overflow:visible;enable-background:accumulate"
       d="M 0,500 500,1.0000042 1000,499"
       id="path3778"
       inkscape:connector-curvature="0" />
    <path
       sodipodi:type="star"
       style="color:#000000;fill:none;stroke:#000000;stroke-width:1;stroke-linecap:square;stroke-linejoin:round;stroke-miterlimit:4;stroke-opacity:1;stroke-dasharray:none;stroke-dashoffset:0;marker:none;visibility:visible;display:inline;overflow:visible;enable-background:accumulate"
       id="path3780"
       sodipodi:sides="3"
       sodipodi:cx="499.21738"
       sodipodi:cy="500.78262"
       sodipodi:r1="417.43262"
       sodipodi:r2="208.71631"
       sodipodi:arg1="-1.5707963"
       sodipodi:arg2="-0.52359878"
       inkscape:flatsided="true"
       inkscape:rounded="0"
       inkscape:randomized="0"
       d="m 499.21739,83.350006 361.50723,626.148934 -723.0145,-2e-5 z"
       transform="matrix(0.79729953,0,0,0.79729953,102.41391,-66.18423)"
       inkscape:transform-center-y="-83.204711" />
    <path
       inkscape:transform-center-y="83.204708"
       transform="matrix(0.79729953,0,0,-0.79729953,102.41391,1065.1712)"
       d="m 499.21739,83.350006 361.50723,626.148934 -723.0145,-2e-5 z"
       inkscape:randomized="0"
       inkscape:rounded="0"
       inkscape:flatsided="true"
       sodipodi:arg2="-0.52359878"
       sodipodi:arg1="-1.5707963"
       sodipodi:r2="208.71631"
       sodipodi:r1="417.43262"
       sodipodi:cy="500.78262"
       sodipodi:cx="499.21738"
       sodipodi:sides="3"
       id="path3783"
       style="color:#000000;fill:none;stroke:#000000;stroke-width:1;stroke-linecap:square;stroke-linejoin:round;stroke-miterlimit:4;stroke-opacity:1;stroke-dasharray:none;stroke-dashoffset:0;marker:none;visibility:visible;display:inline;overflow:visible;enable-background:accumulate"
       sodipodi:type="star" />
    <path
       inkscape:connector-curvature="0"
       id="path3811"
       d="M -1.6568542,500.04582 498.34315,999.0458 l 500,-497.99998"
       style="color:#000000;fill:none;stroke:#000000;stroke-width:1;stroke-linecap:square;stroke-linejoin:round;stroke-miterlimit:4;stroke-opacity:1;stroke-dasharray:none;stroke-dashoffset:0;marker:none;visibility:visible;display:inline;overflow:visible;enable-background:accumulate" />
  </g>
  <g
     inkscape:label="Layer 1"
     inkscape:groupmode="layer"
     id="layer1"
     transform="translate(13,-416.5)"
     style="display:inline">
    <g
       id="g3021">
      <path
         sodipodi:open="true"
         sodipodi:end="6.4412984"
         sodipodi:start="0.16084938"
         transform="matrix(0.09873637,0,0,0.09873637,232.39386,433.15542)"
         d="m 133.61275,184.8047 c -2.65356,16.35467 -18.06278,27.46161 -34.41745,24.80805 -16.35467,-2.65356 -27.461611,-18.06278 -24.808048,-34.41745 2.653563,-16.35467 18.062779,-27.46161 34.417448,-24.80805 16.32303,2.64843 27.42484,18.00618 24.82108,34.3364"
         sodipodi:ry="30"
         sodipodi:rx="30"
         sodipodi:cy="180"
         sodipodi:cx="104"
         id="path4165"
         style="color:#000000;fill:#000000;stroke:#000003;stroke-width:0.70866144;stroke-linecap:round;stroke-linejoin:round;stroke-miterlimit:4;stroke-opacity:1;stroke-dasharray:none;stroke-dashoffset:0;marker:none;visibility:visible;display:inline;overflow:visible;enable-background:accumulate"
         sodipodi:type="arc" />
      <path
         sodipodi:type="arc"
         style="color:#000000;fill:#000000;stroke:#000003;stroke-width:0.70866144;stroke-linecap:round;stroke-linejoin:round;stroke-miterlimit:4;stroke-opacity:1;stroke-dasharray:none;stroke-dashoffset:0;marker:none;visibility:visible;display:inline;overflow:visible;enable-background:accumulate"
         id="path4167"
         sodipodi:cx="104"
         sodipodi:cy="180"
         sodipodi:rx="30"
         sodipodi:ry="30"
         d="m 133.61275,184.8047 c -2.65356,16.35467 -18.06278,27.46161 -34.41745,24.80805 -16.35467,-2.65356 -27.461611,-18.06278 -24.808048,-34.41745 2.653563,-16.35467 18.062779,-27.46161 34.417448,-24.80805 16.32303,2.64843 27.42484,18.00618 24.82108,34.3364"
         transform="matrix(0.11519243,0,0,0.11519243,284.19462,431.69333)"
         sodipodi:start="0.16084938"
         sodipodi:end="6.4412984"
         sodipodi:open="true" />
      <path
         sodipodi:type="arc"
         style="color:#000000;fill:#000000;stroke:#000003;stroke-width:0.70866144;stroke-linecap:round;stroke-linejoin:round;stroke-miterlimit:4;stroke-opacity:1;stroke-dasharray:none;stroke-dashoffset:0;marker:none;visibility:visible;display:inline;overflow:visible;enable-background:accumulate"
         id="path4169"
         sodipodi:cx="104"
         sodipodi:cy="180"
         sodipodi:rx="30"
         sodipodi:ry="30"
         d="m 133.61275,184.8047 c -2.65356,16.35467 -18.06278,27.46161 -34.41745,24.80805 -16.35467,-2.65356 -27.461611,-18.06278 -24.808048,-34.41745 2.653563,-16.35467 18.062779,-27.46161 34.417448,-24.80805 16.32303,2.64843 27.42484,18.00618 24.82108,34.3364"
         transform="matrix(0.0822803,0,0,0.0822803,182.86518,435.61751)"
         sodipodi:start="0.16084938"
         sodipodi:end="6.4412984"
         sodipodi:open="true" />
      <path
         sodipodi:open="true"
         sodipodi:end="6.4412984"
         sodipodi:start="0.16084938"
         transform="matrix(0.13094564,0,0,0.13094564,335.86341,428.08364)"
         d="m 133.61275,184.8047 c -2.65356,16.35467 -18.06278,27.46161 -34.41745,24.80805 -16.35467,-2.65356 -27.461611,-18.06278 -24.808048,-34.41745 2.653563,-16.35467 18.062779,-27.46161 34.417448,-24.80805 16.32303,2.64843 27.42484,18.00618 24.82108,34.3364"
         sodipodi:ry="30"
         sodipodi:rx="30"
         sodipodi:cy="180"
         sodipodi:cx="104"
         id="path4171"
         style="color:#000000;fill:#000000;stroke:#000003;stroke-width:0.70866144;stroke-linecap:round;stroke-linejoin:round;stroke-miterlimit:4;stroke-opacity:1;stroke-dasharray:none;stroke-dashoffset:0;marker:none;visibility:visible;display:inline;overflow:visible;enable-background:accumulate"
         sodipodi:type="arc" />
      <path
         sodipodi:type="arc"
         style="color:#000000;fill:#000000;stroke:#000003;stroke-width:0.70866144;stroke-linecap:round;stroke-linejoin:round;stroke-miterlimit:4;stroke-opacity:1;stroke-dasharray:none;stroke-dashoffset:0;marker:none;visibility:visible;display:inline;overflow:visible;enable-background:accumulate"
         id="path4173"
         sodipodi:cx="104"
         sodipodi:cy="180"
         sodipodi:rx="30"
         sodipodi:ry="30"
         d="m 133.61275,184.8047 c -2.65356,16.35467 -18.06278,27.46161 -34.41745,24.80805 -16.35467,-2.65356 -27.461611,-18.06278 -24.808048,-34.41745 2.653563,-16.35467 18.062779,-27.46161 34.417448,-24.80805 16.32303,2.64843 27.42484,18.00618 24.82108,34.3364"
         transform="matrix(0.1476293,0,0,0.1476293,383.15515,424.27914)"
         sodipodi:start="0.16084938"
         sodipodi:end="6.4412984"
         sodipodi:open="true" />
      <path
         sodipodi:open="true"
         sodipodi:end="6.4412984"
         sodipodi:start="0.16084938"
         transform="matrix(0.16432333,0,0,0.16432333,435.99547,421.26625)"
         d="m 133.61275,184.8047 c -2.65356,16.35467 -18.06278,27.46161 -34.41745,24.80805 -16.35467,-2.65356 -27.461611,-18.06278 -24.808048,-34.41745 2.653563,-16.35467 18.062779,-27.46161 34.417448,-24.80805 16.32303,2.64843 27.42484,18.00618 24.82108,34.3364"
         sodipodi:ry="30"
         sodipodi:rx="30"
         sodipodi:cy="180"
         sodipodi:cx="104"
         id="path4175"
         style="color:#000000;fill:#000000;stroke:#000003;stroke-width:0.70866144;stroke-linecap:round;stroke-linejoin:round;stroke-miterlimit:4;stroke-opacity:1;stroke-dasharray:none;stroke-dashoffset:0;marker:none;visibility:visible;display:inline;overflow:visible;enable-background:accumulate"
         sodipodi:type="arc" />
      <path
         sodipodi:type="arc"
         style="color:#000000;fill:#000000;stroke:#000003;stroke-width:0.70866144;stroke-linecap:round;stroke-linejoin:round;stroke-miterlimit:4;stroke-opacity:1;stroke-dasharray:none;stroke-dashoffset:0;marker:none;visibility:visible;display:inline;overflow:visible;enable-background:accumulate"
         id="path4177"
         sodipodi:cx="104"
         sodipodi:cy="180"
         sodipodi:rx="30"
         sodipodi:ry="30"
         d="m 133.61275,184.8047 c -2.65356,16.35467 -18.06278,27.46161 -34.41745,24.80805 -16.35467,-2.65356 -27.461611,-18.06278 -24.808048,-34.41745 2.653563,-16.35467 18.062779,-27.46161 34.417448,-24.80805 16.32303,2.64843 27.42484,18.00618 24.82108,34.3364"
         transform="matrix(0.18101153,0,0,0.18101153,-5.712825,460.31523)"
         sodipodi:start="0.16084938"
         sodipodi:end="6.4412984"
         sodipodi:open="true" />
      <path
         sodipodi:open="true"
         sodipodi:end="6.4412984"
         sodipodi:start="0.16084938"
         transform="matrix(0.19763635,0,0,0.19763635,30.409621,457.78252)"
         d="m 133.61275,184.8047 c -2.65356,16.35467 -18.06278,27.46161 -34.41745,24.80805 -16.35467,-2.65356 -27.461611,-18.06278 -24.808048,-34.41745 2.653563,-16.35467 18.062779,-27.46161 34.417448,-24.80805 16.32303,2.64843 27.42484,18.00618 24.82108,34.3364"
         sodipodi:ry="30"
         sodipodi:rx="30"
         sodipodi:cy="180"
         sodipodi:cx="104"
         id="path4179"
         style="color:#000000;fill:#000000;stroke:#000003;stroke-width:0.70866144;stroke-linecap:round;stroke-linejoin:round;stroke-miterlimit:4;stroke-opacity:1;stroke-dasharray:none;stroke-dashoffset:0;marker:none;visibility:visible;display:inline;overflow:visible;enable-background:accumulate"
         sodipodi:type="arc" />
      <path
         sodipodi:type="arc"
         style="color:#000000;fill:#000000;stroke:#000003;stroke-width:0.70866144;stroke-linecap:round;stroke-linejoin:round;stroke-miterlimit:4;stroke-opacity:1;stroke-dasharray:none;stroke-dashoffset:0;marker:none;visibility:visible;display:inline;overflow:visible;enable-background:accumulate"
         id="path4181"
         sodipodi:cx="104"
         sodipodi:cy="180"
         sodipodi:rx="30"
         sodipodi:ry="30"
         d="m 133.61275,184.8047 c -2.65356,16.35467 -18.06278,27.46161 -34.41745,24.80805 -16.35467,-2.65356 -27.461611,-18.06278 -24.808048,-34.41745 2.653563,-16.35467 18.062779,-27.46161 34.417448,-24.80805 16.32303,2.64843 27.42484,18.00618 24.82108,34.3364"
         transform="matrix(0.21410604,0,0,0.21410604,69.97852,452.73218)"
         sodipodi:start="0.16084938"
         sodipodi:end="6.4412984"
         sodipodi:open="true" />
      <path
         sodipodi:open="true"
         sodipodi:end="6.4412984"
         sodipodi:start="0.16084938"
         transform="matrix(0.23057574,0,0,0.23057574,118.4261,448.9392)"
         d="m 133.61275,184.8047 c -2.65356,16.35467 -18.06278,27.46161 -34.41745,24.80805 -16.35467,-2.65356 -27.461611,-18.06278 -24.808048,-34.41745 2.653563,-16.35467 18.062779,-27.46161 34.417448,-24.80805 16.32303,2.64843 27.42484,18.00618 24.82108,34.3364"
         sodipodi:ry="30"
         sodipodi:rx="30"
         sodipodi:cy="180"
         sodipodi:cx="104"
         id="path4183"
         style="color:#000000;fill:#000000;stroke:#000003;stroke-width:0.70866144;stroke-linecap:round;stroke-linejoin:round;stroke-miterlimit:4;stroke-opacity:1;stroke-dasharray:none;stroke-dashoffset:0;marker:none;visibility:visible;display:inline;overflow:visible;enable-background:accumulate"
         sodipodi:type="arc" />
      <path
         sodipodi:type="arc"
         style="color:#000000;fill:#000000;stroke:#000003;stroke-width:0.70866144;stroke-linecap:round;stroke-linejoin:round;stroke-miterlimit:4;stroke-opacity:1;stroke-dasharray:none;stroke-dashoffset:0;marker:none;visibility:visible;display:inline;overflow:visible;enable-background:accumulate"
         id="path4185"
         sodipodi:cx="104"
         sodipodi:cy="180"
         sodipodi:rx="30"
         sodipodi:ry="30"
         d="m 133.61275,184.8047 c -2.65356,16.35467 -18.06278,27.46161 -34.41745,24.80805 -16.35467,-2.65356 -27.461611,-18.06278 -24.808048,-34.41745 2.653563,-16.35467 18.062779,-27.46161 34.417448,-24.80805 16.32303,2.64843 27.42484,18.00618 24.82108,34.3364"
         transform="matrix(0.24704544,0,0,0.24704544,165.83814,446.43912)"
         sodipodi:start="0.16084938"
         sodipodi:end="6.4412984"
         sodipodi:open="true" />
      <path
         inkscape:transform-center-y="-125.20505"
         inkscape:transform-center-x="-281.33421"
         sodipodi:open="true"
         sodipodi:end="6.4412984"
         sodipodi:start="0.16084938"
         transform="matrix(0.26351513,0,0,0.26351513,217.62529,443.47457)"
         d="m 133.61275,184.8047 c -2.65356,16.35467 -18.06278,27.46161 -34.41745,24.80805 -16.35467,-2.65356 -27.461611,-18.06278 -24.808048,-34.41745 2.653563,-16.35467 18.062779,-27.46161 34.417448,-24.80805 16.32303,2.64843 27.42484,18.00618 24.82108,34.3364"
         sodipodi:ry="30"
         sodipodi:rx="30"
         sodipodi:cy="180"
         sodipodi:cx="104"
         id="path4187"
         style="color:#000000;fill:#000000;stroke:#000003;stroke-width:0.70866144;stroke-linecap:round;stroke-linejoin:round;stroke-miterlimit:4;stroke-opacity:1;stroke-dasharray:none;stroke-dashoffset:0;marker:none;visibility:visible;display:inline;overflow:visible;enable-background:accumulate"
         sodipodi:type="arc" />
      <path
         inkscape:transform-center-x="-40.645134"
         sodipodi:open="true"
         sodipodi:end="6.4412984"
         sodipodi:start="0.16084938"
         transform="matrix(0.06501093,0,0,0.06501093,130.40021,439.0805)"
         d="m 133.61275,184.8047 c -2.65356,16.35467 -18.06278,27.46161 -34.41745,24.80805 -16.35467,-2.65356 -27.461611,-18.06278 -24.808048,-34.41745 2.653563,-16.35467 18.062779,-27.46161 34.417448,-24.80805 16.32303,2.64843 27.42484,18.00618 24.82108,34.3364"
         sodipodi:ry="30"
         sodipodi:rx="30"
         sodipodi:cy="180"
         sodipodi:cx="104"
         id="path4189"
         style="color:#000000;fill:#000000;stroke:#000003;stroke-width:0.70866144;stroke-linecap:round;stroke-linejoin:round;stroke-miterlimit:4;stroke-opacity:1;stroke-dasharray:none;stroke-dashoffset:0;marker:none;visibility:visible;display:inline;overflow:visible;enable-background:accumulate"
         sodipodi:type="arc" />
      <path
         sodipodi:type="arc"
         style="color:#000000;fill:#000000;stroke:#000003;stroke-width:0.70866144;stroke-linecap:round;stroke-linejoin:round;stroke-miterlimit:4;stroke-opacity:1;stroke-dasharray:none;stroke-dashoffset:0;marker:none;visibility:visible;display:inline;overflow:visible;enable-background:accumulate"
         id="path4191"
         sodipodi:cx="104"
         sodipodi:cy="180"
         sodipodi:rx="30"
         sodipodi:ry="30"
         d="m 133.61275,184.8047 c -2.65356,16.35467 -18.06278,27.46161 -34.41745,24.80805 -16.35467,-2.65356 -27.461611,-18.06278 -24.808048,-34.41745 2.653563,-16.35467 18.062779,-27.46161 34.417448,-24.80805 16.32303,2.64843 27.42484,18.00618 24.82108,34.3364"
         transform="matrix(0.04844048,0,0,0.04844048,86.158884,442.36919)"
         sodipodi:start="0.16084938"
         sodipodi:end="6.4412984"
         sodipodi:open="true"
         inkscape:transform-center-x="-30.285215" />
      <path
         inkscape:transform-center-x="-19.977929"
         sodipodi:open="true"
         sodipodi:end="6.4412984"
         sodipodi:start="0.16084938"
         transform="matrix(0.03195422,0,0,0.03195422,45.628706,445.26686)"
         d="m 133.61275,184.8047 c -2.65356,16.35467 -18.06278,27.46161 -34.41745,24.80805 -16.35467,-2.65356 -27.461611,-18.06278 -24.808048,-34.41745 2.653563,-16.35467 18.062779,-27.46161 34.417448,-24.80805 16.32303,2.64843 27.42484,18.00618 24.82108,34.3364"
         sodipodi:ry="30"
         sodipodi:rx="30"
         sodipodi:cy="180"
         sodipodi:cx="104"
         id="path4193"
         style="color:#000000;fill:#000000;stroke:#000003;stroke-width:0.70866144;stroke-linecap:round;stroke-linejoin:round;stroke-miterlimit:4;stroke-opacity:1;stroke-dasharray:none;stroke-dashoffset:0;marker:none;visibility:visible;display:inline;overflow:visible;enable-background:accumulate"
         sodipodi:type="arc" />
      <path
         sodipodi:type="arc"
         style="color:#000000;fill:#000000;stroke:#000003;stroke-width:0.70866144;stroke-linecap:round;stroke-linejoin:round;stroke-miterlimit:4;stroke-opacity:1;stroke-dasharray:none;stroke-dashoffset:0;marker:none;visibility:visible;display:inline;overflow:visible;enable-background:accumulate"
         id="path4195"
         sodipodi:cx="104"
         sodipodi:cy="180"
         sodipodi:rx="30"
         sodipodi:ry="30"
         d="m 133.61275,184.8047 c -2.65356,16.35467 -18.06278,27.46161 -34.41745,24.80805 -16.35467,-2.65356 -27.461611,-18.06278 -24.808048,-34.41745 2.653563,-16.35467 18.062779,-27.46161 34.417448,-24.80805 16.32303,2.64843 27.42484,18.00618 24.82108,34.3364"
         transform="matrix(0.01564437,0,0,0.01564437,14.610379,449.82961)"
         sodipodi:start="0.16084938"
         sodipodi:end="6.4412984"
         sodipodi:open="true"
         inkscape:transform-center-x="-9.7809336" />
      <path
         sodipodi:type="arc"
         style="color:#000000;fill:#000000;stroke:#000003;stroke-width:0.70866144;stroke-linecap:round;stroke-linejoin:round;stroke-miterlimit:4;stroke-opacity:1;stroke-dasharray:none;stroke-dashoffset:0;marker:none;visibility:visible;display:inline;overflow:visible;enable-background:accumulate"
         id="path4197"
         sodipodi:cx="104"
         sodipodi:cy="180"
         sodipodi:rx="30"
         sodipodi:ry="30"
         d="m 133.61275,184.8047 c -2.65356,16.35467 -18.06278,27.46161 -34.41745,24.80805 -16.35467,-2.65356 -27.461611,-18.06278 -24.808048,-34.41745 2.653563,-16.35467 18.062779,-27.46161 34.417448,-24.80805 16.32303,2.64843 27.42484,18.00618 24.82108,34.3364"
         transform="matrix(0.27998483,0,0,0.27998483,268.91244,440.51002)"
         sodipodi:start="0.16084938"
         sodipodi:end="6.4412984"
         sodipodi:open="true"
         inkscape:transform-center-x="-298.9176"
         inkscape:transform-center-y="-133.03037" />
      <path
         inkscape:transform-center-y="-140.85537"
         inkscape:transform-center-x="-316.50028"
         sodipodi:open="true"
         sodipodi:end="6.4412984"
         sodipodi:start="0.16084938"
         transform="matrix(0.29645386,0,0,0.29645386,320.19964,436.04561)"
         d="m 133.61275,184.8047 c -2.65356,16.35467 -18.06278,27.46161 -34.41745,24.80805 -16.35467,-2.65356 -27.461611,-18.06278 -24.808048,-34.41745 2.653563,-16.35467 18.062779,-27.46161 34.417448,-24.80805 16.32303,2.64843 27.42484,18.00618 24.82108,34.3364"
         sodipodi:ry="30"
         sodipodi:rx="30"
         sodipodi:cy="180"
         sodipodi:cx="104"
         id="path4199"
         style="color:#000000;fill:#000000;stroke:#000003;stroke-width:0.70866144;stroke-linecap:round;stroke-linejoin:round;stroke-miterlimit:4;stroke-opacity:1;stroke-dasharray:none;stroke-dashoffset:0;marker:none;visibility:visible;display:inline;overflow:visible;enable-background:accumulate"
         sodipodi:type="arc" />
      <path
         sodipodi:type="arc"
         style="color:#000000;fill:#000000;stroke:#000003;stroke-width:0.70866144;stroke-linecap:round;stroke-linejoin:round;stroke-miterlimit:4;stroke-opacity:1;stroke-dasharray:none;stroke-dashoffset:0;marker:none;visibility:visible;display:inline;overflow:visible;enable-background:accumulate"
         id="path4201"
         sodipodi:cx="104"
         sodipodi:cy="180"
         sodipodi:rx="30"
         sodipodi:ry="30"
         d="m 133.61275,184.8047 c -2.65356,16.35467 -18.06278,27.46161 -34.41745,24.80805 -16.35467,-2.65356 -27.461611,-18.06278 -24.808048,-34.41745 2.653563,-16.35467 18.062779,-27.46161 34.417448,-24.80805 16.32303,2.64843 27.42484,18.00618 24.82108,34.3364"
         transform="matrix(0.31292422,0,0,0.31292422,367.98674,434.08092)"
         sodipodi:start="0.16084938"
         sodipodi:end="6.4412984"
         sodipodi:open="true"
         inkscape:transform-center-x="-334.08437"
         inkscape:transform-center-y="-148.681" />
      <path
         inkscape:transform-center-y="-156.50632"
         inkscape:transform-center-x="-351.66775"
         sodipodi:open="true"
         sodipodi:end="6.4412984"
         sodipodi:start="0.16084938"
         transform="matrix(0.32939391,0,0,0.32939391,419.77389,432.11637)"
         d="m 133.61275,184.8047 c -2.65356,16.35467 -18.06278,27.46161 -34.41745,24.80805 -16.35467,-2.65356 -27.461611,-18.06278 -24.808048,-34.41745 2.653563,-16.35467 18.062779,-27.46161 34.417448,-24.80805 16.32303,2.64843 27.42484,18.00618 24.82108,34.3364"
         sodipodi:ry="30"
         sodipodi:rx="30"
         sodipodi:cy="180"
         sodipodi:cx="104"
         id="path4203"
         style="color:#000000;fill:#000000;stroke:#000003;stroke-width:0.70866144;stroke-linecap:round;stroke-linejoin:round;stroke-miterlimit:4;stroke-opacity:1;stroke-dasharray:none;stroke-dashoffset:0;marker:none;visibility:visible;display:inline;overflow:visible;enable-background:accumulate"
         sodipodi:type="arc" />
    </g>
    <rect
       style="color:#000000;fill:#000000;stroke:none;stroke-width:15;stroke-linecap:round;stroke-linejoin:round;stroke-miterlimit:4;stroke-opacity:1;stroke-dasharray:15, 15;stroke-dashoffset:0;marker:none;visibility:visible;display:inline;overflow:visible;enable-background:accumulate"
       id="rect3043"
       width="500.63159"
       height="98.641396"
       x="0.70710677"
       y="1.0050498"
       transform="translate(-13,416.5)" />
  </g>
</svg>
