<?xml version="1.0" encoding="UTF-8" standalone="no"?>
<!-- Created with Inkscape (http://www.inkscape.org/) -->

<svg
   xmlns:dc="http://purl.org/dc/elements/1.1/"
   xmlns:cc="http://creativecommons.org/ns#"
   xmlns:rdf="http://www.w3.org/1999/02/22-rdf-syntax-ns#"
   xmlns:svg="http://www.w3.org/2000/svg"
   xmlns="http://www.w3.org/2000/svg"
   xmlns:xlink="http://www.w3.org/1999/xlink"
   xmlns:sodipodi="http://sodipodi.sourceforge.net/DTD/sodipodi-0.dtd"
   xmlns:inkscape="http://www.inkscape.org/namespaces/inkscape"
   width="265.84375"
   height="265.875"
   id="svg2"
   version="1.1"
   inkscape:version="0.48.0 r9654"
   sodipodi:docname="wedges.svg"
   inkscape:export-filename="D:\home\00_shapeways\projects\abfab3d\code\trunk\docs\images\wedgs.png"
   inkscape:export-xdpi="600.29999"
   inkscape:export-ydpi="600.29999">
  <defs
     id="defs4">
    <linearGradient
       id="linearGradient3791">
      <stop
         style="stop-color:#000000;stop-opacity:1;"
         offset="0"
         id="stop3793" />
      <stop
         style="stop-color:#f6f6f6;stop-opacity:0.99130434;"
         offset="1"
         id="stop3795" />
    </linearGradient>
    <linearGradient
       id="linearGradient3783">
      <stop
         style="stop-color:#000000;stop-opacity:1;"
         offset="0"
         id="stop3785" />
      <stop
         style="stop-color:#ffffff;stop-opacity:1;"
         offset="1"
         id="stop3787" />
    </linearGradient>
    <linearGradient
       id="linearGradient3759">
      <stop
         style="stop-color:#0803f9;stop-opacity:1;"
         offset="0"
         id="stop3761" />
      <stop
         style="stop-color:#193ac5;stop-opacity:0;"
         offset="1"
         id="stop3763" />
    </linearGradient>
    <linearGradient
       inkscape:collect="always"
       xlink:href="#linearGradient3791"
       id="linearGradient3797"
       x1="85.306732"
       y1="324.86716"
       x2="667.66614"
       y2="324.86716"
       gradientUnits="userSpaceOnUse" />
  </defs>
  <sodipodi:namedview
     id="base"
     pagecolor="#ffffff"
     bordercolor="#666666"
     borderopacity="1.0"
     inkscape:pageopacity="1"
     inkscape:pageshadow="2"
     inkscape:zoom="2.8284271"
     inkscape:cx="107.63265"
     inkscape:cy="134.3235"
     inkscape:document-units="px"
     inkscape:current-layer="layer1"
     showgrid="false"
     inkscape:window-width="1671"
     inkscape:window-height="1035"
     inkscape:window-x="122"
     inkscape:window-y="34"
     inkscape:window-maximized="0"
     fit-margin-left="0"
     fit-margin-top="0"
     fit-margin-right="0"
     fit-margin-bottom="0" />
  <metadata
     id="metadata7">
    <rdf:RDF>
      <cc:Work
         rdf:about="">
        <dc:format>image/svg+xml</dc:format>
        <dc:type
           rdf:resource="http://purl.org/dc/dcmitype/StillImage" />
        <dc:title></dc:title>
      </cc:Work>
    </rdf:RDF>
  </metadata>
  <g
     inkscape:groupmode="layer"
     id="layer2"
     inkscape:label="background"
     style="display:none"
     transform="translate(-104.65625,-767.03125)">
    <rect
       transform="translate(13,483.5)"
       y="16.999023"
       x="487.49899"
       height="499.00198"
       width="499.00201"
       id="rect3767"
       style="color:#000000;fill:none;stroke:#000000;stroke-width:0.99800402;stroke-linecap:square;stroke-linejoin:round;stroke-miterlimit:4;stroke-opacity:1;stroke-dasharray:none;stroke-dashoffset:0;marker:none;visibility:visible;display:inline;overflow:visible;enable-background:accumulate" />
    <rect
       transform="translate(13,483.5)"
       y="-483.00098"
       x="-12.500998"
       height="499.00198"
       width="499.00201"
       id="rect3765"
       style="color:#000000;fill:none;stroke:#000000;stroke-width:0.99800402;stroke-linecap:square;stroke-linejoin:round;stroke-miterlimit:4;stroke-opacity:1;stroke-dasharray:none;stroke-dashoffset:0;marker:none;visibility:visible;display:inline;overflow:visible;enable-background:accumulate" />
    <rect
       transform="translate(13,483.5)"
       style="color:#000000;fill:none;stroke:#000000;stroke-width:0.99800402;stroke-linecap:square;stroke-linejoin:round;stroke-miterlimit:4;stroke-opacity:1;stroke-dasharray:none;stroke-dashoffset:0;marker:none;visibility:visible;display:inline;overflow:visible;enable-background:accumulate"
       id="rect2995"
       width="499.00201"
       height="499.00198"
       x="487.49902"
       y="-483.00098" />
    <rect
       transform="translate(13,483.5)"
       style="color:#000000;fill:none;stroke:#000000;stroke-width:0.99800402;stroke-linecap:square;stroke-linejoin:round;stroke-miterlimit:4;stroke-opacity:1;stroke-dasharray:none;stroke-dashoffset:0;marker:none;visibility:visible;display:inline;overflow:visible;enable-background:accumulate"
       id="rect3769"
       width="499.00201"
       height="499.00198"
       x="-12.500998"
       y="16.999023" />
    <path
       style="color:#000000;fill:none;stroke:#000000;stroke-width:1;stroke-linecap:square;stroke-linejoin:round;stroke-miterlimit:4;stroke-opacity:1;stroke-dasharray:none;stroke-dashoffset:0;marker:none;visibility:visible;display:inline;overflow:visible;enable-background:accumulate"
       d="M 0,500 500,1.0000042 1000,499"
       id="path3778"
       inkscape:connector-curvature="0" />
    <path
       sodipodi:type="star"
       style="color:#000000;fill:none;stroke:#000000;stroke-width:1;stroke-linecap:square;stroke-linejoin:round;stroke-miterlimit:4;stroke-opacity:1;stroke-dasharray:none;stroke-dashoffset:0;marker:none;visibility:visible;display:inline;overflow:visible;enable-background:accumulate"
       id="path3780"
       sodipodi:sides="3"
       sodipodi:cx="499.21738"
       sodipodi:cy="500.78262"
       sodipodi:r1="417.43262"
       sodipodi:r2="208.71631"
       sodipodi:arg1="-1.5707963"
       sodipodi:arg2="-0.52359878"
       inkscape:flatsided="true"
       inkscape:rounded="0"
       inkscape:randomized="0"
       d="m 499.21739,83.350006 361.50723,626.148934 -723.0145,-2e-5 z"
       transform="matrix(0.79729953,0,0,0.79729953,102.41391,-66.18423)"
       inkscape:transform-center-y="-83.204711" />
    <path
       inkscape:transform-center-y="83.204708"
       transform="matrix(0.79729953,0,0,-0.79729953,102.41391,1065.1712)"
       d="m 499.21739,83.350006 361.50723,626.148934 -723.0145,-2e-5 z"
       inkscape:randomized="0"
       inkscape:rounded="0"
       inkscape:flatsided="true"
       sodipodi:arg2="-0.52359878"
       sodipodi:arg1="-1.5707963"
       sodipodi:r2="208.71631"
       sodipodi:r1="417.43262"
       sodipodi:cy="500.78262"
       sodipodi:cx="499.21738"
       sodipodi:sides="3"
       id="path3783"
       style="color:#000000;fill:none;stroke:#000000;stroke-width:1;stroke-linecap:square;stroke-linejoin:round;stroke-miterlimit:4;stroke-opacity:1;stroke-dasharray:none;stroke-dashoffset:0;marker:none;visibility:visible;display:inline;overflow:visible;enable-background:accumulate"
       sodipodi:type="star" />
    <path
       inkscape:connector-curvature="0"
       id="path3811"
       d="M -1.6568542,500.04582 498.34315,999.0458 l 500,-497.99998"
       style="color:#000000;fill:none;stroke:#000000;stroke-width:1;stroke-linecap:square;stroke-linejoin:round;stroke-miterlimit:4;stroke-opacity:1;stroke-dasharray:none;stroke-dashoffset:0;marker:none;visibility:visible;display:inline;overflow:visible;enable-background:accumulate" />
  </g>
  <g
     inkscape:label="Layer 1"
     inkscape:groupmode="layer"
     id="layer1"
     transform="translate(-91.65625,-283.53125)"
     style="display:inline">
    <path
       style="color:#000000;fill:#000000;fill-opacity:1;stroke:none;stroke-width:15;marker:none;visibility:visible;display:inline;overflow:visible;enable-background:accumulate"
       d="m -33.21875,-24.03125 0,265.875 265.84375,0 0,-265.875 -265.84375,0 z M 101.65625,-2.3125 102,104.125 91.40625,-1.9375 l 10.25,-0.375 z M 111,-2.09375 121.15625,-0.65625 103,104.21875 111,-2.09375 z M 82.15625,-0.53125 101,104.21875 72.125,1.59375 l 10.03125,-2.125 z m 48.15625,1.71875 9.75,3.15625 L 104,104.46875 130.3125,1.1875 z M 63.28125,4.59375 100,104.46875 53.75,8.4375 63.28125,4.59375 z M 148.75,7.75 157.8125,12.5625 104.90625,104.90625 148.75,7.75 z m -103.1875,5.15625 53.53125,92 -62.21875,-86.5625 8.6875,-5.4375 z m 120.25,4.5 L 173.875,23.75 105.75,105.5 165.8125,17.40625 z M 29.5625,24.1875 98.25,105.5 21.9375,31.0625 l 7.625,-6.875 z m 151.34375,5.71875 6.84375,7.625 -81.28125,68.6875 74.4375,-76.3125 z m -165.125,8.15625 81.75,68.15625 -88.0625,-60.0625 6.3125,-8.09375 z m 177.8125,6.75 5.4375,8.71875 -91.96875,53.5 86.53125,-62.21875 z m -189,9.3125 L 96.9375,107.03125 -0.21875,63.1875 4.59375,54.125 z m 198.9375,7.59375 3.84375,9.5 -99.90625,36.75 96.0625,-46.25 z m -207.125,10.1875 100.125,36.0625 -103.3125,-26.3125 3.1875,-9.75 z m 213.9375,8.1875 L 212.5,90.125 107.75,108.9375 210.34375,80.09375 z M -8.59375,90.8125 96.25,108.9375 -10.03125,100.96875 -8.59375,90.8125 z m 222.5,8.53125 0.34375,10.25 -106.40625,0.375 106.0625,-10.625 z m -117.75,10.625 -106.0625,10.59375 -0.34375,-10.25 106.40625,-0.34375 z m 0.09375,1 -102.59375,28.875 L -8.5,129.78125 96.25,110.96875 z m 11.5,0 106.28125,7.96875 -1.40625,10.15625 -104.875,-18.125 z m -11.21875,0.96875 -96.0625,46.25 -3.84375,-9.5 99.90625,-36.75 z m 10.9375,0 103.3125,26.3125 -3.1875,9.75 -100.125,-36.0625 z M 96.9375,112.875 10.40625,175.09375 4.96875,166.375 96.9375,112.875 z m 10.125,0 97.15625,43.84375 -4.8125,9.0625 L 107.0625,112.875 z M 97.53125,113.71875 23.09375,190 16.25,182.375 97.53125,113.71875 z m 8.9375,0 88.0625,60.03125 -6.3125,8.09375 -81.75,-68.125 z M 98.25,114.4375 38.1875,202.5 30.125,196.1875 98.25,114.4375 z m 7.5,0 76.3125,74.40625 -7.625,6.875 L 105.75,114.4375 z M 99.09375,115 55.25,212.15625 46.1875,207.34375 99.09375,115 z m 5.8125,0 L 167.125,201.5625 158.4375,207 104.90625,115 z M 100,115.4375 73.6875,218.71875 63.9375,215.5625 100,115.4375 z m 4,0 46.25,96.03125 -9.53125,3.84375 L 104,115.4375 z m -3,0.25 L 93,222 82.84375,220.5625 101,115.6875 z m 2,0 28.875,102.625 -10.03125,2.125 L 103,115.6875 z m -1,0.0937 10.59375,106.0625 -10.25,0.375 L 102,115.78125 z"
       transform="translate(124.875,307.5625)"
       id="rect3206"
       inkscape:connector-curvature="0" />
  </g>
</svg>
